<svg xmlns="http://www.w3.org/2000/svg" width="1000" height="1000" version="1.1"><defs><linearGradient id="gr0" x1="0%" x2="100%" y1="0%" y2="100%"><stop offset="0%" stop-color="rgb(208,208,208)"/><stop offset="100%" stop-color="rgb(187,187,187)"/></linearGradient></defs><polygon id="triangle36" points="24,15 87,157 199,9" style="fill: url(#gr0); stroke: rgb(0, 0, 0); stroke-width: 0;"/><defs><linearGradient id="gr1" x1="0%" x2="100%" y1="0%" y2="100%"><stop offset="0%" stop-color="rgb(162,162,162)"/><stop offset="100%" stop-color="rgb(196,196,196)"/></linearGradient></defs><polygon id="triangle36" points="87,157 269,84 199,9" style="fill: url(#gr1); stroke: rgb(0, 0, 0); stroke-width: 0;"/><defs><linearGradient id="gr2" x1="0%" x2="100%" y1="0%" y2="100%"><stop offset="0%" stop-color="rgb(215,215,215)"/><stop offset="100%" stop-color="rgb(202,202,202)"/></linearGradient></defs><polygon id="triangle36" points="199,9 269,84 424,27" style="fill: url(#gr2); stroke: rgb(0, 0, 0); stroke-width: 0;"/><defs><linearGradient id="gr3" x1="0%" x2="100%" y1="0%" y2="100%"><stop offset="0%" stop-color="rgb(178,178,178)"/><stop offset="100%" stop-color="rgb(168,168,168)"/></linearGradient></defs><polygon id="triangle36" points="269,84 424,27 485,198" style="fill: url(#gr3); stroke: rgb(0, 0, 0); stroke-width: 0;"/><defs><linearGradient id="gr4" x1="0%" x2="100%" y1="0%" y2="100%"><stop offset="0%" stop-color="rgb(153,153,153)"/><stop offset="100%" stop-color="rgb(109,109,109)"/></linearGradient></defs><polygon id="triangle36" points="269,84 485,198 363,289" style="fill: url(#gr4); stroke: rgb(0, 0, 0); stroke-width: 0;"/><defs><linearGradient id="gr5" x1="0%" x2="100%" y1="0%" y2="100%"><stop offset="0%" stop-color="rgb(142,142,142)"/><stop offset="100%" stop-color="rgb(88,88,88)"/></linearGradient></defs><polygon id="triangle36" points="269,84 363,289 170,369" style="fill: url(#gr5); stroke: rgb(0, 0, 0); stroke-width: 0;"/><defs><linearGradient id="gr6" x1="0%" x2="100%" y1="0%" y2="100%"><stop offset="0%" stop-color="rgb(129,129,129)"/><stop offset="100%" stop-color="rgb(126,126,126)"/></linearGradient></defs><polygon id="triangle36" points="87,157 269,84 170,369" style="fill: url(#gr6); stroke: rgb(0, 0, 0); stroke-width: 0;"/><defs><linearGradient id="gr7" x1="0%" x2="100%" y1="0%" y2="100%"><stop offset="0%" stop-color="rgb(182,182,182)"/><stop offset="100%" stop-color="rgb(125,125,125)"/></linearGradient></defs><polygon id="triangle36" points="24,15 87,157 11,280" style="fill: url(#gr7); stroke: rgb(0, 0, 0); stroke-width: 0;"/><defs><linearGradient id="gr8" x1="0%" x2="100%" y1="0%" y2="100%"><stop offset="0%" stop-color="rgb(116,116,116)"/><stop offset="100%" stop-color="rgb(86,86,86)"/></linearGradient></defs><polygon id="triangle36" points="87,157 170,369 11,280" style="fill: url(#gr8); stroke: rgb(0, 0, 0); stroke-width: 0;"/><defs><linearGradient id="gr9" x1="0%" x2="100%" y1="0%" y2="100%"><stop offset="0%" stop-color="rgb(83,83,83)"/><stop offset="100%" stop-color="rgb(77,77,77)"/></linearGradient></defs><polygon id="triangle36" points="11,280 170,369 14,465" style="fill: url(#gr9); stroke: rgb(0, 0, 0); stroke-width: 0;"/><defs><linearGradient id="gr10" x1="0%" x2="100%" y1="0%" y2="100%"><stop offset="0%" stop-color="rgb(76,76,76)"/><stop offset="100%" stop-color="rgb(77,77,77)"/></linearGradient></defs><polygon id="triangle36" points="14,465 170,369 108,517" style="fill: url(#gr10); stroke: rgb(0, 0, 0); stroke-width: 0;"/><defs><linearGradient id="gr11" x1="0%" x2="100%" y1="0%" y2="100%"><stop offset="0%" stop-color="rgb(77,77,77)"/><stop offset="100%" stop-color="rgb(77,77,77)"/></linearGradient></defs><polygon id="triangle36" points="108,517 170,369 333,500" style="fill: url(#gr11); stroke: rgb(0, 0, 0); stroke-width: 0;"/><defs><linearGradient id="gr12" x1="0%" x2="100%" y1="0%" y2="100%"><stop offset="0%" stop-color="rgb(78,78,78)"/><stop offset="100%" stop-color="rgb(81,81,81)"/></linearGradient></defs><polygon id="triangle36" points="170,369 363,289 333,500" style="fill: url(#gr12); stroke: rgb(0, 0, 0); stroke-width: 0;"/><defs><linearGradient id="gr13" x1="0%" x2="100%" y1="0%" y2="100%"><stop offset="0%" stop-color="rgb(77,77,77)"/><stop offset="100%" stop-color="rgb(79,79,79)"/></linearGradient></defs><polygon id="triangle36" points="333,500 363,289 558,457" style="fill: url(#gr13); stroke: rgb(0, 0, 0); stroke-width: 0;"/><defs><linearGradient id="gr14" x1="0%" x2="100%" y1="0%" y2="100%"><stop offset="0%" stop-color="rgb(85,85,85)"/><stop offset="100%" stop-color="rgb(92,92,92)"/></linearGradient></defs><polygon id="triangle36" points="363,289 485,198 558,457" style="fill: url(#gr14); stroke: rgb(0, 0, 0); stroke-width: 0;"/><defs><linearGradient id="gr15" x1="0%" x2="100%" y1="0%" y2="100%"><stop offset="0%" stop-color="rgb(100,100,100)"/><stop offset="100%" stop-color="rgb(79,79,79)"/></linearGradient></defs><polygon id="triangle36" points="485,198 558,457 641,324" style="fill: url(#gr15); stroke: rgb(0, 0, 0); stroke-width: 0;"/><defs><linearGradient id="gr16" x1="0%" x2="100%" y1="0%" y2="100%"><stop offset="0%" stop-color="rgb(117,117,117)"/><stop offset="100%" stop-color="rgb(125,125,125)"/></linearGradient></defs><polygon id="triangle36" points="485,198 641,324 696,95" style="fill: url(#gr16); stroke: rgb(0, 0, 0); stroke-width: 0;"/><defs><linearGradient id="gr17" x1="0%" x2="100%" y1="0%" y2="100%"><stop offset="0%" stop-color="rgb(220,220,220)"/><stop offset="100%" stop-color="rgb(217,217,217)"/></linearGradient></defs><polygon id="triangle36" points="199,9 424,27 577,12" style="fill: url(#gr17); stroke: rgb(0, 0, 0); stroke-width: 0;"/><defs><linearGradient id="gr18" x1="0%" x2="100%" y1="0%" y2="100%"><stop offset="0%" stop-color="rgb(200,200,200)"/><stop offset="100%" stop-color="rgb(175,175,175)"/></linearGradient></defs><polygon id="triangle36" points="424,27 485,198 577,12" style="fill: url(#gr18); stroke: rgb(0, 0, 0); stroke-width: 0;"/><defs><linearGradient id="gr19" x1="0%" x2="100%" y1="0%" y2="100%"><stop offset="0%" stop-color="rgb(146,146,146)"/><stop offset="100%" stop-color="rgb(190,190,190)"/></linearGradient></defs><polygon id="triangle36" points="485,198 696,95 577,12" style="fill: url(#gr19); stroke: rgb(0, 0, 0); stroke-width: 0;"/><defs><linearGradient id="gr20" x1="0%" x2="100%" y1="0%" y2="100%"><stop offset="0%" stop-color="rgb(214,214,214)"/><stop offset="100%" stop-color="rgb(202,202,202)"/></linearGradient></defs><polygon id="triangle36" points="577,12 696,95 730,11" style="fill: url(#gr20); stroke: rgb(0, 0, 0); stroke-width: 0;"/><defs><linearGradient id="gr21" x1="0%" x2="100%" y1="0%" y2="100%"><stop offset="0%" stop-color="rgb(183,183,183)"/><stop offset="100%" stop-color="rgb(190,190,190)"/></linearGradient></defs><polygon id="triangle36" points="696,95 730,11 847,122" style="fill: url(#gr21); stroke: rgb(0, 0, 0); stroke-width: 0;"/><defs><linearGradient id="gr22" x1="0%" x2="100%" y1="0%" y2="100%"><stop offset="0%" stop-color="rgb(91,91,91)"/><stop offset="100%" stop-color="rgb(120,120,120)"/></linearGradient></defs><polygon id="triangle36" points="641,324 696,95 812,311" style="fill: url(#gr22); stroke: rgb(0, 0, 0); stroke-width: 0;"/><defs><linearGradient id="gr23" x1="0%" x2="100%" y1="0%" y2="100%"><stop offset="0%" stop-color="rgb(153,153,153)"/><stop offset="100%" stop-color="rgb(124,124,124)"/></linearGradient></defs><polygon id="triangle36" points="696,95 847,122 812,311" style="fill: url(#gr23); stroke: rgb(0, 0, 0); stroke-width: 0;"/><defs><linearGradient id="gr24" x1="0%" x2="100%" y1="0%" y2="100%"><stop offset="0%" stop-color="rgb(222,222,222)"/><stop offset="100%" stop-color="rgb(221,221,221)"/></linearGradient></defs><polygon id="triangle36" points="199,9 577,12 863,7" style="fill: url(#gr24); stroke: rgb(0, 0, 0); stroke-width: 0;"/><defs><linearGradient id="gr25" x1="0%" x2="100%" y1="0%" y2="100%"><stop offset="0%" stop-color="rgb(220,220,220)"/><stop offset="100%" stop-color="rgb(221,221,221)"/></linearGradient></defs><polygon id="triangle36" points="577,12 730,11 863,7" style="fill: url(#gr25); stroke: rgb(0, 0, 0); stroke-width: 0;"/><defs><linearGradient id="gr26" x1="0%" x2="100%" y1="0%" y2="100%"><stop offset="0%" stop-color="rgb(213,213,213)"/><stop offset="100%" stop-color="rgb(196,196,196)"/></linearGradient></defs><polygon id="triangle36" points="730,11 847,122 863,7" style="fill: url(#gr26); stroke: rgb(0, 0, 0); stroke-width: 0;"/><defs><linearGradient id="gr27" x1="0%" x2="100%" y1="0%" y2="100%"><stop offset="0%" stop-color="rgb(182,182,182)"/><stop offset="100%" stop-color="rgb(213,213,213)"/></linearGradient></defs><polygon id="triangle36" points="847,122 863,7 993,23" style="fill: url(#gr27); stroke: rgb(0, 0, 0); stroke-width: 0;"/><defs><linearGradient id="gr28" x1="0%" x2="100%" y1="0%" y2="100%"><stop offset="0%" stop-color="rgb(95,95,95)"/><stop offset="100%" stop-color="rgb(123,123,123)"/></linearGradient></defs><polygon id="triangle36" points="812,311 847,122 960,245" style="fill: url(#gr28); stroke: rgb(0, 0, 0); stroke-width: 0;"/><defs><linearGradient id="gr29" x1="0%" x2="100%" y1="0%" y2="100%"><stop offset="0%" stop-color="rgb(158,158,158)"/><stop offset="100%" stop-color="rgb(157,157,157)"/></linearGradient></defs><polygon id="triangle36" points="847,122 993,23 960,245" style="fill: url(#gr29); stroke: rgb(0, 0, 0); stroke-width: 0;"/><defs><linearGradient id="gr30" x1="0%" x2="100%" y1="0%" y2="100%"><stop offset="0%" stop-color="rgb(75,75,75)"/><stop offset="100%" stop-color="rgb(65,65,65)"/></linearGradient></defs><polygon id="triangle36" points="558,457 720,675 528,724" style="fill: url(#gr30); stroke: rgb(0, 0, 0); stroke-width: 0;"/><defs><linearGradient id="gr31" x1="0%" x2="100%" y1="0%" y2="100%"><stop offset="0%" stop-color="rgb(79,78,78)"/><stop offset="100%" stop-color="rgb(70,70,70)"/></linearGradient></defs><polygon id="triangle36" points="108,517 333,500 295,733" style="fill: url(#gr31); stroke: rgb(0, 0, 0); stroke-width: 0;"/><defs><linearGradient id="gr32" x1="0%" x2="100%" y1="0%" y2="100%"><stop offset="0%" stop-color="rgb(73,73,73)"/><stop offset="100%" stop-color="rgb(58,58,58)"/></linearGradient></defs><polygon id="triangle36" points="108,517 295,733 126,739" style="fill: url(#gr32); stroke: rgb(0, 0, 0); stroke-width: 0;"/><defs><linearGradient id="gr33" x1="0%" x2="100%" y1="0%" y2="100%"><stop offset="0%" stop-color="rgb(74,74,74)"/><stop offset="100%" stop-color="rgb(60,60,60)"/></linearGradient></defs><polygon id="triangle36" points="108,517 126,739 12,711" style="fill: url(#gr33); stroke: rgb(0, 0, 0); stroke-width: 0;"/><defs><linearGradient id="gr34" x1="0%" x2="100%" y1="0%" y2="100%"><stop offset="0%" stop-color="rgb(83,83,83)"/><stop offset="100%" stop-color="rgb(70,70,70)"/></linearGradient></defs><polygon id="triangle36" points="11,280 14,465 12,711" style="fill: url(#gr34); stroke: rgb(0, 0, 0); stroke-width: 0;"/><defs><linearGradient id="gr35" x1="0%" x2="100%" y1="0%" y2="100%"><stop offset="0%" stop-color="rgb(77,77,77)"/><stop offset="100%" stop-color="rgb(72,72,72)"/></linearGradient></defs><polygon id="triangle36" points="14,465 108,517 12,711" style="fill: url(#gr35); stroke: rgb(0, 0, 0); stroke-width: 0;"/><defs><linearGradient id="gr36" x1="0%" x2="100%" y1="0%" y2="100%"><stop offset="0%" stop-color="rgb(54,54,54)"/><stop offset="100%" stop-color="rgb(49,49,49)"/></linearGradient></defs><polygon id="triangle36" points="12,711 126,739 28,838" style="fill: url(#gr36); stroke: rgb(0, 0, 0); stroke-width: 0;"/><defs><linearGradient id="gr37" x1="0%" x2="100%" y1="0%" y2="100%"><stop offset="0%" stop-color="rgb(50,50,50)"/><stop offset="100%" stop-color="rgb(50,50,50)"/></linearGradient></defs><polygon id="triangle36" points="126,739 295,733 209,878" style="fill: url(#gr37); stroke: rgb(0, 0, 0); stroke-width: 0;"/><defs><linearGradient id="gr38" x1="0%" x2="100%" y1="0%" y2="100%"><stop offset="0%" stop-color="rgb(45,45,45)"/><stop offset="100%" stop-color="rgb(49,49,49)"/></linearGradient></defs><polygon id="triangle36" points="28,838 126,739 209,878" style="fill: url(#gr38); stroke: rgb(0, 0, 0); stroke-width: 0;"/><defs><linearGradient id="gr39" x1="0%" x2="100%" y1="0%" y2="100%"><stop offset="0%" stop-color="rgb(52,52,52)"/><stop offset="100%" stop-color="rgb(55,55,55)"/></linearGradient></defs><polygon id="triangle36" points="528,724 720,675 612,893" style="fill: url(#gr39); stroke: rgb(0, 0, 0); stroke-width: 0;"/><defs><linearGradient id="gr40" x1="0%" x2="100%" y1="0%" y2="100%"><stop offset="0%" stop-color="rgb(48,48,48)"/><stop offset="100%" stop-color="rgb(52,52,52)"/></linearGradient></defs><polygon id="triangle36" points="612,893 720,675 846,845" style="fill: url(#gr40); stroke: rgb(0, 0, 0); stroke-width: 0;"/><defs><linearGradient id="gr41" x1="0%" x2="100%" y1="0%" y2="100%"><stop offset="0%" stop-color="rgb(61,61,61)"/><stop offset="100%" stop-color="rgb(59,59,59)"/></linearGradient></defs><polygon id="triangle36" points="720,675 888,620 846,845" style="fill: url(#gr41); stroke: rgb(0, 0, 0); stroke-width: 0;"/><defs><linearGradient id="gr42" x1="0%" x2="100%" y1="0%" y2="100%"><stop offset="0%" stop-color="rgb(49,49,49)"/><stop offset="100%" stop-color="rgb(60,60,60)"/></linearGradient></defs><polygon id="triangle36" points="846,845 888,620 977,738" style="fill: url(#gr42); stroke: rgb(0, 0, 0); stroke-width: 0;"/><defs><linearGradient id="gr43" x1="0%" x2="100%" y1="0%" y2="100%"><stop offset="0%" stop-color="rgb(73,73,73)"/><stop offset="100%" stop-color="rgb(68,68,68)"/></linearGradient></defs><polygon id="triangle36" points="888,620 991,530 977,738" style="fill: url(#gr43); stroke: rgb(0, 0, 0); stroke-width: 0;"/><defs><linearGradient id="gr44" x1="0%" x2="100%" y1="0%" y2="100%"><stop offset="0%" stop-color="rgb(83,83,83)"/><stop offset="100%" stop-color="rgb(88,88,88)"/></linearGradient></defs><polygon id="triangle36" points="812,311 960,245 992,359" style="fill: url(#gr44); stroke: rgb(0, 0, 0); stroke-width: 0;"/><defs><linearGradient id="gr45" x1="0%" x2="100%" y1="0%" y2="100%"><stop offset="0%" stop-color="rgb(107,107,107)"/><stop offset="100%" stop-color="rgb(136,136,136)"/></linearGradient></defs><polygon id="triangle36" points="960,245 993,23 992,359" style="fill: url(#gr45); stroke: rgb(0, 0, 0); stroke-width: 0;"/><defs><linearGradient id="gr46" x1="0%" x2="100%" y1="0%" y2="100%"><stop offset="0%" stop-color="rgb(76,76,76)"/><stop offset="100%" stop-color="rgb(78,78,78)"/></linearGradient></defs><polygon id="triangle36" points="558,457 641,324 780,465" style="fill: url(#gr46); stroke: rgb(0, 0, 0); stroke-width: 0;"/><defs><linearGradient id="gr47" x1="0%" x2="100%" y1="0%" y2="100%"><stop offset="0%" stop-color="rgb(77,77,77)"/><stop offset="100%" stop-color="rgb(73,73,73)"/></linearGradient></defs><polygon id="triangle36" points="558,457 720,675 780,465" style="fill: url(#gr47); stroke: rgb(0, 0, 0); stroke-width: 0;"/><defs><linearGradient id="gr48" x1="0%" x2="100%" y1="0%" y2="100%"><stop offset="0%" stop-color="rgb(80,80,80)"/><stop offset="100%" stop-color="rgb(79,79,79)"/></linearGradient></defs><polygon id="triangle36" points="641,324 812,311 780,465" style="fill: url(#gr48); stroke: rgb(0, 0, 0); stroke-width: 0;"/><defs><linearGradient id="gr49" x1="0%" x2="100%" y1="0%" y2="100%"><stop offset="0%" stop-color="rgb(71,71,71)"/><stop offset="100%" stop-color="rgb(76,75,76)"/></linearGradient></defs><polygon id="triangle36" points="720,675 888,620 780,465" style="fill: url(#gr49); stroke: rgb(0, 0, 0); stroke-width: 0;"/><defs><linearGradient id="gr50" x1="0%" x2="100%" y1="0%" y2="100%"><stop offset="0%" stop-color="rgb(80,80,80)"/><stop offset="100%" stop-color="rgb(77,77,77)"/></linearGradient></defs><polygon id="triangle36" points="812,311 992,359 780,465" style="fill: url(#gr50); stroke: rgb(0, 0, 0); stroke-width: 0;"/><defs><linearGradient id="gr51" x1="0%" x2="100%" y1="0%" y2="100%"><stop offset="0%" stop-color="rgb(76,76,76)"/><stop offset="100%" stop-color="rgb(78,78,78)"/></linearGradient></defs><polygon id="triangle36" points="888,620 991,530 780,465" style="fill: url(#gr51); stroke: rgb(0, 0, 0); stroke-width: 0;"/><defs><linearGradient id="gr52" x1="0%" x2="100%" y1="0%" y2="100%"><stop offset="0%" stop-color="rgb(77,77,77)"/><stop offset="100%" stop-color="rgb(77,77,77)"/></linearGradient></defs><polygon id="triangle36" points="991,530 992,359 780,465" style="fill: url(#gr52); stroke: rgb(0, 0, 0); stroke-width: 0;"/><defs><linearGradient id="gr53" x1="0%" x2="100%" y1="0%" y2="100%"><stop offset="0%" stop-color="rgb(45,45,45)"/><stop offset="100%" stop-color="rgb(52,52,52)"/></linearGradient></defs><polygon id="triangle36" points="846,845 977,738 965,940" style="fill: url(#gr53); stroke: rgb(0, 0, 0); stroke-width: 0;"/><defs><linearGradient id="gr54" x1="0%" x2="100%" y1="0%" y2="100%"><stop offset="0%" stop-color="rgb(52,52,52)"/><stop offset="100%" stop-color="rgb(55,55,55)"/></linearGradient></defs><polygon id="triangle36" points="612,893 846,845 771,974" style="fill: url(#gr54); stroke: rgb(0, 0, 0); stroke-width: 0;"/><defs><linearGradient id="gr55" x1="0%" x2="100%" y1="0%" y2="100%"><stop offset="0%" stop-color="rgb(50,50,50)"/><stop offset="100%" stop-color="rgb(61,61,61)"/></linearGradient></defs><polygon id="triangle36" points="846,845 965,940 771,974" style="fill: url(#gr55); stroke: rgb(0, 0, 0); stroke-width: 0;"/><defs><linearGradient id="gr56" x1="0%" x2="100%" y1="0%" y2="100%"><stop offset="0%" stop-color="rgb(56,56,56)"/><stop offset="100%" stop-color="rgb(65,65,65)"/></linearGradient></defs><polygon id="triangle36" points="612,893 771,974 428,973" style="fill: url(#gr56); stroke: rgb(0, 0, 0); stroke-width: 0;"/><defs><linearGradient id="gr57" x1="0%" x2="100%" y1="0%" y2="100%"><stop offset="0%" stop-color="rgb(51,51,51)"/><stop offset="100%" stop-color="rgb(52,52,52)"/></linearGradient></defs><polygon id="triangle36" points="12,711 28,838 25,976" style="fill: url(#gr57); stroke: rgb(0, 0, 0); stroke-width: 0;"/><defs><linearGradient id="gr58" x1="0%" x2="100%" y1="0%" y2="100%"><stop offset="0%" stop-color="rgb(54,54,54)"/><stop offset="100%" stop-color="rgb(64,64,64)"/></linearGradient></defs><polygon id="triangle36" points="209,878 428,973 25,976" style="fill: url(#gr58); stroke: rgb(0, 0, 0); stroke-width: 0;"/><defs><linearGradient id="gr59" x1="0%" x2="100%" y1="0%" y2="100%"><stop offset="0%" stop-color="rgb(48,48,48)"/><stop offset="100%" stop-color="rgb(56,56,56)"/></linearGradient></defs><polygon id="triangle36" points="28,838 209,878 25,976" style="fill: url(#gr59); stroke: rgb(0, 0, 0); stroke-width: 0;"/><defs><linearGradient id="gr60" x1="0%" x2="100%" y1="0%" y2="100%"><stop offset="0%" stop-color="rgb(47,47,47)"/><stop offset="100%" stop-color="rgb(48,48,48)"/></linearGradient></defs><polygon id="triangle36" points="209,878 295,733 415,820" style="fill: url(#gr60); stroke: rgb(0, 0, 0); stroke-width: 0;"/><defs><linearGradient id="gr61" x1="0%" x2="100%" y1="0%" y2="100%"><stop offset="0%" stop-color="rgb(49,49,49)"/><stop offset="100%" stop-color="rgb(54,54,54)"/></linearGradient></defs><polygon id="triangle36" points="209,878 428,973 415,820" style="fill: url(#gr61); stroke: rgb(0, 0, 0); stroke-width: 0;"/><defs><linearGradient id="gr62" x1="0%" x2="100%" y1="0%" y2="100%"><stop offset="0%" stop-color="rgb(59,59,59)"/><stop offset="100%" stop-color="rgb(49,49,49)"/></linearGradient></defs><polygon id="triangle36" points="428,973 612,893 415,820" style="fill: url(#gr62); stroke: rgb(0, 0, 0); stroke-width: 0;"/><defs><linearGradient id="gr63" x1="0%" x2="100%" y1="0%" y2="100%"><stop offset="0%" stop-color="rgb(50,50,50)"/><stop offset="100%" stop-color="rgb(47,47,47)"/></linearGradient></defs><polygon id="triangle36" points="528,724 612,893 415,820" style="fill: url(#gr63); stroke: rgb(0, 0, 0); stroke-width: 0;"/><defs><linearGradient id="gr64" x1="0%" x2="100%" y1="0%" y2="100%"><stop offset="0%" stop-color="rgb(65,65,65)"/><stop offset="100%" stop-color="rgb(77,77,77)"/></linearGradient></defs><polygon id="triangle36" points="295,733 333,500 432,597" style="fill: url(#gr64); stroke: rgb(0, 0, 0); stroke-width: 0;"/><defs><linearGradient id="gr65" x1="0%" x2="100%" y1="0%" y2="100%"><stop offset="0%" stop-color="rgb(55,55,55)"/><stop offset="100%" stop-color="rgb(59,59,59)"/></linearGradient></defs><polygon id="triangle36" points="295,733 415,820 432,597" style="fill: url(#gr65); stroke: rgb(0, 0, 0); stroke-width: 0;"/><defs><linearGradient id="gr66" x1="0%" x2="100%" y1="0%" y2="100%"><stop offset="0%" stop-color="rgb(78,78,78)"/><stop offset="100%" stop-color="rgb(77,77,77)"/></linearGradient></defs><polygon id="triangle36" points="333,500 558,457 432,597" style="fill: url(#gr66); stroke: rgb(0, 0, 0); stroke-width: 0;"/><defs><linearGradient id="gr67" x1="0%" x2="100%" y1="0%" y2="100%"><stop offset="0%" stop-color="rgb(51,51,51)"/><stop offset="100%" stop-color="rgb(63,63,63)"/></linearGradient></defs><polygon id="triangle36" points="415,820 528,724 432,597" style="fill: url(#gr67); stroke: rgb(0, 0, 0); stroke-width: 0;"/><defs><linearGradient id="gr68" x1="0%" x2="100%" y1="0%" y2="100%"><stop offset="0%" stop-color="rgb(67,67,67)"/><stop offset="100%" stop-color="rgb(77,77,77)"/></linearGradient></defs><polygon id="triangle36" points="528,724 558,457 432,597" style="fill: url(#gr68); stroke: rgb(0, 0, 0); stroke-width: 0;"/></svg>