<svg xmlns="http://www.w3.org/2000/svg" width="1000" height="1000" version="1.1"><defs><linearGradient id="gr0" x1="0%" x2="100%" y1="0%" y2="100%"><stop offset="0%" stop-color="rgb(46,138,168)"/><stop offset="100%" stop-color="rgb(33,127,162)"/></linearGradient></defs><polygon id="triangle36" points="185,13 201,114 42,117" style="fill: url(#gr0); stroke: rgb(0, 0, 0); stroke-width: 0;"/><defs><linearGradient id="gr1" x1="0%" x2="100%" y1="0%" y2="100%"><stop offset="0%" stop-color="rgb(60,143,167)"/><stop offset="100%" stop-color="rgb(47,136,165)"/></linearGradient></defs><polygon id="triangle36" points="20,14 185,13 42,117" style="fill: url(#gr1); stroke: rgb(0, 0, 0); stroke-width: 0;"/><defs><linearGradient id="gr2" x1="0%" x2="100%" y1="0%" y2="100%"><stop offset="0%" stop-color="rgb(45,131,161)"/><stop offset="100%" stop-color="rgb(21,114,154)"/></linearGradient></defs><polygon id="triangle36" points="20,14 42,117 26,239" style="fill: url(#gr2); stroke: rgb(0, 0, 0); stroke-width: 0;"/><defs><linearGradient id="gr3" x1="0%" x2="100%" y1="0%" y2="100%"><stop offset="0%" stop-color="rgb(6,103,150)"/><stop offset="100%" stop-color="rgb(14,112,154)"/></linearGradient></defs><polygon id="triangle36" points="26,239 42,117 128,275" style="fill: url(#gr3); stroke: rgb(0, 0, 0); stroke-width: 0;"/><defs><linearGradient id="gr4" x1="0%" x2="100%" y1="0%" y2="100%"><stop offset="0%" stop-color="rgb(23,116,155)"/><stop offset="100%" stop-color="rgb(15,116,158)"/></linearGradient></defs><polygon id="triangle36" points="42,117 201,114 128,275" style="fill: url(#gr4); stroke: rgb(0, 0, 0); stroke-width: 0;"/><defs><linearGradient id="gr5" x1="0%" x2="100%" y1="0%" y2="100%"><stop offset="0%" stop-color="rgb(5,112,158)"/><stop offset="100%" stop-color="rgb(15,123,165)"/></linearGradient></defs><polygon id="triangle36" points="128,275 201,114 369,263" style="fill: url(#gr5); stroke: rgb(0, 0, 0); stroke-width: 0;"/><defs><linearGradient id="gr6" x1="0%" x2="100%" y1="0%" y2="100%"><stop offset="0%" stop-color="rgb(27,130,167)"/><stop offset="100%" stop-color="rgb(21,136,173)"/></linearGradient></defs><polygon id="triangle36" points="201,114 369,263 417,68" style="fill: url(#gr6); stroke: rgb(0, 0, 0); stroke-width: 0;"/><defs><linearGradient id="gr7" x1="0%" x2="100%" y1="0%" y2="100%"><stop offset="0%" stop-color="rgb(50,143,172)"/><stop offset="100%" stop-color="rgb(40,140,171)"/></linearGradient></defs><polygon id="triangle36" points="185,13 201,114 343,2" style="fill: url(#gr7); stroke: rgb(0, 0, 0); stroke-width: 0;"/><defs><linearGradient id="gr8" x1="0%" x2="100%" y1="0%" y2="100%"><stop offset="0%" stop-color="rgb(58,144,169)"/><stop offset="100%" stop-color="rgb(50,147,173)"/></linearGradient></defs><polygon id="triangle36" points="20,14 185,13 343,2" style="fill: url(#gr8); stroke: rgb(0, 0, 0); stroke-width: 0;"/><defs><linearGradient id="gr9" x1="0%" x2="100%" y1="0%" y2="100%"><stop offset="0%" stop-color="rgb(38,137,171)"/><stop offset="100%" stop-color="rgb(40,149,178)"/></linearGradient></defs><polygon id="triangle36" points="201,114 417,68 343,2" style="fill: url(#gr9); stroke: rgb(0, 0, 0); stroke-width: 0;"/><defs><linearGradient id="gr10" x1="0%" x2="100%" y1="0%" y2="100%"><stop offset="0%" stop-color="rgb(38,151,179)"/><stop offset="100%" stop-color="rgb(28,151,181)"/></linearGradient></defs><polygon id="triangle36" points="343,2 417,68 535,1" style="fill: url(#gr10); stroke: rgb(0, 0, 0); stroke-width: 0;"/><defs><linearGradient id="gr11" x1="0%" x2="100%" y1="0%" y2="100%"><stop offset="0%" stop-color="rgb(29,144,179)"/><stop offset="100%" stop-color="rgb(64,169,189)"/></linearGradient></defs><polygon id="triangle36" points="369,263 586,427 444,481" style="fill: url(#gr11); stroke: rgb(0, 0, 0); stroke-width: 0;"/><defs><linearGradient id="gr12" x1="0%" x2="100%" y1="0%" y2="100%"><stop offset="0%" stop-color="rgb(6,119,162)"/><stop offset="100%" stop-color="rgb(23,139,173)"/></linearGradient></defs><polygon id="triangle36" points="128,275 369,263 263,501" style="fill: url(#gr12); stroke: rgb(0, 0, 0); stroke-width: 0;"/><defs><linearGradient id="gr13" x1="0%" x2="100%" y1="0%" y2="100%"><stop offset="0%" stop-color="rgb(23,141,175)"/><stop offset="100%" stop-color="rgb(51,162,183)"/></linearGradient></defs><polygon id="triangle36" points="369,263 444,481 263,501" style="fill: url(#gr13); stroke: rgb(0, 0, 0); stroke-width: 0;"/><defs><linearGradient id="gr14" x1="0%" x2="100%" y1="0%" y2="100%"><stop offset="0%" stop-color="rgb(10,124,163)"/><stop offset="100%" stop-color="rgb(28,147,174)"/></linearGradient></defs><polygon id="triangle36" points="128,275 263,501 130,458" style="fill: url(#gr14); stroke: rgb(0, 0, 0); stroke-width: 0;"/><defs><linearGradient id="gr15" x1="0%" x2="100%" y1="0%" y2="100%"><stop offset="0%" stop-color="rgb(6,119,160)"/><stop offset="100%" stop-color="rgb(11,134,167)"/></linearGradient></defs><polygon id="triangle36" points="128,275 130,458 20,443" style="fill: url(#gr15); stroke: rgb(0, 0, 0); stroke-width: 0;"/><defs><linearGradient id="gr16" x1="0%" x2="100%" y1="0%" y2="100%"><stop offset="0%" stop-color="rgb(34,123,158)"/><stop offset="100%" stop-color="rgb(5,112,155)"/></linearGradient></defs><polygon id="triangle36" points="20,14 26,239 20,443" style="fill: url(#gr16); stroke: rgb(0, 0, 0); stroke-width: 0;"/><defs><linearGradient id="gr17" x1="0%" x2="100%" y1="0%" y2="100%"><stop offset="0%" stop-color="rgb(4,107,152)"/><stop offset="100%" stop-color="rgb(4,118,158)"/></linearGradient></defs><polygon id="triangle36" points="26,239 128,275 20,443" style="fill: url(#gr17); stroke: rgb(0, 0, 0); stroke-width: 0;"/><defs><linearGradient id="gr18" x1="0%" x2="100%" y1="0%" y2="100%"><stop offset="0%" stop-color="rgb(9,136,167)"/><stop offset="100%" stop-color="rgb(19,143,171)"/></linearGradient></defs><polygon id="triangle36" points="20,443 130,458 17,581" style="fill: url(#gr18); stroke: rgb(0, 0, 0); stroke-width: 0;"/><defs><linearGradient id="gr19" x1="0%" x2="100%" y1="0%" y2="100%"><stop offset="0%" stop-color="rgb(26,148,174)"/><stop offset="100%" stop-color="rgb(44,158,179)"/></linearGradient></defs><polygon id="triangle36" points="130,458 263,501 136,651" style="fill: url(#gr19); stroke: rgb(0, 0, 0); stroke-width: 0;"/><defs><linearGradient id="gr20" x1="0%" x2="100%" y1="0%" y2="100%"><stop offset="0%" stop-color="rgb(22,147,172)"/><stop offset="100%" stop-color="rgb(29,150,175)"/></linearGradient></defs><polygon id="triangle36" points="17,581 130,458 136,651" style="fill: url(#gr20); stroke: rgb(0, 0, 0); stroke-width: 0;"/><defs><linearGradient id="gr21" x1="0%" x2="100%" y1="0%" y2="100%"><stop offset="0%" stop-color="rgb(56,165,182)"/><stop offset="100%" stop-color="rgb(75,172,186)"/></linearGradient></defs><polygon id="triangle36" points="136,651 263,501 398,672" style="fill: url(#gr21); stroke: rgb(0, 0, 0); stroke-width: 0;"/><defs><linearGradient id="gr22" x1="0%" x2="100%" y1="0%" y2="100%"><stop offset="0%" stop-color="rgb(63,167,184)"/><stop offset="100%" stop-color="rgb(87,178,190)"/></linearGradient></defs><polygon id="triangle36" points="263,501 444,481 398,672" style="fill: url(#gr22); stroke: rgb(0, 0, 0); stroke-width: 0;"/><defs><linearGradient id="gr23" x1="0%" x2="100%" y1="0%" y2="100%"><stop offset="0%" stop-color="rgb(117,189,195)"/><stop offset="100%" stop-color="rgb(113,188,196)"/></linearGradient></defs><polygon id="triangle36" points="398,672 444,481 606,630" style="fill: url(#gr23); stroke: rgb(0, 0, 0); stroke-width: 0;"/><defs><linearGradient id="gr24" x1="0%" x2="100%" y1="0%" y2="100%"><stop offset="0%" stop-color="rgb(86,178,192)"/><stop offset="100%" stop-color="rgb(109,187,197)"/></linearGradient></defs><polygon id="triangle36" points="444,481 586,427 606,630" style="fill: url(#gr24); stroke: rgb(0, 0, 0); stroke-width: 0;"/><defs><linearGradient id="gr25" x1="0%" x2="100%" y1="0%" y2="100%"><stop offset="0%" stop-color="rgb(103,185,197)"/><stop offset="100%" stop-color="rgb(146,201,204)"/></linearGradient></defs><polygon id="triangle36" points="586,427 606,630 771,522" style="fill: url(#gr25); stroke: rgb(0, 0, 0); stroke-width: 0;"/><defs><linearGradient id="gr26" x1="0%" x2="100%" y1="0%" y2="100%"><stop offset="0%" stop-color="rgb(84,178,194)"/><stop offset="100%" stop-color="rgb(100,184,197)"/></linearGradient></defs><polygon id="triangle36" points="586,427 676,281 771,522" style="fill: url(#gr26); stroke: rgb(0, 0, 0); stroke-width: 0;"/><defs><linearGradient id="gr27" x1="0%" x2="100%" y1="0%" y2="100%"><stop offset="0%" stop-color="rgb(87,178,194)"/><stop offset="100%" stop-color="rgb(143,199,204)"/></linearGradient></defs><polygon id="triangle36" points="676,281 771,522 928,374" style="fill: url(#gr27); stroke: rgb(0, 0, 0); stroke-width: 0;"/><defs><linearGradient id="gr28" x1="0%" x2="100%" y1="0%" y2="100%"><stop offset="0%" stop-color="rgb(53,166,190)"/><stop offset="100%" stop-color="rgb(82,175,194)"/></linearGradient></defs><polygon id="triangle36" points="662,104 676,281 897,217" style="fill: url(#gr28); stroke: rgb(0, 0, 0); stroke-width: 0;"/><defs><linearGradient id="gr29" x1="0%" x2="100%" y1="0%" y2="100%"><stop offset="0%" stop-color="rgb(81,174,192)"/><stop offset="100%" stop-color="rgb(129,191,200)"/></linearGradient></defs><polygon id="triangle36" points="676,281 928,374 897,217" style="fill: url(#gr29); stroke: rgb(0, 0, 0); stroke-width: 0;"/><defs><linearGradient id="gr30" x1="0%" x2="100%" y1="0%" y2="100%"><stop offset="0%" stop-color="rgb(74,174,193)"/><stop offset="100%" stop-color="rgb(137,196,206)"/></linearGradient></defs><polygon id="triangle36" points="662,104 897,217 897,66" style="fill: url(#gr30); stroke: rgb(0, 0, 0); stroke-width: 0;"/><defs><linearGradient id="gr31" x1="0%" x2="100%" y1="0%" y2="100%"><stop offset="0%" stop-color="rgb(35,160,187)"/><stop offset="100%" stop-color="rgb(74,176,195)"/></linearGradient></defs><polygon id="triangle36" points="535,1 662,104 787,5" style="fill: url(#gr31); stroke: rgb(0, 0, 0); stroke-width: 0;"/><defs><linearGradient id="gr32" x1="0%" x2="100%" y1="0%" y2="100%"><stop offset="0%" stop-color="rgb(76,176,195)"/><stop offset="100%" stop-color="rgb(142,201,211)"/></linearGradient></defs><polygon id="triangle36" points="662,104 897,66 787,5" style="fill: url(#gr32); stroke: rgb(0, 0, 0); stroke-width: 0;"/><defs><linearGradient id="gr33" x1="0%" x2="100%" y1="0%" y2="100%"><stop offset="0%" stop-color="rgb(163,210,216)"/><stop offset="100%" stop-color="rgb(190,221,224)"/></linearGradient></defs><polygon id="triangle36" points="787,5 897,66 985,12" style="fill: url(#gr33); stroke: rgb(0, 0, 0); stroke-width: 0;"/><defs><linearGradient id="gr34" x1="0%" x2="100%" y1="0%" y2="100%"><stop offset="0%" stop-color="rgb(131,192,201)"/><stop offset="100%" stop-color="rgb(148,200,205)"/></linearGradient></defs><polygon id="triangle36" points="897,217 928,374 987,189" style="fill: url(#gr34); stroke: rgb(0, 0, 0); stroke-width: 0;"/><defs><linearGradient id="gr35" x1="0%" x2="100%" y1="0%" y2="100%"><stop offset="0%" stop-color="rgb(159,206,213)"/><stop offset="100%" stop-color="rgb(143,198,205)"/></linearGradient></defs><polygon id="triangle36" points="897,66 897,217 987,189" style="fill: url(#gr35); stroke: rgb(0, 0, 0); stroke-width: 0;"/><defs><linearGradient id="gr36" x1="0%" x2="100%" y1="0%" y2="100%"><stop offset="0%" stop-color="rgb(176,214,219)"/><stop offset="100%" stop-color="rgb(183,216,220)"/></linearGradient></defs><polygon id="triangle36" points="897,66 985,12 987,189" style="fill: url(#gr36); stroke: rgb(0, 0, 0); stroke-width: 0;"/><defs><linearGradient id="gr37" x1="0%" x2="100%" y1="0%" y2="100%"><stop offset="0%" stop-color="rgb(160,207,207)"/><stop offset="100%" stop-color="rgb(166,209,209)"/></linearGradient></defs><polygon id="triangle36" points="771,522 928,374 974,539" style="fill: url(#gr37); stroke: rgb(0, 0, 0); stroke-width: 0;"/><defs><linearGradient id="gr38" x1="0%" x2="100%" y1="0%" y2="100%"><stop offset="0%" stop-color="rgb(156,205,205)"/><stop offset="100%" stop-color="rgb(160,207,207)"/></linearGradient></defs><polygon id="triangle36" points="606,630 771,522 812,669" style="fill: url(#gr38); stroke: rgb(0, 0, 0); stroke-width: 0;"/><defs><linearGradient id="gr39" x1="0%" x2="100%" y1="0%" y2="100%"><stop offset="0%" stop-color="rgb(165,210,209)"/><stop offset="100%" stop-color="rgb(174,213,211)"/></linearGradient></defs><polygon id="triangle36" points="771,522 974,539 812,669" style="fill: url(#gr39); stroke: rgb(0, 0, 0); stroke-width: 0;"/><defs><linearGradient id="gr40" x1="0%" x2="100%" y1="0%" y2="100%"><stop offset="0%" stop-color="rgb(170,212,210)"/><stop offset="100%" stop-color="rgb(169,212,210)"/></linearGradient></defs><polygon id="triangle36" points="812,669 974,539 922,802" style="fill: url(#gr40); stroke: rgb(0, 0, 0); stroke-width: 0;"/><defs><linearGradient id="gr41" x1="0%" x2="100%" y1="0%" y2="100%"><stop offset="0%" stop-color="rgb(154,205,205)"/><stop offset="100%" stop-color="rgb(147,202,204)"/></linearGradient></defs><polygon id="triangle36" points="812,669 922,802 728,854" style="fill: url(#gr41); stroke: rgb(0, 0, 0); stroke-width: 0;"/><defs><linearGradient id="gr42" x1="0%" x2="100%" y1="0%" y2="100%"><stop offset="0%" stop-color="rgb(40,155,176)"/><stop offset="100%" stop-color="rgb(70,169,182)"/></linearGradient></defs><polygon id="triangle36" points="17,581 136,651 8,724" style="fill: url(#gr42); stroke: rgb(0, 0, 0); stroke-width: 0;"/><defs><linearGradient id="gr43" x1="0%" x2="100%" y1="0%" y2="100%"><stop offset="0%" stop-color="rgb(26,148,172)"/><stop offset="100%" stop-color="rgb(46,154,174)"/></linearGradient></defs><polygon id="triangle36" points="17,581 20,443 8,724" style="fill: url(#gr43); stroke: rgb(0, 0, 0); stroke-width: 0;"/><defs><linearGradient id="gr44" x1="0%" x2="100%" y1="0%" y2="100%"><stop offset="0%" stop-color="rgb(5,128,162)"/><stop offset="100%" stop-color="rgb(58,150,171)"/></linearGradient></defs><polygon id="triangle36" points="20,443 20,14 8,724" style="fill: url(#gr44); stroke: rgb(0, 0, 0); stroke-width: 0;"/><defs><linearGradient id="gr45" x1="0%" x2="100%" y1="0%" y2="100%"><stop offset="0%" stop-color="rgb(104,182,186)"/><stop offset="100%" stop-color="rgb(94,178,186)"/></linearGradient></defs><polygon id="triangle36" points="8,724 136,651 56,810" style="fill: url(#gr45); stroke: rgb(0, 0, 0); stroke-width: 0;"/><defs><linearGradient id="gr46" x1="0%" x2="100%" y1="0%" y2="100%"><stop offset="0%" stop-color="rgb(128,192,190)"/><stop offset="100%" stop-color="rgb(99,182,187)"/></linearGradient></defs><polygon id="triangle36" points="56,810 136,651 153,903" style="fill: url(#gr46); stroke: rgb(0, 0, 0); stroke-width: 0;"/><defs><linearGradient id="gr47" x1="0%" x2="100%" y1="0%" y2="100%"><stop offset="0%" stop-color="rgb(85,176,187)"/><stop offset="100%" stop-color="rgb(127,194,194)"/></linearGradient></defs><polygon id="triangle36" points="136,651 153,903 341,789" style="fill: url(#gr47); stroke: rgb(0, 0, 0); stroke-width: 0;"/><defs><linearGradient id="gr48" x1="0%" x2="100%" y1="0%" y2="100%"><stop offset="0%" stop-color="rgb(72,171,185)"/><stop offset="100%" stop-color="rgb(115,189,194)"/></linearGradient></defs><polygon id="triangle36" points="136,651 398,672 341,789" style="fill: url(#gr48); stroke: rgb(0, 0, 0); stroke-width: 0;"/><defs><linearGradient id="gr49" x1="0%" x2="100%" y1="0%" y2="100%"><stop offset="0%" stop-color="rgb(133,196,198)"/><stop offset="100%" stop-color="rgb(151,204,202)"/></linearGradient></defs><polygon id="triangle36" points="398,672 552,881 341,789" style="fill: url(#gr49); stroke: rgb(0, 0, 0); stroke-width: 0;"/><defs><linearGradient id="gr50" x1="0%" x2="100%" y1="0%" y2="100%"><stop offset="0%" stop-color="rgb(131,195,194)"/><stop offset="100%" stop-color="rgb(133,197,197)"/></linearGradient></defs><polygon id="triangle36" points="153,903 341,789 363,988" style="fill: url(#gr50); stroke: rgb(0, 0, 0); stroke-width: 0;"/><defs><linearGradient id="gr51" x1="0%" x2="100%" y1="0%" y2="100%"><stop offset="0%" stop-color="rgb(146,202,200)"/><stop offset="100%" stop-color="rgb(149,204,201)"/></linearGradient></defs><polygon id="triangle36" points="341,789 552,881 363,988" style="fill: url(#gr51); stroke: rgb(0, 0, 0); stroke-width: 0;"/><defs><linearGradient id="gr52" x1="0%" x2="100%" y1="0%" y2="100%"><stop offset="0%" stop-color="rgb(115,190,192)"/><stop offset="100%" stop-color="rgb(113,190,191)"/></linearGradient></defs><polygon id="triangle36" points="153,903 363,988 10,980" style="fill: url(#gr52); stroke: rgb(0, 0, 0); stroke-width: 0;"/><defs><linearGradient id="gr53" x1="0%" x2="100%" y1="0%" y2="100%"><stop offset="0%" stop-color="rgb(128,192,190)"/><stop offset="100%" stop-color="rgb(118,190,189)"/></linearGradient></defs><polygon id="triangle36" points="56,810 153,903 10,980" style="fill: url(#gr53); stroke: rgb(0, 0, 0); stroke-width: 0;"/><defs><linearGradient id="gr54" x1="0%" x2="100%" y1="0%" y2="100%"><stop offset="0%" stop-color="rgb(120,188,189)"/><stop offset="100%" stop-color="rgb(123,190,189)"/></linearGradient></defs><polygon id="triangle36" points="8,724 56,810 10,980" style="fill: url(#gr54); stroke: rgb(0, 0, 0); stroke-width: 0;"/><defs><linearGradient id="gr55" x1="0%" x2="100%" y1="0%" y2="100%"><stop offset="0%" stop-color="rgb(138,198,199)"/><stop offset="100%" stop-color="rgb(161,208,206)"/></linearGradient></defs><polygon id="triangle36" points="398,672 552,881 633,734" style="fill: url(#gr55); stroke: rgb(0, 0, 0); stroke-width: 0;"/><defs><linearGradient id="gr56" x1="0%" x2="100%" y1="0%" y2="100%"><stop offset="0%" stop-color="rgb(133,195,198)"/><stop offset="100%" stop-color="rgb(153,203,204)"/></linearGradient></defs><polygon id="triangle36" points="398,672 606,630 633,734" style="fill: url(#gr56); stroke: rgb(0, 0, 0); stroke-width: 0;"/><defs><linearGradient id="gr57" x1="0%" x2="100%" y1="0%" y2="100%"><stop offset="0%" stop-color="rgb(163,209,207)"/><stop offset="100%" stop-color="rgb(155,206,206)"/></linearGradient></defs><polygon id="triangle36" points="552,881 728,854 633,734" style="fill: url(#gr57); stroke: rgb(0, 0, 0); stroke-width: 0;"/><defs><linearGradient id="gr58" x1="0%" x2="100%" y1="0%" y2="100%"><stop offset="0%" stop-color="rgb(155,204,205)"/><stop offset="100%" stop-color="rgb(160,207,206)"/></linearGradient></defs><polygon id="triangle36" points="606,630 812,669 633,734" style="fill: url(#gr58); stroke: rgb(0, 0, 0); stroke-width: 0;"/><defs><linearGradient id="gr59" x1="0%" x2="100%" y1="0%" y2="100%"><stop offset="0%" stop-color="rgb(149,203,205)"/><stop offset="100%" stop-color="rgb(157,206,206)"/></linearGradient></defs><polygon id="triangle36" points="728,854 812,669 633,734" style="fill: url(#gr59); stroke: rgb(0, 0, 0); stroke-width: 0;"/><defs><linearGradient id="gr60" x1="0%" x2="100%" y1="0%" y2="100%"><stop offset="0%" stop-color="rgb(141,201,200)"/><stop offset="100%" stop-color="rgb(159,208,206)"/></linearGradient></defs><polygon id="triangle36" points="363,988 552,881 886,985" style="fill: url(#gr60); stroke: rgb(0, 0, 0); stroke-width: 0;"/><defs><linearGradient id="gr61" x1="0%" x2="100%" y1="0%" y2="100%"><stop offset="0%" stop-color="rgb(157,207,206)"/><stop offset="100%" stop-color="rgb(151,205,206)"/></linearGradient></defs><polygon id="triangle36" points="552,881 728,854 886,985" style="fill: url(#gr61); stroke: rgb(0, 0, 0); stroke-width: 0;"/><defs><linearGradient id="gr62" x1="0%" x2="100%" y1="0%" y2="100%"><stop offset="0%" stop-color="rgb(143,201,204)"/><stop offset="100%" stop-color="rgb(148,203,205)"/></linearGradient></defs><polygon id="triangle36" points="728,854 922,802 886,985" style="fill: url(#gr62); stroke: rgb(0, 0, 0); stroke-width: 0;"/><defs><linearGradient id="gr63" x1="0%" x2="100%" y1="0%" y2="100%"><stop offset="0%" stop-color="rgb(153,206,206)"/><stop offset="100%" stop-color="rgb(154,206,207)"/></linearGradient></defs><polygon id="triangle36" points="886,985 922,802 998,953" style="fill: url(#gr63); stroke: rgb(0, 0, 0); stroke-width: 0;"/><defs><linearGradient id="gr64" x1="0%" x2="100%" y1="0%" y2="100%"><stop offset="0%" stop-color="rgb(158,207,207)"/><stop offset="100%" stop-color="rgb(171,213,210)"/></linearGradient></defs><polygon id="triangle36" points="922,802 974,539 998,953" style="fill: url(#gr64); stroke: rgb(0, 0, 0); stroke-width: 0;"/><defs><linearGradient id="gr65" x1="0%" x2="100%" y1="0%" y2="100%"><stop offset="0%" stop-color="rgb(160,206,207)"/><stop offset="100%" stop-color="rgb(175,213,211)"/></linearGradient></defs><polygon id="triangle36" points="928,374 974,539 995,425" style="fill: url(#gr65); stroke: rgb(0, 0, 0); stroke-width: 0;"/><defs><linearGradient id="gr66" x1="0%" x2="100%" y1="0%" y2="100%"><stop offset="0%" stop-color="rgb(151,201,205)"/><stop offset="100%" stop-color="rgb(161,206,209)"/></linearGradient></defs><polygon id="triangle36" points="928,374 987,189 995,425" style="fill: url(#gr66); stroke: rgb(0, 0, 0); stroke-width: 0;"/><defs><linearGradient id="gr67" x1="0%" x2="100%" y1="0%" y2="100%"><stop offset="0%" stop-color="rgb(185,219,214)"/><stop offset="100%" stop-color="rgb(175,214,211)"/></linearGradient></defs><polygon id="triangle36" points="974,539 998,953 995,425" style="fill: url(#gr67); stroke: rgb(0, 0, 0); stroke-width: 0;"/><defs><linearGradient id="gr68" x1="0%" x2="100%" y1="0%" y2="100%"><stop offset="0%" stop-color="rgb(183,216,219)"/><stop offset="100%" stop-color="rgb(162,206,209)"/></linearGradient></defs><polygon id="triangle36" points="985,12 987,189 995,425" style="fill: url(#gr68); stroke: rgb(0, 0, 0); stroke-width: 0;"/><defs><linearGradient id="gr69" x1="0%" x2="100%" y1="0%" y2="100%"><stop offset="0%" stop-color="rgb(11,131,173)"/><stop offset="100%" stop-color="rgb(19,143,178)"/></linearGradient></defs><polygon id="triangle36" points="369,263 417,68 532,224" style="fill: url(#gr69); stroke: rgb(0, 0, 0); stroke-width: 0;"/><defs><linearGradient id="gr70" x1="0%" x2="100%" y1="0%" y2="100%"><stop offset="0%" stop-color="rgb(20,139,177)"/><stop offset="100%" stop-color="rgb(40,156,186)"/></linearGradient></defs><polygon id="triangle36" points="369,263 586,427 532,224" style="fill: url(#gr70); stroke: rgb(0, 0, 0); stroke-width: 0;"/><defs><linearGradient id="gr71" x1="0%" x2="100%" y1="0%" y2="100%"><stop offset="0%" stop-color="rgb(23,148,179)"/><stop offset="100%" stop-color="rgb(18,148,181)"/></linearGradient></defs><polygon id="triangle36" points="417,68 535,1 532,224" style="fill: url(#gr71); stroke: rgb(0, 0, 0); stroke-width: 0;"/><defs><linearGradient id="gr72" x1="0%" x2="100%" y1="0%" y2="100%"><stop offset="0%" stop-color="rgb(21,153,183)"/><stop offset="100%" stop-color="rgb(23,153,183)"/></linearGradient></defs><polygon id="triangle36" points="535,1 662,104 532,224" style="fill: url(#gr72); stroke: rgb(0, 0, 0); stroke-width: 0;"/><defs><linearGradient id="gr73" x1="0%" x2="100%" y1="0%" y2="100%"><stop offset="0%" stop-color="rgb(57,167,190)"/><stop offset="100%" stop-color="rgb(35,156,185)"/></linearGradient></defs><polygon id="triangle36" points="586,427 676,281 532,224" style="fill: url(#gr73); stroke: rgb(0, 0, 0); stroke-width: 0;"/><defs><linearGradient id="gr74" x1="0%" x2="100%" y1="0%" y2="100%"><stop offset="0%" stop-color="rgb(30,158,186)"/><stop offset="100%" stop-color="rgb(30,155,185)"/></linearGradient></defs><polygon id="triangle36" points="662,104 676,281 532,224" style="fill: url(#gr74); stroke: rgb(0, 0, 0); stroke-width: 0;"/></svg>