<svg xmlns="http://www.w3.org/2000/svg" width="1000" height="1000" version="1.1"><defs><linearGradient id="gr0" x1="0%" x2="100%" y1="0%" y2="100%"><stop offset="0%" stop-color="rgb(253,228,180)"/><stop offset="100%" stop-color="rgb(252,223,164)"/></linearGradient></defs><polygon id="triangle36" points="17,14 191,9 55,221" style="fill: url(#gr0); stroke: rgb(0, 0, 0); stroke-width: 0;"/><defs><linearGradient id="gr1" x1="0%" x2="100%" y1="0%" y2="100%"><stop offset="0%" stop-color="rgb(252,216,145)"/><stop offset="100%" stop-color="rgb(253,221,161)"/></linearGradient></defs><polygon id="triangle36" points="55,221 191,9 287,204" style="fill: url(#gr1); stroke: rgb(0, 0, 0); stroke-width: 0;"/><defs><linearGradient id="gr2" x1="0%" x2="100%" y1="0%" y2="100%"><stop offset="0%" stop-color="rgb(254,228,179)"/><stop offset="100%" stop-color="rgb(253,222,163)"/></linearGradient></defs><polygon id="triangle36" points="191,9 287,204 408,53" style="fill: url(#gr2); stroke: rgb(0, 0, 0); stroke-width: 0;"/><defs><linearGradient id="gr3" x1="0%" x2="100%" y1="0%" y2="100%"><stop offset="0%" stop-color="rgb(252,215,144)"/><stop offset="100%" stop-color="rgb(252,218,153)"/></linearGradient></defs><polygon id="triangle36" points="287,204 408,53 556,235" style="fill: url(#gr3); stroke: rgb(0, 0, 0); stroke-width: 0;"/><defs><linearGradient id="gr4" x1="0%" x2="100%" y1="0%" y2="100%"><stop offset="0%" stop-color="rgb(253,225,170)"/><stop offset="100%" stop-color="rgb(252,219,155)"/></linearGradient></defs><polygon id="triangle36" points="408,53 570,81 556,235" style="fill: url(#gr4); stroke: rgb(0, 0, 0); stroke-width: 0;"/><defs><linearGradient id="gr5" x1="0%" x2="100%" y1="0%" y2="100%"><stop offset="0%" stop-color="rgb(253,222,161)"/><stop offset="100%" stop-color="rgb(250,205,117)"/></linearGradient></defs><polygon id="triangle36" points="17,14 55,221 17,402" style="fill: url(#gr5); stroke: rgb(0, 0, 0); stroke-width: 0;"/><defs><linearGradient id="gr6" x1="0%" x2="100%" y1="0%" y2="100%"><stop offset="0%" stop-color="rgb(250,204,113)"/><stop offset="100%" stop-color="rgb(248,191,82)"/></linearGradient></defs><polygon id="triangle36" points="55,221 133,457 17,402" style="fill: url(#gr6); stroke: rgb(0, 0, 0); stroke-width: 0;"/><defs><linearGradient id="gr7" x1="0%" x2="100%" y1="0%" y2="100%"><stop offset="0%" stop-color="rgb(248,187,75)"/><stop offset="100%" stop-color="rgb(247,180,63)"/></linearGradient></defs><polygon id="triangle36" points="17,402 133,457 15,634" style="fill: url(#gr7); stroke: rgb(0, 0, 0); stroke-width: 0;"/><defs><linearGradient id="gr8" x1="0%" x2="100%" y1="0%" y2="100%"><stop offset="0%" stop-color="rgb(248,183,68)"/><stop offset="100%" stop-color="rgb(247,180,62)"/></linearGradient></defs><polygon id="triangle36" points="133,457 331,469 190,626" style="fill: url(#gr8); stroke: rgb(0, 0, 0); stroke-width: 0;"/><defs><linearGradient id="gr9" x1="0%" x2="100%" y1="0%" y2="100%"><stop offset="0%" stop-color="rgb(247,175,55)"/><stop offset="100%" stop-color="rgb(247,179,61)"/></linearGradient></defs><polygon id="triangle36" points="15,634 133,457 190,626" style="fill: url(#gr9); stroke: rgb(0, 0, 0); stroke-width: 0;"/><defs><linearGradient id="gr10" x1="0%" x2="100%" y1="0%" y2="100%"><stop offset="0%" stop-color="rgb(246,175,56)"/><stop offset="100%" stop-color="rgb(246,179,61)"/></linearGradient></defs><polygon id="triangle36" points="190,626 331,469 436,614" style="fill: url(#gr10); stroke: rgb(0, 0, 0); stroke-width: 0;"/><defs><linearGradient id="gr11" x1="0%" x2="100%" y1="0%" y2="100%"><stop offset="0%" stop-color="rgb(248,185,69)"/><stop offset="100%" stop-color="rgb(248,183,68)"/></linearGradient></defs><polygon id="triangle36" points="331,469 531,395 436,614" style="fill: url(#gr11); stroke: rgb(0, 0, 0); stroke-width: 0;"/><defs><linearGradient id="gr12" x1="0%" x2="100%" y1="0%" y2="100%"><stop offset="0%" stop-color="rgb(246,177,57)"/><stop offset="100%" stop-color="rgb(247,182,67)"/></linearGradient></defs><polygon id="triangle36" points="436,614 531,395 693,601" style="fill: url(#gr12); stroke: rgb(0, 0, 0); stroke-width: 0;"/><defs><linearGradient id="gr13" x1="0%" x2="100%" y1="0%" y2="100%"><stop offset="0%" stop-color="rgb(249,194,90)"/><stop offset="100%" stop-color="rgb(249,199,101)"/></linearGradient></defs><polygon id="triangle36" points="531,395 556,235 820,424" style="fill: url(#gr13); stroke: rgb(0, 0, 0); stroke-width: 0;"/><defs><linearGradient id="gr14" x1="0%" x2="100%" y1="0%" y2="100%"><stop offset="0%" stop-color="rgb(248,188,78)"/><stop offset="100%" stop-color="rgb(247,183,68)"/></linearGradient></defs><polygon id="triangle36" points="531,395 693,601 820,424" style="fill: url(#gr14); stroke: rgb(0, 0, 0); stroke-width: 0;"/><defs><linearGradient id="gr15" x1="0%" x2="100%" y1="0%" y2="100%"><stop offset="0%" stop-color="rgb(251,213,139)"/><stop offset="100%" stop-color="rgb(252,218,152)"/></linearGradient></defs><polygon id="triangle36" points="556,235 570,81 870,209" style="fill: url(#gr15); stroke: rgb(0, 0, 0); stroke-width: 0;"/><defs><linearGradient id="gr16" x1="0%" x2="100%" y1="0%" y2="100%"><stop offset="0%" stop-color="rgb(250,207,121)"/><stop offset="100%" stop-color="rgb(249,202,109)"/></linearGradient></defs><polygon id="triangle36" points="556,235 820,424 870,209" style="fill: url(#gr16); stroke: rgb(0, 0, 0); stroke-width: 0;"/><defs><linearGradient id="gr17" x1="0%" x2="100%" y1="0%" y2="100%"><stop offset="0%" stop-color="rgb(253,225,170)"/><stop offset="100%" stop-color="rgb(253,222,164)"/></linearGradient></defs><polygon id="triangle36" points="570,81 870,209 828,17" style="fill: url(#gr17); stroke: rgb(0, 0, 0); stroke-width: 0;"/><defs><linearGradient id="gr18" x1="0%" x2="100%" y1="0%" y2="100%"><stop offset="0%" stop-color="rgb(254,230,185)"/><stop offset="100%" stop-color="rgb(254,229,183)"/></linearGradient></defs><polygon id="triangle36" points="191,9 408,53 531,11" style="fill: url(#gr18); stroke: rgb(0, 0, 0); stroke-width: 0;"/><defs><linearGradient id="gr19" x1="0%" x2="100%" y1="0%" y2="100%"><stop offset="0%" stop-color="rgb(253,228,179)"/><stop offset="100%" stop-color="rgb(253,228,180)"/></linearGradient></defs><polygon id="triangle36" points="408,53 570,81 531,11" style="fill: url(#gr19); stroke: rgb(0, 0, 0); stroke-width: 0;"/><defs><linearGradient id="gr20" x1="0%" x2="100%" y1="0%" y2="100%"><stop offset="0%" stop-color="rgb(253,228,178)"/><stop offset="100%" stop-color="rgb(254,230,185)"/></linearGradient></defs><polygon id="triangle36" points="570,81 828,17 531,11" style="fill: url(#gr20); stroke: rgb(0, 0, 0); stroke-width: 0;"/><defs><linearGradient id="gr21" x1="0%" x2="100%" y1="0%" y2="100%"><stop offset="0%" stop-color="rgb(254,228,179)"/><stop offset="100%" stop-color="rgb(253,223,164)"/></linearGradient></defs><polygon id="triangle36" points="828,17 870,209 981,21" style="fill: url(#gr21); stroke: rgb(0, 0, 0); stroke-width: 0;"/><defs><linearGradient id="gr22" x1="0%" x2="100%" y1="0%" y2="100%"><stop offset="0%" stop-color="rgb(248,196,94)"/><stop offset="100%" stop-color="rgb(250,207,122)"/></linearGradient></defs><polygon id="triangle36" points="820,424 870,209 993,265" style="fill: url(#gr22); stroke: rgb(0, 0, 0); stroke-width: 0;"/><defs><linearGradient id="gr23" x1="0%" x2="100%" y1="0%" y2="100%"><stop offset="0%" stop-color="rgb(251,215,143)"/><stop offset="100%" stop-color="rgb(252,218,151)"/></linearGradient></defs><polygon id="triangle36" points="870,209 981,21 993,265" style="fill: url(#gr23); stroke: rgb(0, 0, 0); stroke-width: 0;"/><defs><linearGradient id="gr24" x1="0%" x2="100%" y1="0%" y2="100%"><stop offset="0%" stop-color="rgb(247,192,82)"/><stop offset="100%" stop-color="rgb(248,195,92)"/></linearGradient></defs><polygon id="triangle36" points="820,424 993,265 993,462" style="fill: url(#gr24); stroke: rgb(0, 0, 0); stroke-width: 0;"/><defs><linearGradient id="gr25" x1="0%" x2="100%" y1="0%" y2="100%"><stop offset="0%" stop-color="rgb(247,177,57)"/><stop offset="100%" stop-color="rgb(247,180,63)"/></linearGradient></defs><polygon id="triangle36" points="693,601 820,424 949,648" style="fill: url(#gr25); stroke: rgb(0, 0, 0); stroke-width: 0;"/><defs><linearGradient id="gr26" x1="0%" x2="100%" y1="0%" y2="100%"><stop offset="0%" stop-color="rgb(247,186,71)"/><stop offset="100%" stop-color="rgb(247,180,62)"/></linearGradient></defs><polygon id="triangle36" points="820,424 993,462 949,648" style="fill: url(#gr26); stroke: rgb(0, 0, 0); stroke-width: 0;"/><defs><linearGradient id="gr27" x1="0%" x2="100%" y1="0%" y2="100%"><stop offset="0%" stop-color="rgb(247,171,51)"/><stop offset="100%" stop-color="rgb(246,166,45)"/></linearGradient></defs><polygon id="triangle36" points="693,601 949,648 890,813" style="fill: url(#gr27); stroke: rgb(0, 0, 0); stroke-width: 0;"/><defs><linearGradient id="gr28" x1="0%" x2="100%" y1="0%" y2="100%"><stop offset="0%" stop-color="rgb(247,161,41)"/><stop offset="100%" stop-color="rgb(246,165,45)"/></linearGradient></defs><polygon id="triangle36" points="890,813 949,648 995,790" style="fill: url(#gr28); stroke: rgb(0, 0, 0); stroke-width: 0;"/><defs><linearGradient id="gr29" x1="0%" x2="100%" y1="0%" y2="100%"><stop offset="0%" stop-color="rgb(246,172,51)"/><stop offset="100%" stop-color="rgb(247,173,54)"/></linearGradient></defs><polygon id="triangle36" points="949,648 993,462 995,790" style="fill: url(#gr29); stroke: rgb(0, 0, 0); stroke-width: 0;"/><defs><linearGradient id="gr30" x1="0%" x2="100%" y1="0%" y2="100%"><stop offset="0%" stop-color="rgb(247,158,38)"/><stop offset="100%" stop-color="rgb(247,156,36)"/></linearGradient></defs><polygon id="triangle36" points="890,813 995,790 972,967" style="fill: url(#gr30); stroke: rgb(0, 0, 0); stroke-width: 0;"/><defs><linearGradient id="gr31" x1="0%" x2="100%" y1="0%" y2="100%"><stop offset="0%" stop-color="rgb(247,151,31)"/><stop offset="100%" stop-color="rgb(247,150,30)"/></linearGradient></defs><polygon id="triangle36" points="234,968 436,992 28,972" style="fill: url(#gr31); stroke: rgb(0, 0, 0); stroke-width: 0;"/><defs><linearGradient id="gr32" x1="0%" x2="100%" y1="0%" y2="100%"><stop offset="0%" stop-color="rgb(246,172,51)"/><stop offset="100%" stop-color="rgb(246,169,48)"/></linearGradient></defs><polygon id="triangle36" points="436,614 693,601 645,773" style="fill: url(#gr32); stroke: rgb(0, 0, 0); stroke-width: 0;"/><defs><linearGradient id="gr33" x1="0%" x2="100%" y1="0%" y2="100%"><stop offset="0%" stop-color="rgb(247,152,32)"/><stop offset="100%" stop-color="rgb(247,157,36)"/></linearGradient></defs><polygon id="triangle36" points="436,992 736,900 645,773" style="fill: url(#gr33); stroke: rgb(0, 0, 0); stroke-width: 0;"/><defs><linearGradient id="gr34" x1="0%" x2="100%" y1="0%" y2="100%"><stop offset="0%" stop-color="rgb(247,170,50)"/><stop offset="100%" stop-color="rgb(247,162,41)"/></linearGradient></defs><polygon id="triangle36" points="693,601 890,813 645,773" style="fill: url(#gr34); stroke: rgb(0, 0, 0); stroke-width: 0;"/><defs><linearGradient id="gr35" x1="0%" x2="100%" y1="0%" y2="100%"><stop offset="0%" stop-color="rgb(247,156,36)"/><stop offset="100%" stop-color="rgb(247,160,39)"/></linearGradient></defs><polygon id="triangle36" points="736,900 890,813 645,773" style="fill: url(#gr35); stroke: rgb(0, 0, 0); stroke-width: 0;"/><defs><linearGradient id="gr36" x1="0%" x2="100%" y1="0%" y2="100%"><stop offset="0%" stop-color="rgb(247,170,49)"/><stop offset="100%" stop-color="rgb(247,166,46)"/></linearGradient></defs><polygon id="triangle36" points="15,634 190,626 18,816" style="fill: url(#gr36); stroke: rgb(0, 0, 0); stroke-width: 0;"/><defs><linearGradient id="gr37" x1="0%" x2="100%" y1="0%" y2="100%"><stop offset="0%" stop-color="rgb(247,152,32)"/><stop offset="100%" stop-color="rgb(247,154,34)"/></linearGradient></defs><polygon id="triangle36" points="28,972 234,968 18,816" style="fill: url(#gr37); stroke: rgb(0, 0, 0); stroke-width: 0;"/><defs><linearGradient id="gr38" x1="0%" x2="100%" y1="0%" y2="100%"><stop offset="0%" stop-color="rgb(247,151,32)"/><stop offset="100%" stop-color="rgb(247,152,33)"/></linearGradient></defs><polygon id="triangle36" points="234,968 436,992 423,850" style="fill: url(#gr38); stroke: rgb(0, 0, 0); stroke-width: 0;"/><defs><linearGradient id="gr39" x1="0%" x2="100%" y1="0%" y2="100%"><stop offset="0%" stop-color="rgb(246,169,48)"/><stop offset="100%" stop-color="rgb(247,161,40)"/></linearGradient></defs><polygon id="triangle36" points="436,614 645,773 423,850" style="fill: url(#gr39); stroke: rgb(0, 0, 0); stroke-width: 0;"/><defs><linearGradient id="gr40" x1="0%" x2="100%" y1="0%" y2="100%"><stop offset="0%" stop-color="rgb(246,152,33)"/><stop offset="100%" stop-color="rgb(246,158,38)"/></linearGradient></defs><polygon id="triangle36" points="436,992 645,773 423,850" style="fill: url(#gr40); stroke: rgb(0, 0, 0); stroke-width: 0;"/><defs><linearGradient id="gr41" x1="0%" x2="100%" y1="0%" y2="100%"><stop offset="0%" stop-color="rgb(248,188,77)"/><stop offset="100%" stop-color="rgb(248,193,87)"/></linearGradient></defs><polygon id="triangle36" points="133,457 331,469 266,301" style="fill: url(#gr41); stroke: rgb(0, 0, 0); stroke-width: 0;"/><defs><linearGradient id="gr42" x1="0%" x2="100%" y1="0%" y2="100%"><stop offset="0%" stop-color="rgb(251,211,132)"/><stop offset="100%" stop-color="rgb(250,207,121)"/></linearGradient></defs><polygon id="triangle36" points="287,204 556,235 266,301" style="fill: url(#gr42); stroke: rgb(0, 0, 0); stroke-width: 0;"/><defs><linearGradient id="gr43" x1="0%" x2="100%" y1="0%" y2="100%"><stop offset="0%" stop-color="rgb(248,189,78)"/><stop offset="100%" stop-color="rgb(249,195,93)"/></linearGradient></defs><polygon id="triangle36" points="331,469 531,395 266,301" style="fill: url(#gr43); stroke: rgb(0, 0, 0); stroke-width: 0;"/><defs><linearGradient id="gr44" x1="0%" x2="100%" y1="0%" y2="100%"><stop offset="0%" stop-color="rgb(249,196,96)"/><stop offset="100%" stop-color="rgb(250,204,115)"/></linearGradient></defs><polygon id="triangle36" points="531,395 556,235 266,301" style="fill: url(#gr44); stroke: rgb(0, 0, 0); stroke-width: 0;"/><defs><linearGradient id="gr45" x1="0%" x2="100%" y1="0%" y2="100%"><stop offset="0%" stop-color="rgb(250,206,118)"/><stop offset="100%" stop-color="rgb(249,196,94)"/></linearGradient></defs><polygon id="triangle36" points="55,221 133,457 266,301" style="fill: url(#gr45); stroke: rgb(0, 0, 0); stroke-width: 0;"/><defs><linearGradient id="gr46" x1="0%" x2="100%" y1="0%" y2="100%"><stop offset="0%" stop-color="rgb(250,210,130)"/><stop offset="100%" stop-color="rgb(250,208,125)"/></linearGradient></defs><polygon id="triangle36" points="55,221 287,204 266,301" style="fill: url(#gr46); stroke: rgb(0, 0, 0); stroke-width: 0;"/><defs><linearGradient id="gr47" x1="0%" x2="100%" y1="0%" y2="100%"><stop offset="0%" stop-color="rgb(248,162,42)"/><stop offset="100%" stop-color="rgb(247,166,46)"/></linearGradient></defs><polygon id="triangle36" points="18,816 190,626 274,768" style="fill: url(#gr47); stroke: rgb(0, 0, 0); stroke-width: 0;"/><defs><linearGradient id="gr48" x1="0%" x2="100%" y1="0%" y2="100%"><stop offset="0%" stop-color="rgb(247,158,38)"/><stop offset="100%" stop-color="rgb(247,156,36)"/></linearGradient></defs><polygon id="triangle36" points="18,816 234,968 274,768" style="fill: url(#gr48); stroke: rgb(0, 0, 0); stroke-width: 0;"/><defs><linearGradient id="gr49" x1="0%" x2="100%" y1="0%" y2="100%"><stop offset="0%" stop-color="rgb(246,171,51)"/><stop offset="100%" stop-color="rgb(246,168,48)"/></linearGradient></defs><polygon id="triangle36" points="190,626 436,614 274,768" style="fill: url(#gr49); stroke: rgb(0, 0, 0); stroke-width: 0;"/><defs><linearGradient id="gr50" x1="0%" x2="100%" y1="0%" y2="100%"><stop offset="0%" stop-color="rgb(246,153,33)"/><stop offset="100%" stop-color="rgb(246,158,38)"/></linearGradient></defs><polygon id="triangle36" points="234,968 423,850 274,768" style="fill: url(#gr50); stroke: rgb(0, 0, 0); stroke-width: 0;"/><defs><linearGradient id="gr51" x1="0%" x2="100%" y1="0%" y2="100%"><stop offset="0%" stop-color="rgb(247,160,40)"/><stop offset="100%" stop-color="rgb(246,166,46)"/></linearGradient></defs><polygon id="triangle36" points="423,850 436,614 274,768" style="fill: url(#gr51); stroke: rgb(0, 0, 0); stroke-width: 0;"/><defs><linearGradient id="gr52" x1="0%" x2="100%" y1="0%" y2="100%"><stop offset="0%" stop-color="rgb(247,150,30)"/><stop offset="100%" stop-color="rgb(246,151,31)"/></linearGradient></defs><polygon id="triangle36" points="436,992 736,900 764,984" style="fill: url(#gr52); stroke: rgb(0, 0, 0); stroke-width: 0;"/><defs><linearGradient id="gr53" x1="0%" x2="100%" y1="0%" y2="100%"><stop offset="0%" stop-color="rgb(247,154,34)"/><stop offset="100%" stop-color="rgb(246,154,34)"/></linearGradient></defs><polygon id="triangle36" points="736,900 890,813 764,984" style="fill: url(#gr53); stroke: rgb(0, 0, 0); stroke-width: 0;"/><defs><linearGradient id="gr54" x1="0%" x2="100%" y1="0%" y2="100%"><stop offset="0%" stop-color="rgb(247,155,36)"/><stop offset="100%" stop-color="rgb(246,151,31)"/></linearGradient></defs><polygon id="triangle36" points="890,813 972,967 764,984" style="fill: url(#gr54); stroke: rgb(0, 0, 0); stroke-width: 0;"/></svg>