<svg xmlns="http://www.w3.org/2000/svg" width="1000" height="1000" version="1.1"><defs><linearGradient id="gr0" x1="0%" x2="100%" y1="0%" y2="100%"><stop offset="0%" stop-color="rgb(251,191,236)"/><stop offset="100%" stop-color="rgb(251,220,247)"/></linearGradient></defs><polygon id="triangle36" points="11,245 19,10 70,45" style="fill: url(#gr0); stroke: rgb(0, 0, 0); stroke-width: 0;"/><defs><linearGradient id="gr1" x1="0%" x2="100%" y1="0%" y2="100%"><stop offset="0%" stop-color="rgb(251,184,233)"/><stop offset="100%" stop-color="rgb(251,203,240)"/></linearGradient></defs><polygon id="triangle36" points="11,245 220,175 70,45" style="fill: url(#gr1); stroke: rgb(0, 0, 0); stroke-width: 0;"/><defs><linearGradient id="gr2" x1="0%" x2="100%" y1="0%" y2="100%"><stop offset="0%" stop-color="rgb(251,169,227)"/><stop offset="100%" stop-color="rgb(252,166,225)"/></linearGradient></defs><polygon id="triangle36" points="11,245 220,175 160,393" style="fill: url(#gr2); stroke: rgb(0, 0, 0); stroke-width: 0;"/><defs><linearGradient id="gr3" x1="0%" x2="100%" y1="0%" y2="100%"><stop offset="0%" stop-color="rgb(251,197,238)"/><stop offset="100%" stop-color="rgb(251,205,241)"/></linearGradient></defs><polygon id="triangle36" points="220,175 290,15 471,196" style="fill: url(#gr3); stroke: rgb(0, 0, 0); stroke-width: 0;"/><defs><linearGradient id="gr4" x1="0%" x2="100%" y1="0%" y2="100%"><stop offset="0%" stop-color="rgb(251,221,247)"/><stop offset="100%" stop-color="rgb(251,209,243)"/></linearGradient></defs><polygon id="triangle36" points="290,15 471,196 472,7" style="fill: url(#gr4); stroke: rgb(0, 0, 0); stroke-width: 0;"/><defs><linearGradient id="gr5" x1="0%" x2="100%" y1="0%" y2="100%"><stop offset="0%" stop-color="rgb(251,197,238)"/><stop offset="100%" stop-color="rgb(251,216,245)"/></linearGradient></defs><polygon id="triangle36" points="471,196 472,7 638,100" style="fill: url(#gr5); stroke: rgb(0, 0, 0); stroke-width: 0;"/><defs><linearGradient id="gr6" x1="0%" x2="100%" y1="0%" y2="100%"><stop offset="0%" stop-color="rgb(251,187,234)"/><stop offset="100%" stop-color="rgb(251,189,235)"/></linearGradient></defs><polygon id="triangle36" points="471,196 638,100 684,255" style="fill: url(#gr6); stroke: rgb(0, 0, 0); stroke-width: 0;"/><defs><linearGradient id="gr7" x1="0%" x2="100%" y1="0%" y2="100%"><stop offset="0%" stop-color="rgb(252,174,229)"/><stop offset="100%" stop-color="rgb(252,159,222)"/></linearGradient></defs><polygon id="triangle36" points="471,196 684,255 595,379" style="fill: url(#gr7); stroke: rgb(0, 0, 0); stroke-width: 0;"/><defs><linearGradient id="gr8" x1="0%" x2="100%" y1="0%" y2="100%"><stop offset="0%" stop-color="rgb(252,168,227)"/><stop offset="100%" stop-color="rgb(253,145,217)"/></linearGradient></defs><polygon id="triangle36" points="471,196 595,379 456,414" style="fill: url(#gr8); stroke: rgb(0, 0, 0); stroke-width: 0;"/><defs><linearGradient id="gr9" x1="0%" x2="100%" y1="0%" y2="100%"><stop offset="0%" stop-color="rgb(253,147,218)"/><stop offset="100%" stop-color="rgb(253,161,223)"/></linearGradient></defs><polygon id="triangle36" points="160,393 220,175 268,415" style="fill: url(#gr9); stroke: rgb(0, 0, 0); stroke-width: 0;"/><defs><linearGradient id="gr10" x1="0%" x2="100%" y1="0%" y2="100%"><stop offset="0%" stop-color="rgb(251,179,231)"/><stop offset="100%" stop-color="rgb(252,163,225)"/></linearGradient></defs><polygon id="triangle36" points="220,175 471,196 268,415" style="fill: url(#gr10); stroke: rgb(0, 0, 0); stroke-width: 0;"/><defs><linearGradient id="gr11" x1="0%" x2="100%" y1="0%" y2="100%"><stop offset="0%" stop-color="rgb(253,144,218)"/><stop offset="100%" stop-color="rgb(253,158,223)"/></linearGradient></defs><polygon id="triangle36" points="456,414 471,196 268,415" style="fill: url(#gr11); stroke: rgb(0, 0, 0); stroke-width: 0;"/><defs><linearGradient id="gr12" x1="0%" x2="100%" y1="0%" y2="100%"><stop offset="0%" stop-color="rgb(252,157,223)"/><stop offset="100%" stop-color="rgb(252,150,219)"/></linearGradient></defs><polygon id="triangle36" points="11,245 160,393 61,525" style="fill: url(#gr12); stroke: rgb(0, 0, 0); stroke-width: 0;"/><defs><linearGradient id="gr13" x1="0%" x2="100%" y1="0%" y2="100%"><stop offset="0%" stop-color="rgb(252,144,216)"/><stop offset="100%" stop-color="rgb(251,160,223)"/></linearGradient></defs><polygon id="triangle36" points="160,393 268,415 143,631" style="fill: url(#gr13); stroke: rgb(0, 0, 0); stroke-width: 0;"/><defs><linearGradient id="gr14" x1="0%" x2="100%" y1="0%" y2="100%"><stop offset="0%" stop-color="rgb(251,166,225)"/><stop offset="100%" stop-color="rgb(251,167,225)"/></linearGradient></defs><polygon id="triangle36" points="61,525 160,393 143,631" style="fill: url(#gr14); stroke: rgb(0, 0, 0); stroke-width: 0;"/><defs><linearGradient id="gr15" x1="0%" x2="100%" y1="0%" y2="100%"><stop offset="0%" stop-color="rgb(252,149,219)"/><stop offset="100%" stop-color="rgb(250,168,226)"/></linearGradient></defs><polygon id="triangle36" points="268,415 456,414 409,681" style="fill: url(#gr15); stroke: rgb(0, 0, 0); stroke-width: 0;"/><defs><linearGradient id="gr16" x1="0%" x2="100%" y1="0%" y2="100%"><stop offset="0%" stop-color="rgb(249,189,235)"/><stop offset="100%" stop-color="rgb(251,162,224)"/></linearGradient></defs><polygon id="triangle36" points="409,681 456,414 655,557" style="fill: url(#gr16); stroke: rgb(0, 0, 0); stroke-width: 0;"/><defs><linearGradient id="gr17" x1="0%" x2="100%" y1="0%" y2="100%"><stop offset="0%" stop-color="rgb(253,138,215)"/><stop offset="100%" stop-color="rgb(252,152,219)"/></linearGradient></defs><polygon id="triangle36" points="456,414 595,379 655,557" style="fill: url(#gr17); stroke: rgb(0, 0, 0); stroke-width: 0;"/><defs><linearGradient id="gr18" x1="0%" x2="100%" y1="0%" y2="100%"><stop offset="0%" stop-color="rgb(253,141,215)"/><stop offset="100%" stop-color="rgb(252,150,219)"/></linearGradient></defs><polygon id="triangle36" points="595,379 655,557 785,438" style="fill: url(#gr18); stroke: rgb(0, 0, 0); stroke-width: 0;"/><defs><linearGradient id="gr19" x1="0%" x2="100%" y1="0%" y2="100%"><stop offset="0%" stop-color="rgb(253,145,217)"/><stop offset="100%" stop-color="rgb(252,151,220)"/></linearGradient></defs><polygon id="triangle36" points="595,379 684,255 785,438" style="fill: url(#gr19); stroke: rgb(0, 0, 0); stroke-width: 0;"/><defs><linearGradient id="gr20" x1="0%" x2="100%" y1="0%" y2="100%"><stop offset="0%" stop-color="rgb(251,163,225)"/><stop offset="100%" stop-color="rgb(252,157,222)"/></linearGradient></defs><polygon id="triangle36" points="684,255 785,438 885,221" style="fill: url(#gr20); stroke: rgb(0, 0, 0); stroke-width: 0;"/><defs><linearGradient id="gr21" x1="0%" x2="100%" y1="0%" y2="100%"><stop offset="0%" stop-color="rgb(251,204,241)"/><stop offset="100%" stop-color="rgb(251,193,236)"/></linearGradient></defs><polygon id="triangle36" points="638,100 684,255 853,88" style="fill: url(#gr21); stroke: rgb(0, 0, 0); stroke-width: 0;"/><defs><linearGradient id="gr22" x1="0%" x2="100%" y1="0%" y2="100%"><stop offset="0%" stop-color="rgb(251,178,231)"/><stop offset="100%" stop-color="rgb(251,192,236)"/></linearGradient></defs><polygon id="triangle36" points="684,255 885,221 853,88" style="fill: url(#gr22); stroke: rgb(0, 0, 0); stroke-width: 0;"/><defs><linearGradient id="gr23" x1="0%" x2="100%" y1="0%" y2="100%"><stop offset="0%" stop-color="rgb(251,225,249)"/><stop offset="100%" stop-color="rgb(251,220,247)"/></linearGradient></defs><polygon id="triangle36" points="472,7 638,100 673,12" style="fill: url(#gr23); stroke: rgb(0, 0, 0); stroke-width: 0;"/><defs><linearGradient id="gr24" x1="0%" x2="100%" y1="0%" y2="100%"><stop offset="0%" stop-color="rgb(251,214,245)"/><stop offset="100%" stop-color="rgb(250,219,246)"/></linearGradient></defs><polygon id="triangle36" points="638,100 853,88 673,12" style="fill: url(#gr24); stroke: rgb(0, 0, 0); stroke-width: 0;"/><defs><linearGradient id="gr25" x1="0%" x2="100%" y1="0%" y2="100%"><stop offset="0%" stop-color="rgb(250,226,250)"/><stop offset="100%" stop-color="rgb(250,225,249)"/></linearGradient></defs><polygon id="triangle36" points="19,10 70,45 163,7" style="fill: url(#gr25); stroke: rgb(0, 0, 0); stroke-width: 0;"/><defs><linearGradient id="gr26" x1="0%" x2="100%" y1="0%" y2="100%"><stop offset="0%" stop-color="rgb(251,204,241)"/><stop offset="100%" stop-color="rgb(251,224,248)"/></linearGradient></defs><polygon id="triangle36" points="220,175 290,15 163,7" style="fill: url(#gr26); stroke: rgb(0, 0, 0); stroke-width: 0;"/><defs><linearGradient id="gr27" x1="0%" x2="100%" y1="0%" y2="100%"><stop offset="0%" stop-color="rgb(251,227,249)"/><stop offset="100%" stop-color="rgb(251,227,250)"/></linearGradient></defs><polygon id="triangle36" points="290,15 472,7 163,7" style="fill: url(#gr27); stroke: rgb(0, 0, 0); stroke-width: 0;"/><defs><linearGradient id="gr28" x1="0%" x2="100%" y1="0%" y2="100%"><stop offset="0%" stop-color="rgb(251,219,247)"/><stop offset="100%" stop-color="rgb(251,211,243)"/></linearGradient></defs><polygon id="triangle36" points="70,45 220,175 163,7" style="fill: url(#gr28); stroke: rgb(0, 0, 0); stroke-width: 0;"/><defs><linearGradient id="gr29" x1="0%" x2="100%" y1="0%" y2="100%"><stop offset="0%" stop-color="rgb(251,162,224)"/><stop offset="100%" stop-color="rgb(251,176,230)"/></linearGradient></defs><polygon id="triangle36" points="11,245 61,525 20,701" style="fill: url(#gr29); stroke: rgb(0, 0, 0); stroke-width: 0;"/><defs><linearGradient id="gr30" x1="0%" x2="100%" y1="0%" y2="100%"><stop offset="0%" stop-color="rgb(250,178,231)"/><stop offset="100%" stop-color="rgb(249,198,239)"/></linearGradient></defs><polygon id="triangle36" points="61,525 143,631 20,701" style="fill: url(#gr30); stroke: rgb(0, 0, 0); stroke-width: 0;"/><defs><linearGradient id="gr31" x1="0%" x2="100%" y1="0%" y2="100%"><stop offset="0%" stop-color="rgb(249,212,246)"/><stop offset="100%" stop-color="rgb(249,203,242)"/></linearGradient></defs><polygon id="triangle36" points="20,701 143,631 148,835" style="fill: url(#gr31); stroke: rgb(0, 0, 0); stroke-width: 0;"/><defs><linearGradient id="gr32" x1="0%" x2="100%" y1="0%" y2="100%"><stop offset="0%" stop-color="rgb(250,180,232)"/><stop offset="100%" stop-color="rgb(250,190,237)"/></linearGradient></defs><polygon id="triangle36" points="11,245 20,701 15,902" style="fill: url(#gr32); stroke: rgb(0, 0, 0); stroke-width: 0;"/><defs><linearGradient id="gr33" x1="0%" x2="100%" y1="0%" y2="100%"><stop offset="0%" stop-color="rgb(249,209,245)"/><stop offset="100%" stop-color="rgb(250,194,241)"/></linearGradient></defs><polygon id="triangle36" points="20,701 148,835 15,902" style="fill: url(#gr33); stroke: rgb(0, 0, 0); stroke-width: 0;"/><defs><linearGradient id="gr34" x1="0%" x2="100%" y1="0%" y2="100%"><stop offset="0%" stop-color="rgb(251,170,232)"/><stop offset="100%" stop-color="rgb(251,167,231)"/></linearGradient></defs><polygon id="triangle36" points="15,902 148,835 96,992" style="fill: url(#gr34); stroke: rgb(0, 0, 0); stroke-width: 0;"/><defs><linearGradient id="gr35" x1="0%" x2="100%" y1="0%" y2="100%"><stop offset="0%" stop-color="rgb(253,143,223)"/><stop offset="100%" stop-color="rgb(251,163,230)"/></linearGradient></defs><polygon id="triangle36" points="96,992 148,835 372,987" style="fill: url(#gr35); stroke: rgb(0, 0, 0); stroke-width: 0;"/><defs><linearGradient id="gr36" x1="0%" x2="100%" y1="0%" y2="100%"><stop offset="0%" stop-color="rgb(252,162,230)"/><stop offset="100%" stop-color="rgb(249,186,237)"/></linearGradient></defs><polygon id="triangle36" points="372,987 409,681 656,921" style="fill: url(#gr36); stroke: rgb(0, 0, 0); stroke-width: 0;"/><defs><linearGradient id="gr37" x1="0%" x2="100%" y1="0%" y2="100%"><stop offset="0%" stop-color="rgb(248,205,242)"/><stop offset="100%" stop-color="rgb(249,197,239)"/></linearGradient></defs><polygon id="triangle36" points="409,681 655,557 770,778" style="fill: url(#gr37); stroke: rgb(0, 0, 0); stroke-width: 0;"/><defs><linearGradient id="gr38" x1="0%" x2="100%" y1="0%" y2="100%"><stop offset="0%" stop-color="rgb(248,210,244)"/><stop offset="100%" stop-color="rgb(249,197,241)"/></linearGradient></defs><polygon id="triangle36" points="409,681 656,921 770,778" style="fill: url(#gr38); stroke: rgb(0, 0, 0); stroke-width: 0;"/><defs><linearGradient id="gr39" x1="0%" x2="100%" y1="0%" y2="100%"><stop offset="0%" stop-color="rgb(250,186,233)"/><stop offset="100%" stop-color="rgb(249,200,240)"/></linearGradient></defs><polygon id="triangle36" points="655,557 770,778 998,609" style="fill: url(#gr39); stroke: rgb(0, 0, 0); stroke-width: 0;"/><defs><linearGradient id="gr40" x1="0%" x2="100%" y1="0%" y2="100%"><stop offset="0%" stop-color="rgb(250,171,227)"/><stop offset="100%" stop-color="rgb(251,164,225)"/></linearGradient></defs><polygon id="triangle36" points="655,557 785,438 998,609" style="fill: url(#gr40); stroke: rgb(0, 0, 0); stroke-width: 0;"/><defs><linearGradient id="gr41" x1="0%" x2="100%" y1="0%" y2="100%"><stop offset="0%" stop-color="rgb(249,215,248)"/><stop offset="100%" stop-color="rgb(250,192,239)"/></linearGradient></defs><polygon id="triangle36" points="770,778 925,895 998,609" style="fill: url(#gr41); stroke: rgb(0, 0, 0); stroke-width: 0;"/><defs><linearGradient id="gr42" x1="0%" x2="100%" y1="0%" y2="100%"><stop offset="0%" stop-color="rgb(253,146,218)"/><stop offset="100%" stop-color="rgb(252,163,224)"/></linearGradient></defs><polygon id="triangle36" points="785,438 885,221 990,302" style="fill: url(#gr42); stroke: rgb(0, 0, 0); stroke-width: 0;"/><defs><linearGradient id="gr43" x1="0%" x2="100%" y1="0%" y2="100%"><stop offset="0%" stop-color="rgb(250,209,242)"/><stop offset="100%" stop-color="rgb(251,201,239)"/></linearGradient></defs><polygon id="triangle36" points="853,88 885,221 978,51" style="fill: url(#gr43); stroke: rgb(0, 0, 0); stroke-width: 0;"/><defs><linearGradient id="gr44" x1="0%" x2="100%" y1="0%" y2="100%"><stop offset="0%" stop-color="rgb(252,182,232)"/><stop offset="100%" stop-color="rgb(252,188,234)"/></linearGradient></defs><polygon id="triangle36" points="885,221 990,302 978,51" style="fill: url(#gr44); stroke: rgb(0, 0, 0); stroke-width: 0;"/><defs><linearGradient id="gr45" x1="0%" x2="100%" y1="0%" y2="100%"><stop offset="0%" stop-color="rgb(251,228,250)"/><stop offset="100%" stop-color="rgb(251,227,249)"/></linearGradient></defs><polygon id="triangle36" points="472,7 673,12 907,7" style="fill: url(#gr45); stroke: rgb(0, 0, 0); stroke-width: 0;"/><defs><linearGradient id="gr46" x1="0%" x2="100%" y1="0%" y2="100%"><stop offset="0%" stop-color="rgb(250,225,249)"/><stop offset="100%" stop-color="rgb(250,221,247)"/></linearGradient></defs><polygon id="triangle36" points="673,12 853,88 907,7" style="fill: url(#gr46); stroke: rgb(0, 0, 0); stroke-width: 0;"/><defs><linearGradient id="gr47" x1="0%" x2="100%" y1="0%" y2="100%"><stop offset="0%" stop-color="rgb(250,217,245)"/><stop offset="100%" stop-color="rgb(251,223,248)"/></linearGradient></defs><polygon id="triangle36" points="853,88 978,51 907,7" style="fill: url(#gr47); stroke: rgb(0, 0, 0); stroke-width: 0;"/><defs><linearGradient id="gr48" x1="0%" x2="100%" y1="0%" y2="100%"><stop offset="0%" stop-color="rgb(250,190,240)"/><stop offset="100%" stop-color="rgb(251,177,233)"/></linearGradient></defs><polygon id="triangle36" points="925,895 998,609 989,973" style="fill: url(#gr48); stroke: rgb(0, 0, 0); stroke-width: 0;"/><defs><linearGradient id="gr49" x1="0%" x2="100%" y1="0%" y2="100%"><stop offset="0%" stop-color="rgb(254,138,220)"/><stop offset="100%" stop-color="rgb(253,147,224)"/></linearGradient></defs><polygon id="triangle36" points="372,987 656,921 760,981" style="fill: url(#gr49); stroke: rgb(0, 0, 0); stroke-width: 0;"/><defs><linearGradient id="gr50" x1="0%" x2="100%" y1="0%" y2="100%"><stop offset="0%" stop-color="rgb(251,170,232)"/><stop offset="100%" stop-color="rgb(251,176,234)"/></linearGradient></defs><polygon id="triangle36" points="656,921 770,778 760,981" style="fill: url(#gr50); stroke: rgb(0, 0, 0); stroke-width: 0;"/><defs><linearGradient id="gr51" x1="0%" x2="100%" y1="0%" y2="100%"><stop offset="0%" stop-color="rgb(250,198,242)"/><stop offset="100%" stop-color="rgb(252,164,230)"/></linearGradient></defs><polygon id="triangle36" points="770,778 925,895 760,981" style="fill: url(#gr51); stroke: rgb(0, 0, 0); stroke-width: 0;"/><defs><linearGradient id="gr52" x1="0%" x2="100%" y1="0%" y2="100%"><stop offset="0%" stop-color="rgb(252,163,229)"/><stop offset="100%" stop-color="rgb(253,141,222)"/></linearGradient></defs><polygon id="triangle36" points="925,895 989,973 760,981" style="fill: url(#gr52); stroke: rgb(0, 0, 0); stroke-width: 0;"/><defs><linearGradient id="gr53" x1="0%" x2="100%" y1="0%" y2="100%"><stop offset="0%" stop-color="rgb(249,204,241)"/><stop offset="100%" stop-color="rgb(248,209,245)"/></linearGradient></defs><polygon id="triangle36" points="143,631 148,835 266,718" style="fill: url(#gr53); stroke: rgb(0, 0, 0); stroke-width: 0;"/><defs><linearGradient id="gr54" x1="0%" x2="100%" y1="0%" y2="100%"><stop offset="0%" stop-color="rgb(250,188,234)"/><stop offset="100%" stop-color="rgb(250,178,231)"/></linearGradient></defs><polygon id="triangle36" points="143,631 268,415 266,718" style="fill: url(#gr54); stroke: rgb(0, 0, 0); stroke-width: 0;"/><defs><linearGradient id="gr55" x1="0%" x2="100%" y1="0%" y2="100%"><stop offset="0%" stop-color="rgb(249,200,243)"/><stop offset="100%" stop-color="rgb(250,181,236)"/></linearGradient></defs><polygon id="triangle36" points="148,835 372,987 266,718" style="fill: url(#gr55); stroke: rgb(0, 0, 0); stroke-width: 0;"/><defs><linearGradient id="gr56" x1="0%" x2="100%" y1="0%" y2="100%"><stop offset="0%" stop-color="rgb(252,163,225)"/><stop offset="100%" stop-color="rgb(248,202,240)"/></linearGradient></defs><polygon id="triangle36" points="268,415 409,681 266,718" style="fill: url(#gr56); stroke: rgb(0, 0, 0); stroke-width: 0;"/><defs><linearGradient id="gr57" x1="0%" x2="100%" y1="0%" y2="100%"><stop offset="0%" stop-color="rgb(251,173,233)"/><stop offset="100%" stop-color="rgb(248,210,245)"/></linearGradient></defs><polygon id="triangle36" points="372,987 409,681 266,718" style="fill: url(#gr57); stroke: rgb(0, 0, 0); stroke-width: 0;"/><defs><linearGradient id="gr58" x1="0%" x2="100%" y1="0%" y2="100%"><stop offset="0%" stop-color="rgb(253,139,216)"/><stop offset="100%" stop-color="rgb(253,145,218)"/></linearGradient></defs><polygon id="triangle36" points="785,438 990,302 990,459" style="fill: url(#gr58); stroke: rgb(0, 0, 0); stroke-width: 0;"/><defs><linearGradient id="gr59" x1="0%" x2="100%" y1="0%" y2="100%"><stop offset="0%" stop-color="rgb(251,149,218)"/><stop offset="100%" stop-color="rgb(251,161,223)"/></linearGradient></defs><polygon id="triangle36" points="785,438 998,609 990,459" style="fill: url(#gr59); stroke: rgb(0, 0, 0); stroke-width: 0;"/><defs><linearGradient id="gr60" x1="0%" x2="100%" y1="0%" y2="100%"><stop offset="0%" stop-color="rgb(253,148,218)"/><stop offset="100%" stop-color="rgb(252,154,221)"/></linearGradient></defs><polygon id="triangle36" points="990,302 998,609 990,459" style="fill: url(#gr60); stroke: rgb(0, 0, 0); stroke-width: 0;"/></svg>