<svg xmlns="http://www.w3.org/2000/svg" width="1000" height="1000" version="1.1"><defs><linearGradient id="gr0" x1="0%" x2="100%" y1="0%" y2="100%"><stop offset="0%" stop-color="rgb(102,116,79)"/><stop offset="100%" stop-color="rgb(96,115,73)"/></linearGradient></defs><polygon id="triangle36" points="11,187 14,11 222,73" style="fill: url(#gr0); stroke: rgb(0, 0, 0); stroke-width: 0;"/><defs><linearGradient id="gr1" x1="0%" x2="100%" y1="0%" y2="100%"><stop offset="0%" stop-color="rgb(126,144,100)"/><stop offset="100%" stop-color="rgb(85,110,61)"/></linearGradient></defs><polygon id="triangle36" points="11,187 197,194 222,73" style="fill: url(#gr1); stroke: rgb(0, 0, 0); stroke-width: 0;"/><defs><linearGradient id="gr2" x1="0%" x2="100%" y1="0%" y2="100%"><stop offset="0%" stop-color="rgb(117,128,90)"/><stop offset="100%" stop-color="rgb(80,100,56)"/></linearGradient></defs><polygon id="triangle36" points="14,11 222,73 188,4" style="fill: url(#gr2); stroke: rgb(0, 0, 0); stroke-width: 0;"/><defs><linearGradient id="gr3" x1="0%" x2="100%" y1="0%" y2="100%"><stop offset="0%" stop-color="rgb(121,133,96)"/><stop offset="100%" stop-color="rgb(105,122,81)"/></linearGradient></defs><polygon id="triangle36" points="188,4 222,73 361,68" style="fill: url(#gr3); stroke: rgb(0, 0, 0); stroke-width: 0;"/><defs><linearGradient id="gr4" x1="0%" x2="100%" y1="0%" y2="100%"><stop offset="0%" stop-color="rgb(75,91,51)"/><stop offset="100%" stop-color="rgb(109,126,84)"/></linearGradient></defs><polygon id="triangle36" points="197,194 222,73 377,199" style="fill: url(#gr4); stroke: rgb(0, 0, 0); stroke-width: 0;"/><defs><linearGradient id="gr5" x1="0%" x2="100%" y1="0%" y2="100%"><stop offset="0%" stop-color="rgb(81,103,57)"/><stop offset="100%" stop-color="rgb(97,111,74)"/></linearGradient></defs><polygon id="triangle36" points="222,73 361,68 377,199" style="fill: url(#gr5); stroke: rgb(0, 0, 0); stroke-width: 0;"/><defs><linearGradient id="gr6" x1="0%" x2="100%" y1="0%" y2="100%"><stop offset="0%" stop-color="rgb(83,105,59)"/><stop offset="100%" stop-color="rgb(113,133,88)"/></linearGradient></defs><polygon id="triangle36" points="197,194 377,199 350,352" style="fill: url(#gr6); stroke: rgb(0, 0, 0); stroke-width: 0;"/><defs><linearGradient id="gr7" x1="0%" x2="100%" y1="0%" y2="100%"><stop offset="0%" stop-color="rgb(82,105,58)"/><stop offset="100%" stop-color="rgb(84,109,60)"/></linearGradient></defs><polygon id="triangle36" points="197,194 350,352 205,422" style="fill: url(#gr7); stroke: rgb(0, 0, 0); stroke-width: 0;"/><defs><linearGradient id="gr8" x1="0%" x2="100%" y1="0%" y2="100%"><stop offset="0%" stop-color="rgb(120,131,93)"/><stop offset="100%" stop-color="rgb(106,119,80)"/></linearGradient></defs><polygon id="triangle36" points="11,187 197,194 63,283" style="fill: url(#gr8); stroke: rgb(0, 0, 0); stroke-width: 0;"/><defs><linearGradient id="gr9" x1="0%" x2="100%" y1="0%" y2="100%"><stop offset="0%" stop-color="rgb(120,131,94)"/><stop offset="100%" stop-color="rgb(136,146,109)"/></linearGradient></defs><polygon id="triangle36" points="197,194 205,422 63,283" style="fill: url(#gr9); stroke: rgb(0, 0, 0); stroke-width: 0;"/><defs><linearGradient id="gr10" x1="0%" x2="100%" y1="0%" y2="100%"><stop offset="0%" stop-color="rgb(126,143,100)"/><stop offset="100%" stop-color="rgb(111,128,85)"/></linearGradient></defs><polygon id="triangle36" points="11,187 63,283 12,426" style="fill: url(#gr10); stroke: rgb(0, 0, 0); stroke-width: 0;"/><defs><linearGradient id="gr11" x1="0%" x2="100%" y1="0%" y2="100%"><stop offset="0%" stop-color="rgb(128,145,102)"/><stop offset="100%" stop-color="rgb(82,103,57)"/></linearGradient></defs><polygon id="triangle36" points="63,283 205,422 12,426" style="fill: url(#gr11); stroke: rgb(0, 0, 0); stroke-width: 0;"/><defs><linearGradient id="gr12" x1="0%" x2="100%" y1="0%" y2="100%"><stop offset="0%" stop-color="rgb(123,135,96)"/><stop offset="100%" stop-color="rgb(135,145,108)"/></linearGradient></defs><polygon id="triangle36" points="12,426 205,422 66,535" style="fill: url(#gr12); stroke: rgb(0, 0, 0); stroke-width: 0;"/><defs><linearGradient id="gr13" x1="0%" x2="100%" y1="0%" y2="100%"><stop offset="0%" stop-color="rgb(162,168,134)"/><stop offset="100%" stop-color="rgb(135,144,108)"/></linearGradient></defs><polygon id="triangle36" points="66,535 205,422 239,584" style="fill: url(#gr13); stroke: rgb(0, 0, 0); stroke-width: 0;"/><defs><linearGradient id="gr14" x1="0%" x2="100%" y1="0%" y2="100%"><stop offset="0%" stop-color="rgb(62,81,42)"/><stop offset="100%" stop-color="rgb(94,108,71)"/></linearGradient></defs><polygon id="triangle36" points="205,422 239,584 403,531" style="fill: url(#gr14); stroke: rgb(0, 0, 0); stroke-width: 0;"/><defs><linearGradient id="gr15" x1="0%" x2="100%" y1="0%" y2="100%"><stop offset="0%" stop-color="rgb(101,115,75)"/><stop offset="100%" stop-color="rgb(94,113,70)"/></linearGradient></defs><polygon id="triangle36" points="205,422 350,352 403,531" style="fill: url(#gr15); stroke: rgb(0, 0, 0); stroke-width: 0;"/><defs><linearGradient id="gr16" x1="0%" x2="100%" y1="0%" y2="100%"><stop offset="0%" stop-color="rgb(125,142,100)"/><stop offset="100%" stop-color="rgb(110,127,85)"/></linearGradient></defs><polygon id="triangle36" points="350,352 403,531 671,420" style="fill: url(#gr16); stroke: rgb(0, 0, 0); stroke-width: 0;"/><defs><linearGradient id="gr17" x1="0%" x2="100%" y1="0%" y2="100%"><stop offset="0%" stop-color="rgb(88,117,65)"/><stop offset="100%" stop-color="rgb(114,136,90)"/></linearGradient></defs><polygon id="triangle36" points="350,352 377,199 676,239" style="fill: url(#gr17); stroke: rgb(0, 0, 0); stroke-width: 0;"/><defs><linearGradient id="gr18" x1="0%" x2="100%" y1="0%" y2="100%"><stop offset="0%" stop-color="rgb(81,103,57)"/><stop offset="100%" stop-color="rgb(85,110,61)"/></linearGradient></defs><polygon id="triangle36" points="350,352 671,420 676,239" style="fill: url(#gr18); stroke: rgb(0, 0, 0); stroke-width: 0;"/><defs><linearGradient id="gr19" x1="0%" x2="100%" y1="0%" y2="100%"><stop offset="0%" stop-color="rgb(66,86,46)"/><stop offset="100%" stop-color="rgb(63,83,43)"/></linearGradient></defs><polygon id="triangle36" points="188,4 361,68 529,13" style="fill: url(#gr19); stroke: rgb(0, 0, 0); stroke-width: 0;"/><defs><linearGradient id="gr20" x1="0%" x2="100%" y1="0%" y2="100%"><stop offset="0%" stop-color="rgb(65,82,44)"/><stop offset="100%" stop-color="rgb(104,117,79)"/></linearGradient></defs><polygon id="triangle36" points="361,68 377,199 529,13" style="fill: url(#gr20); stroke: rgb(0, 0, 0); stroke-width: 0;"/><defs><linearGradient id="gr21" x1="0%" x2="100%" y1="0%" y2="100%"><stop offset="0%" stop-color="rgb(103,117,81)"/><stop offset="100%" stop-color="rgb(68,91,47)"/></linearGradient></defs><polygon id="triangle36" points="377,199 676,239 529,13" style="fill: url(#gr21); stroke: rgb(0, 0, 0); stroke-width: 0;"/><defs><linearGradient id="gr22" x1="0%" x2="100%" y1="0%" y2="100%"><stop offset="0%" stop-color="rgb(65,90,46)"/><stop offset="100%" stop-color="rgb(94,109,72)"/></linearGradient></defs><polygon id="triangle36" points="676,239 706,38 529,13" style="fill: url(#gr22); stroke: rgb(0, 0, 0); stroke-width: 0;"/><defs><linearGradient id="gr23" x1="0%" x2="100%" y1="0%" y2="100%"><stop offset="0%" stop-color="rgb(119,131,92)"/><stop offset="100%" stop-color="rgb(121,132,97)"/></linearGradient></defs><polygon id="triangle36" points="12,426 66,535 26,625" style="fill: url(#gr23); stroke: rgb(0, 0, 0); stroke-width: 0;"/><defs><linearGradient id="gr24" x1="0%" x2="100%" y1="0%" y2="100%"><stop offset="0%" stop-color="rgb(160,166,132)"/><stop offset="100%" stop-color="rgb(121,133,97)"/></linearGradient></defs><polygon id="triangle36" points="66,535 239,584 26,625" style="fill: url(#gr24); stroke: rgb(0, 0, 0); stroke-width: 0;"/><defs><linearGradient id="gr25" x1="0%" x2="100%" y1="0%" y2="100%"><stop offset="0%" stop-color="rgb(102,116,80)"/><stop offset="100%" stop-color="rgb(128,137,102)"/></linearGradient></defs><polygon id="triangle36" points="26,625 239,584 92,821" style="fill: url(#gr25); stroke: rgb(0, 0, 0); stroke-width: 0;"/><defs><linearGradient id="gr26" x1="0%" x2="100%" y1="0%" y2="100%"><stop offset="0%" stop-color="rgb(119,130,92)"/><stop offset="100%" stop-color="rgb(104,117,78)"/></linearGradient></defs><polygon id="triangle36" points="239,584 403,531 301,766" style="fill: url(#gr26); stroke: rgb(0, 0, 0); stroke-width: 0;"/><defs><linearGradient id="gr27" x1="0%" x2="100%" y1="0%" y2="100%"><stop offset="0%" stop-color="rgb(69,86,46)"/><stop offset="100%" stop-color="rgb(132,142,105)"/></linearGradient></defs><polygon id="triangle36" points="92,821 239,584 301,766" style="fill: url(#gr27); stroke: rgb(0, 0, 0); stroke-width: 0;"/><defs><linearGradient id="gr28" x1="0%" x2="100%" y1="0%" y2="100%"><stop offset="0%" stop-color="rgb(58,78,39)"/><stop offset="100%" stop-color="rgb(75,102,54)"/></linearGradient></defs><polygon id="triangle36" points="403,531 671,420 619,717" style="fill: url(#gr28); stroke: rgb(0, 0, 0); stroke-width: 0;"/><defs><linearGradient id="gr29" x1="0%" x2="100%" y1="0%" y2="100%"><stop offset="0%" stop-color="rgb(116,139,91)"/><stop offset="100%" stop-color="rgb(132,148,105)"/></linearGradient></defs><polygon id="triangle36" points="619,717 671,420 860,616" style="fill: url(#gr29); stroke: rgb(0, 0, 0); stroke-width: 0;"/><defs><linearGradient id="gr30" x1="0%" x2="100%" y1="0%" y2="100%"><stop offset="0%" stop-color="rgb(126,143,100)"/><stop offset="100%" stop-color="rgb(138,151,112)"/></linearGradient></defs><polygon id="triangle36" points="671,420 676,239 863,399" style="fill: url(#gr30); stroke: rgb(0, 0, 0); stroke-width: 0;"/><defs><linearGradient id="gr31" x1="0%" x2="100%" y1="0%" y2="100%"><stop offset="0%" stop-color="rgb(120,139,95)"/><stop offset="100%" stop-color="rgb(160,167,132)"/></linearGradient></defs><polygon id="triangle36" points="671,420 860,616 863,399" style="fill: url(#gr31); stroke: rgb(0, 0, 0); stroke-width: 0;"/><defs><linearGradient id="gr32" x1="0%" x2="100%" y1="0%" y2="100%"><stop offset="0%" stop-color="rgb(84,106,60)"/><stop offset="100%" stop-color="rgb(136,146,109)"/></linearGradient></defs><polygon id="triangle36" points="676,239 863,399 946,219" style="fill: url(#gr32); stroke: rgb(0, 0, 0); stroke-width: 0;"/><defs><linearGradient id="gr33" x1="0%" x2="100%" y1="0%" y2="100%"><stop offset="0%" stop-color="rgb(125,142,100)"/><stop offset="100%" stop-color="rgb(165,171,137)"/></linearGradient></defs><polygon id="triangle36" points="676,239 706,38 882,73" style="fill: url(#gr33); stroke: rgb(0, 0, 0); stroke-width: 0;"/><defs><linearGradient id="gr34" x1="0%" x2="100%" y1="0%" y2="100%"><stop offset="0%" stop-color="rgb(82,104,58)"/><stop offset="100%" stop-color="rgb(135,144,108)"/></linearGradient></defs><polygon id="triangle36" points="676,239 946,219 882,73" style="fill: url(#gr34); stroke: rgb(0, 0, 0); stroke-width: 0;"/><defs><linearGradient id="gr35" x1="0%" x2="100%" y1="0%" y2="100%"><stop offset="0%" stop-color="rgb(117,128,91)"/><stop offset="100%" stop-color="rgb(133,143,106)"/></linearGradient></defs><polygon id="triangle36" points="188,4 529,13 969,2" style="fill: url(#gr35); stroke: rgb(0, 0, 0); stroke-width: 0;"/><defs><linearGradient id="gr36" x1="0%" x2="100%" y1="0%" y2="100%"><stop offset="0%" stop-color="rgb(92,107,67)"/><stop offset="100%" stop-color="rgb(148,156,121)"/></linearGradient></defs><polygon id="triangle36" points="529,13 706,38 969,2" style="fill: url(#gr36); stroke: rgb(0, 0, 0); stroke-width: 0;"/><defs><linearGradient id="gr37" x1="0%" x2="100%" y1="0%" y2="100%"><stop offset="0%" stop-color="rgb(129,146,103)"/><stop offset="100%" stop-color="rgb(140,154,114)"/></linearGradient></defs><polygon id="triangle36" points="706,38 882,73 969,2" style="fill: url(#gr37); stroke: rgb(0, 0, 0); stroke-width: 0;"/><defs><linearGradient id="gr38" x1="0%" x2="100%" y1="0%" y2="100%"><stop offset="0%" stop-color="rgb(122,133,95)"/><stop offset="100%" stop-color="rgb(105,121,80)"/></linearGradient></defs><polygon id="triangle36" points="882,73 946,219 989,92" style="fill: url(#gr38); stroke: rgb(0, 0, 0); stroke-width: 0;"/><defs><linearGradient id="gr39" x1="0%" x2="100%" y1="0%" y2="100%"><stop offset="0%" stop-color="rgb(120,131,94)"/><stop offset="100%" stop-color="rgb(104,120,80)"/></linearGradient></defs><polygon id="triangle36" points="882,73 969,2 989,92" style="fill: url(#gr39); stroke: rgb(0, 0, 0); stroke-width: 0;"/><defs><linearGradient id="gr40" x1="0%" x2="100%" y1="0%" y2="100%"><stop offset="0%" stop-color="rgb(121,138,97)"/><stop offset="100%" stop-color="rgb(137,150,111)"/></linearGradient></defs><polygon id="triangle36" points="860,616 863,399 982,558" style="fill: url(#gr40); stroke: rgb(0, 0, 0); stroke-width: 0;"/><defs><linearGradient id="gr41" x1="0%" x2="100%" y1="0%" y2="100%"><stop offset="0%" stop-color="rgb(119,135,95)"/><stop offset="100%" stop-color="rgb(136,149,111)"/></linearGradient></defs><polygon id="triangle36" points="860,616 982,558 969,706" style="fill: url(#gr41); stroke: rgb(0, 0, 0); stroke-width: 0;"/><defs><linearGradient id="gr42" x1="0%" x2="100%" y1="0%" y2="100%"><stop offset="0%" stop-color="rgb(60,79,40)"/><stop offset="100%" stop-color="rgb(53,72,35)"/></linearGradient></defs><polygon id="triangle36" points="12,426 26,625 25,905" style="fill: url(#gr42); stroke: rgb(0, 0, 0); stroke-width: 0;"/><defs><linearGradient id="gr43" x1="0%" x2="100%" y1="0%" y2="100%"><stop offset="0%" stop-color="rgb(42,64,26)"/><stop offset="100%" stop-color="rgb(59,76,39)"/></linearGradient></defs><polygon id="triangle36" points="26,625 92,821 25,905" style="fill: url(#gr43); stroke: rgb(0, 0, 0); stroke-width: 0;"/><defs><linearGradient id="gr44" x1="0%" x2="100%" y1="0%" y2="100%"><stop offset="0%" stop-color="rgb(78,94,52)"/><stop offset="100%" stop-color="rgb(74,90,51)"/></linearGradient></defs><polygon id="triangle36" points="12,426 25,905 24,973" style="fill: url(#gr44); stroke: rgb(0, 0, 0); stroke-width: 0;"/><defs><linearGradient id="gr45" x1="0%" x2="100%" y1="0%" y2="100%"><stop offset="0%" stop-color="rgb(74,89,50)"/><stop offset="100%" stop-color="rgb(70,86,47)"/></linearGradient></defs><polygon id="triangle36" points="25,905 92,821 24,973" style="fill: url(#gr45); stroke: rgb(0, 0, 0); stroke-width: 0;"/><defs><linearGradient id="gr46" x1="0%" x2="100%" y1="0%" y2="100%"><stop offset="0%" stop-color="rgb(75,91,51)"/><stop offset="100%" stop-color="rgb(84,102,61)"/></linearGradient></defs><polygon id="triangle36" points="24,973 92,821 286,994" style="fill: url(#gr46); stroke: rgb(0, 0, 0); stroke-width: 0;"/><defs><linearGradient id="gr47" x1="0%" x2="100%" y1="0%" y2="100%"><stop offset="0%" stop-color="rgb(52,72,34)"/><stop offset="100%" stop-color="rgb(105,122,82)"/></linearGradient></defs><polygon id="triangle36" points="92,821 301,766 286,994" style="fill: url(#gr47); stroke: rgb(0, 0, 0); stroke-width: 0;"/><defs><linearGradient id="gr48" x1="0%" x2="100%" y1="0%" y2="100%"><stop offset="0%" stop-color="rgb(81,104,57)"/><stop offset="100%" stop-color="rgb(116,137,90)"/></linearGradient></defs><polygon id="triangle36" points="528,992 619,717 767,994" style="fill: url(#gr48); stroke: rgb(0, 0, 0); stroke-width: 0;"/><defs><linearGradient id="gr49" x1="0%" x2="100%" y1="0%" y2="100%"><stop offset="0%" stop-color="rgb(117,136,91)"/><stop offset="100%" stop-color="rgb(128,138,101)"/></linearGradient></defs><polygon id="triangle36" points="619,717 767,994 932,912" style="fill: url(#gr49); stroke: rgb(0, 0, 0); stroke-width: 0;"/><defs><linearGradient id="gr50" x1="0%" x2="100%" y1="0%" y2="100%"><stop offset="0%" stop-color="rgb(90,119,67)"/><stop offset="100%" stop-color="rgb(110,127,85)"/></linearGradient></defs><polygon id="triangle36" points="619,717 860,616 932,912" style="fill: url(#gr50); stroke: rgb(0, 0, 0); stroke-width: 0;"/><defs><linearGradient id="gr51" x1="0%" x2="100%" y1="0%" y2="100%"><stop offset="0%" stop-color="rgb(121,133,95)"/><stop offset="100%" stop-color="rgb(108,122,82)"/></linearGradient></defs><polygon id="triangle36" points="860,616 969,706 932,912" style="fill: url(#gr51); stroke: rgb(0, 0, 0); stroke-width: 0;"/><defs><linearGradient id="gr52" x1="0%" x2="100%" y1="0%" y2="100%"><stop offset="0%" stop-color="rgb(104,118,82)"/><stop offset="100%" stop-color="rgb(55,75,36)"/></linearGradient></defs><polygon id="triangle36" points="767,994 932,912 994,983" style="fill: url(#gr52); stroke: rgb(0, 0, 0); stroke-width: 0;"/><defs><linearGradient id="gr53" x1="0%" x2="100%" y1="0%" y2="100%"><stop offset="0%" stop-color="rgb(119,131,92)"/><stop offset="100%" stop-color="rgb(123,134,100)"/></linearGradient></defs><polygon id="triangle36" points="932,912 969,706 994,983" style="fill: url(#gr53); stroke: rgb(0, 0, 0); stroke-width: 0;"/><defs><linearGradient id="gr54" x1="0%" x2="100%" y1="0%" y2="100%"><stop offset="0%" stop-color="rgb(127,144,102)"/><stop offset="100%" stop-color="rgb(98,117,76)"/></linearGradient></defs><polygon id="triangle36" points="969,706 982,558 994,983" style="fill: url(#gr54); stroke: rgb(0, 0, 0); stroke-width: 0;"/><defs><linearGradient id="gr55" x1="0%" x2="100%" y1="0%" y2="100%"><stop offset="0%" stop-color="rgb(164,170,136)"/><stop offset="100%" stop-color="rgb(135,145,108)"/></linearGradient></defs><polygon id="triangle36" points="863,399 946,219 995,318" style="fill: url(#gr55); stroke: rgb(0, 0, 0); stroke-width: 0;"/><defs><linearGradient id="gr56" x1="0%" x2="100%" y1="0%" y2="100%"><stop offset="0%" stop-color="rgb(165,171,137)"/><stop offset="100%" stop-color="rgb(137,147,110)"/></linearGradient></defs><polygon id="triangle36" points="863,399 982,558 995,318" style="fill: url(#gr56); stroke: rgb(0, 0, 0); stroke-width: 0;"/><defs><linearGradient id="gr57" x1="0%" x2="100%" y1="0%" y2="100%"><stop offset="0%" stop-color="rgb(165,171,137)"/><stop offset="100%" stop-color="rgb(105,121,81)"/></linearGradient></defs><polygon id="triangle36" points="946,219 989,92 995,318" style="fill: url(#gr57); stroke: rgb(0, 0, 0); stroke-width: 0;"/><defs><linearGradient id="gr58" x1="0%" x2="100%" y1="0%" y2="100%"><stop offset="0%" stop-color="rgb(131,149,105)"/><stop offset="100%" stop-color="rgb(71,94,50)"/></linearGradient></defs><polygon id="triangle36" points="982,558 994,983 995,318" style="fill: url(#gr58); stroke: rgb(0, 0, 0); stroke-width: 0;"/><defs><linearGradient id="gr59" x1="0%" x2="100%" y1="0%" y2="100%"><stop offset="0%" stop-color="rgb(91,115,69)"/><stop offset="100%" stop-color="rgb(107,127,83)"/></linearGradient></defs><polygon id="triangle36" points="286,994 301,766 460,737" style="fill: url(#gr59); stroke: rgb(0, 0, 0); stroke-width: 0;"/><defs><linearGradient id="gr60" x1="0%" x2="100%" y1="0%" y2="100%"><stop offset="0%" stop-color="rgb(95,113,70)"/><stop offset="100%" stop-color="rgb(80,100,56)"/></linearGradient></defs><polygon id="triangle36" points="286,994 528,992 460,737" style="fill: url(#gr60); stroke: rgb(0, 0, 0); stroke-width: 0;"/><defs><linearGradient id="gr61" x1="0%" x2="100%" y1="0%" y2="100%"><stop offset="0%" stop-color="rgb(125,142,100)"/><stop offset="100%" stop-color="rgb(86,111,62)"/></linearGradient></defs><polygon id="triangle36" points="301,766 403,531 460,737" style="fill: url(#gr61); stroke: rgb(0, 0, 0); stroke-width: 0;"/><defs><linearGradient id="gr62" x1="0%" x2="100%" y1="0%" y2="100%"><stop offset="0%" stop-color="rgb(83,106,60)"/><stop offset="100%" stop-color="rgb(92,121,68)"/></linearGradient></defs><polygon id="triangle36" points="403,531 619,717 460,737" style="fill: url(#gr62); stroke: rgb(0, 0, 0); stroke-width: 0;"/><defs><linearGradient id="gr63" x1="0%" x2="100%" y1="0%" y2="100%"><stop offset="0%" stop-color="rgb(84,107,58)"/><stop offset="100%" stop-color="rgb(94,124,68)"/></linearGradient></defs><polygon id="triangle36" points="528,992 619,717 460,737" style="fill: url(#gr63); stroke: rgb(0, 0, 0); stroke-width: 0;"/></svg>