<svg xmlns="http://www.w3.org/2000/svg" width="1000" height="1000" version="1.1"><defs><linearGradient id="gr0" x1="0%" x2="100%" y1="0%" y2="100%"><stop offset="0%" stop-color="rgb(250,178,53)"/><stop offset="100%" stop-color="rgb(245,171,37)"/></linearGradient></defs><polygon id="triangle36" points="13,8 244,58 94,107" style="fill: url(#gr0); stroke: rgb(0, 0, 0); stroke-width: 0;"/><defs><linearGradient id="gr1" x1="0%" x2="100%" y1="0%" y2="100%"><stop offset="0%" stop-color="rgb(246,171,39)"/><stop offset="100%" stop-color="rgb(246,177,50)"/></linearGradient></defs><polygon id="triangle36" points="13,8 34,270 94,107" style="fill: url(#gr1); stroke: rgb(0, 0, 0); stroke-width: 0;"/><defs><linearGradient id="gr2" x1="0%" x2="100%" y1="0%" y2="100%"><stop offset="0%" stop-color="rgb(241,164,24)"/><stop offset="100%" stop-color="rgb(239,161,19)"/></linearGradient></defs><polygon id="triangle36" points="191,241 244,58 94,107" style="fill: url(#gr2); stroke: rgb(0, 0, 0); stroke-width: 0;"/><defs><linearGradient id="gr3" x1="0%" x2="100%" y1="0%" y2="100%"><stop offset="0%" stop-color="rgb(250,186,66)"/><stop offset="100%" stop-color="rgb(243,169,36)"/></linearGradient></defs><polygon id="triangle36" points="34,270 191,241 94,107" style="fill: url(#gr3); stroke: rgb(0, 0, 0); stroke-width: 0;"/><defs><linearGradient id="gr4" x1="0%" x2="100%" y1="0%" y2="100%"><stop offset="0%" stop-color="rgb(248,175,38)"/><stop offset="100%" stop-color="rgb(246,173,34)"/></linearGradient></defs><polygon id="triangle36" points="191,241 244,58 396,220" style="fill: url(#gr4); stroke: rgb(0, 0, 0); stroke-width: 0;"/><defs><linearGradient id="gr5" x1="0%" x2="100%" y1="0%" y2="100%"><stop offset="0%" stop-color="rgb(240,162,18)"/><stop offset="100%" stop-color="rgb(239,160,25)"/></linearGradient></defs><polygon id="triangle36" points="244,58 381,76 396,220" style="fill: url(#gr5); stroke: rgb(0, 0, 0); stroke-width: 0;"/><defs><linearGradient id="gr6" x1="0%" x2="100%" y1="0%" y2="100%"><stop offset="0%" stop-color="rgb(250,181,51)"/><stop offset="100%" stop-color="rgb(245,173,36)"/></linearGradient></defs><polygon id="triangle36" points="191,241 396,220 355,407" style="fill: url(#gr6); stroke: rgb(0, 0, 0); stroke-width: 0;"/><defs><linearGradient id="gr7" x1="0%" x2="100%" y1="0%" y2="100%"><stop offset="0%" stop-color="rgb(249,187,61)"/><stop offset="100%" stop-color="rgb(247,186,54)"/></linearGradient></defs><polygon id="triangle36" points="191,241 355,407 205,470" style="fill: url(#gr7); stroke: rgb(0, 0, 0); stroke-width: 0;"/><defs><linearGradient id="gr8" x1="0%" x2="100%" y1="0%" y2="100%"><stop offset="0%" stop-color="rgb(241,164,19)"/><stop offset="100%" stop-color="rgb(240,167,26)"/></linearGradient></defs><polygon id="triangle36" points="191,241 205,470 51,459" style="fill: url(#gr8); stroke: rgb(0, 0, 0); stroke-width: 0;"/><defs><linearGradient id="gr9" x1="0%" x2="100%" y1="0%" y2="100%"><stop offset="0%" stop-color="rgb(254,191,71)"/><stop offset="100%" stop-color="rgb(243,167,31)"/></linearGradient></defs><polygon id="triangle36" points="34,270 191,241 51,459" style="fill: url(#gr9); stroke: rgb(0, 0, 0); stroke-width: 0;"/><defs><linearGradient id="gr10" x1="0%" x2="100%" y1="0%" y2="100%"><stop offset="0%" stop-color="rgb(249,182,60)"/><stop offset="100%" stop-color="rgb(248,184,63)"/></linearGradient></defs><polygon id="triangle36" points="13,8 34,270 8,543" style="fill: url(#gr10); stroke: rgb(0, 0, 0); stroke-width: 0;"/><defs><linearGradient id="gr11" x1="0%" x2="100%" y1="0%" y2="100%"><stop offset="0%" stop-color="rgb(242,172,45)"/><stop offset="100%" stop-color="rgb(233,150,8)"/></linearGradient></defs><polygon id="triangle36" points="34,270 51,459 8,543" style="fill: url(#gr11); stroke: rgb(0, 0, 0); stroke-width: 0;"/><defs><linearGradient id="gr12" x1="0%" x2="100%" y1="0%" y2="100%"><stop offset="0%" stop-color="rgb(227,142,0)"/><stop offset="100%" stop-color="rgb(243,182,58)"/></linearGradient></defs><polygon id="triangle36" points="51,459 205,470 135,659" style="fill: url(#gr12); stroke: rgb(0, 0, 0); stroke-width: 0;"/><defs><linearGradient id="gr13" x1="0%" x2="100%" y1="0%" y2="100%"><stop offset="0%" stop-color="rgb(237,159,18)"/><stop offset="100%" stop-color="rgb(239,169,36)"/></linearGradient></defs><polygon id="triangle36" points="8,543 51,459 135,659" style="fill: url(#gr13); stroke: rgb(0, 0, 0); stroke-width: 0;"/><defs><linearGradient id="gr14" x1="0%" x2="100%" y1="0%" y2="100%"><stop offset="0%" stop-color="rgb(234,166,49)"/><stop offset="100%" stop-color="rgb(229,154,27)"/></linearGradient></defs><polygon id="triangle36" points="135,659 205,470 380,660" style="fill: url(#gr14); stroke: rgb(0, 0, 0); stroke-width: 0;"/><defs><linearGradient id="gr15" x1="0%" x2="100%" y1="0%" y2="100%"><stop offset="0%" stop-color="rgb(242,175,39)"/><stop offset="100%" stop-color="rgb(229,148,0)"/></linearGradient></defs><polygon id="triangle36" points="205,470 355,407 380,660" style="fill: url(#gr15); stroke: rgb(0, 0, 0); stroke-width: 0;"/><defs><linearGradient id="gr16" x1="0%" x2="100%" y1="0%" y2="100%"><stop offset="0%" stop-color="rgb(234,155,4)"/><stop offset="100%" stop-color="rgb(226,143,2)"/></linearGradient></defs><polygon id="triangle36" points="355,407 380,660 531,575" style="fill: url(#gr16); stroke: rgb(0, 0, 0); stroke-width: 0;"/><defs><linearGradient id="gr17" x1="0%" x2="100%" y1="0%" y2="100%"><stop offset="0%" stop-color="rgb(232,150,11)"/><stop offset="100%" stop-color="rgb(241,164,27)"/></linearGradient></defs><polygon id="triangle36" points="381,76 396,220 601,70" style="fill: url(#gr17); stroke: rgb(0, 0, 0); stroke-width: 0;"/><defs><linearGradient id="gr18" x1="0%" x2="100%" y1="0%" y2="100%"><stop offset="0%" stop-color="rgb(245,170,35)"/><stop offset="100%" stop-color="rgb(244,169,28)"/></linearGradient></defs><polygon id="triangle36" points="396,220 643,159 601,70" style="fill: url(#gr18); stroke: rgb(0, 0, 0); stroke-width: 0;"/><defs><linearGradient id="gr19" x1="0%" x2="100%" y1="0%" y2="100%"><stop offset="0%" stop-color="rgb(242,164,30)"/><stop offset="100%" stop-color="rgb(235,155,14)"/></linearGradient></defs><polygon id="triangle36" points="13,8 244,58 415,8" style="fill: url(#gr19); stroke: rgb(0, 0, 0); stroke-width: 0;"/><defs><linearGradient id="gr20" x1="0%" x2="100%" y1="0%" y2="100%"><stop offset="0%" stop-color="rgb(236,158,12)"/><stop offset="100%" stop-color="rgb(229,146,7)"/></linearGradient></defs><polygon id="triangle36" points="244,58 381,76 415,8" style="fill: url(#gr20); stroke: rgb(0, 0, 0); stroke-width: 0;"/><defs><linearGradient id="gr21" x1="0%" x2="100%" y1="0%" y2="100%"><stop offset="0%" stop-color="rgb(232,150,11)"/><stop offset="100%" stop-color="rgb(233,154,13)"/></linearGradient></defs><polygon id="triangle36" points="381,76 601,70 415,8" style="fill: url(#gr21); stroke: rgb(0, 0, 0); stroke-width: 0;"/><defs><linearGradient id="gr22" x1="0%" x2="100%" y1="0%" y2="100%"><stop offset="0%" stop-color="rgb(230,149,12)"/><stop offset="100%" stop-color="rgb(239,164,31)"/></linearGradient></defs><polygon id="triangle36" points="415,8 601,70 680,7" style="fill: url(#gr22); stroke: rgb(0, 0, 0); stroke-width: 0;"/><defs><linearGradient id="gr23" x1="0%" x2="100%" y1="0%" y2="100%"><stop offset="0%" stop-color="rgb(246,173,36)"/><stop offset="100%" stop-color="rgb(243,168,33)"/></linearGradient></defs><polygon id="triangle36" points="601,70 643,159 680,7" style="fill: url(#gr23); stroke: rgb(0, 0, 0); stroke-width: 0;"/><defs><linearGradient id="gr24" x1="0%" x2="100%" y1="0%" y2="100%"><stop offset="0%" stop-color="rgb(246,170,28)"/><stop offset="100%" stop-color="rgb(242,165,28)"/></linearGradient></defs><polygon id="triangle36" points="643,159 680,7 819,27" style="fill: url(#gr24); stroke: rgb(0, 0, 0); stroke-width: 0;"/><defs><linearGradient id="gr25" x1="0%" x2="100%" y1="0%" y2="100%"><stop offset="0%" stop-color="rgb(244,167,21)"/><stop offset="100%" stop-color="rgb(244,169,25)"/></linearGradient></defs><polygon id="triangle36" points="643,159 644,295 859,135" style="fill: url(#gr25); stroke: rgb(0, 0, 0); stroke-width: 0;"/><defs><linearGradient id="gr26" x1="0%" x2="100%" y1="0%" y2="100%"><stop offset="0%" stop-color="rgb(246,170,20)"/><stop offset="100%" stop-color="rgb(248,173,28)"/></linearGradient></defs><polygon id="triangle36" points="643,159 819,27 859,135" style="fill: url(#gr26); stroke: rgb(0, 0, 0); stroke-width: 0;"/><defs><linearGradient id="gr27" x1="0%" x2="100%" y1="0%" y2="100%"><stop offset="0%" stop-color="rgb(233,150,1)"/><stop offset="100%" stop-color="rgb(240,165,18)"/></linearGradient></defs><polygon id="triangle36" points="644,295 859,135 895,336" style="fill: url(#gr27); stroke: rgb(0, 0, 0); stroke-width: 0;"/><defs><linearGradient id="gr28" x1="0%" x2="100%" y1="0%" y2="100%"><stop offset="0%" stop-color="rgb(252,184,52)"/><stop offset="100%" stop-color="rgb(243,169,28)"/></linearGradient></defs><polygon id="triangle36" points="613,444 644,295 837,477" style="fill: url(#gr28); stroke: rgb(0, 0, 0); stroke-width: 0;"/><defs><linearGradient id="gr29" x1="0%" x2="100%" y1="0%" y2="100%"><stop offset="0%" stop-color="rgb(235,155,10)"/><stop offset="100%" stop-color="rgb(236,160,15)"/></linearGradient></defs><polygon id="triangle36" points="644,295 895,336 837,477" style="fill: url(#gr29); stroke: rgb(0, 0, 0); stroke-width: 0;"/><defs><linearGradient id="gr30" x1="0%" x2="100%" y1="0%" y2="100%"><stop offset="0%" stop-color="rgb(230,149,5)"/><stop offset="100%" stop-color="rgb(238,161,19)"/></linearGradient></defs><polygon id="triangle36" points="531,575 613,444 794,609" style="fill: url(#gr30); stroke: rgb(0, 0, 0); stroke-width: 0;"/><defs><linearGradient id="gr31" x1="0%" x2="100%" y1="0%" y2="100%"><stop offset="0%" stop-color="rgb(239,163,24)"/><stop offset="100%" stop-color="rgb(232,153,9)"/></linearGradient></defs><polygon id="triangle36" points="613,444 837,477 794,609" style="fill: url(#gr31); stroke: rgb(0, 0, 0); stroke-width: 0;"/><defs><linearGradient id="gr32" x1="0%" x2="100%" y1="0%" y2="100%"><stop offset="0%" stop-color="rgb(220,135,0)"/><stop offset="100%" stop-color="rgb(233,162,35)"/></linearGradient></defs><polygon id="triangle36" points="531,575 794,609 661,715" style="fill: url(#gr32); stroke: rgb(0, 0, 0); stroke-width: 0;"/><defs><linearGradient id="gr33" x1="0%" x2="100%" y1="0%" y2="100%"><stop offset="0%" stop-color="rgb(223,140,0)"/><stop offset="100%" stop-color="rgb(234,156,22)"/></linearGradient></defs><polygon id="triangle36" points="380,660 531,575 535,805" style="fill: url(#gr33); stroke: rgb(0, 0, 0); stroke-width: 0;"/><defs><linearGradient id="gr34" x1="0%" x2="100%" y1="0%" y2="100%"><stop offset="0%" stop-color="rgb(223,140,1)"/><stop offset="100%" stop-color="rgb(243,178,57)"/></linearGradient></defs><polygon id="triangle36" points="531,575 661,715 535,805" style="fill: url(#gr34); stroke: rgb(0, 0, 0); stroke-width: 0;"/><defs><linearGradient id="gr35" x1="0%" x2="100%" y1="0%" y2="100%"><stop offset="0%" stop-color="rgb(236,170,48)"/><stop offset="100%" stop-color="rgb(222,137,0)"/></linearGradient></defs><polygon id="triangle36" points="135,659 380,660 358,865" style="fill: url(#gr35); stroke: rgb(0, 0, 0); stroke-width: 0;"/><defs><linearGradient id="gr36" x1="0%" x2="100%" y1="0%" y2="100%"><stop offset="0%" stop-color="rgb(227,148,8)"/><stop offset="100%" stop-color="rgb(238,161,27)"/></linearGradient></defs><polygon id="triangle36" points="380,660 535,805 358,865" style="fill: url(#gr36); stroke: rgb(0, 0, 0); stroke-width: 0;"/><defs><linearGradient id="gr37" x1="0%" x2="100%" y1="0%" y2="100%"><stop offset="0%" stop-color="rgb(245,189,69)"/><stop offset="100%" stop-color="rgb(230,153,18)"/></linearGradient></defs><polygon id="triangle36" points="135,659 358,865 192,897" style="fill: url(#gr37); stroke: rgb(0, 0, 0); stroke-width: 0;"/><defs><linearGradient id="gr38" x1="0%" x2="100%" y1="0%" y2="100%"><stop offset="0%" stop-color="rgb(247,190,73)"/><stop offset="100%" stop-color="rgb(240,175,52)"/></linearGradient></defs><polygon id="triangle36" points="135,659 192,897 75,857" style="fill: url(#gr38); stroke: rgb(0, 0, 0); stroke-width: 0;"/><defs><linearGradient id="gr39" x1="0%" x2="100%" y1="0%" y2="100%"><stop offset="0%" stop-color="rgb(254,201,89)"/><stop offset="100%" stop-color="rgb(253,202,90)"/></linearGradient></defs><polygon id="triangle36" points="75,857 135,659 27,765" style="fill: url(#gr39); stroke: rgb(0, 0, 0); stroke-width: 0;"/><defs><linearGradient id="gr40" x1="0%" x2="100%" y1="0%" y2="100%"><stop offset="0%" stop-color="rgb(240,166,32)"/><stop offset="100%" stop-color="rgb(249,193,76)"/></linearGradient></defs><polygon id="triangle36" points="8,543 135,659 27,765" style="fill: url(#gr40); stroke: rgb(0, 0, 0); stroke-width: 0;"/><defs><linearGradient id="gr41" x1="0%" x2="100%" y1="0%" y2="100%"><stop offset="0%" stop-color="rgb(254,202,91)"/><stop offset="100%" stop-color="rgb(246,186,67)"/></linearGradient></defs><polygon id="triangle36" points="27,765 75,857 2,997" style="fill: url(#gr41); stroke: rgb(0, 0, 0); stroke-width: 0;"/><defs><linearGradient id="gr42" x1="0%" x2="100%" y1="0%" y2="100%"><stop offset="0%" stop-color="rgb(246,183,58)"/><stop offset="100%" stop-color="rgb(246,186,66)"/></linearGradient></defs><polygon id="triangle36" points="8,543 27,765 2,997" style="fill: url(#gr42); stroke: rgb(0, 0, 0); stroke-width: 0;"/><defs><linearGradient id="gr43" x1="0%" x2="100%" y1="0%" y2="100%"><stop offset="0%" stop-color="rgb(226,149,8)"/><stop offset="100%" stop-color="rgb(227,146,1)"/></linearGradient></defs><polygon id="triangle36" points="192,897 358,865 208,986" style="fill: url(#gr43); stroke: rgb(0, 0, 0); stroke-width: 0;"/><defs><linearGradient id="gr44" x1="0%" x2="100%" y1="0%" y2="100%"><stop offset="0%" stop-color="rgb(231,152,10)"/><stop offset="100%" stop-color="rgb(237,167,34)"/></linearGradient></defs><polygon id="triangle36" points="2,997 75,857 208,986" style="fill: url(#gr44); stroke: rgb(0, 0, 0); stroke-width: 0;"/><defs><linearGradient id="gr45" x1="0%" x2="100%" y1="0%" y2="100%"><stop offset="0%" stop-color="rgb(238,173,48)"/><stop offset="100%" stop-color="rgb(225,146,4)"/></linearGradient></defs><polygon id="triangle36" points="75,857 192,897 208,986" style="fill: url(#gr45); stroke: rgb(0, 0, 0); stroke-width: 0;"/><defs><linearGradient id="gr46" x1="0%" x2="100%" y1="0%" y2="100%"><stop offset="0%" stop-color="rgb(236,158,27)"/><stop offset="100%" stop-color="rgb(239,165,40)"/></linearGradient></defs><polygon id="triangle36" points="358,865 535,805 476,972" style="fill: url(#gr46); stroke: rgb(0, 0, 0); stroke-width: 0;"/><defs><linearGradient id="gr47" x1="0%" x2="100%" y1="0%" y2="100%"><stop offset="0%" stop-color="rgb(220,136,1)"/><stop offset="100%" stop-color="rgb(230,148,22)"/></linearGradient></defs><polygon id="triangle36" points="476,972 535,805 639,915" style="fill: url(#gr47); stroke: rgb(0, 0, 0); stroke-width: 0;"/><defs><linearGradient id="gr48" x1="0%" x2="100%" y1="0%" y2="100%"><stop offset="0%" stop-color="rgb(248,180,52)"/><stop offset="100%" stop-color="rgb(237,170,49)"/></linearGradient></defs><polygon id="triangle36" points="535,805 661,715 639,915" style="fill: url(#gr48); stroke: rgb(0, 0, 0); stroke-width: 0;"/><defs><linearGradient id="gr49" x1="0%" x2="100%" y1="0%" y2="100%"><stop offset="0%" stop-color="rgb(234,176,70)"/><stop offset="100%" stop-color="rgb(254,217,118)"/></linearGradient></defs><polygon id="triangle36" points="639,915 661,715 759,863" style="fill: url(#gr49); stroke: rgb(0, 0, 0); stroke-width: 0;"/><defs><linearGradient id="gr50" x1="0%" x2="100%" y1="0%" y2="100%"><stop offset="0%" stop-color="rgb(251,204,93)"/><stop offset="100%" stop-color="rgb(244,185,63)"/></linearGradient></defs><polygon id="triangle36" points="661,715 794,609 759,863" style="fill: url(#gr50); stroke: rgb(0, 0, 0); stroke-width: 0;"/><defs><linearGradient id="gr51" x1="0%" x2="100%" y1="0%" y2="100%"><stop offset="0%" stop-color="rgb(254,207,102)"/><stop offset="100%" stop-color="rgb(242,173,46)"/></linearGradient></defs><polygon id="triangle36" points="759,863 794,609 926,779" style="fill: url(#gr51); stroke: rgb(0, 0, 0); stroke-width: 0;"/><defs><linearGradient id="gr52" x1="0%" x2="100%" y1="0%" y2="100%"><stop offset="0%" stop-color="rgb(224,141,0)"/><stop offset="100%" stop-color="rgb(226,144,8)"/></linearGradient></defs><polygon id="triangle36" points="794,609 837,477 994,649" style="fill: url(#gr52); stroke: rgb(0, 0, 0); stroke-width: 0;"/><defs><linearGradient id="gr53" x1="0%" x2="100%" y1="0%" y2="100%"><stop offset="0%" stop-color="rgb(224,139,0)"/><stop offset="100%" stop-color="rgb(228,144,14)"/></linearGradient></defs><polygon id="triangle36" points="794,609 926,779 994,649" style="fill: url(#gr53); stroke: rgb(0, 0, 0); stroke-width: 0;"/><defs><linearGradient id="gr54" x1="0%" x2="100%" y1="0%" y2="100%"><stop offset="0%" stop-color="rgb(238,164,21)"/><stop offset="100%" stop-color="rgb(235,156,7)"/></linearGradient></defs><polygon id="triangle36" points="837,477 895,336 985,435" style="fill: url(#gr54); stroke: rgb(0, 0, 0); stroke-width: 0;"/><defs><linearGradient id="gr55" x1="0%" x2="100%" y1="0%" y2="100%"><stop offset="0%" stop-color="rgb(233,156,14)"/><stop offset="100%" stop-color="rgb(227,142,2)"/></linearGradient></defs><polygon id="triangle36" points="837,477 994,649 985,435" style="fill: url(#gr55); stroke: rgb(0, 0, 0); stroke-width: 0;"/><defs><linearGradient id="gr56" x1="0%" x2="100%" y1="0%" y2="100%"><stop offset="0%" stop-color="rgb(249,176,35)"/><stop offset="100%" stop-color="rgb(239,158,6)"/></linearGradient></defs><polygon id="triangle36" points="859,135 895,336 996,239" style="fill: url(#gr56); stroke: rgb(0, 0, 0); stroke-width: 0;"/><defs><linearGradient id="gr57" x1="0%" x2="100%" y1="0%" y2="100%"><stop offset="0%" stop-color="rgb(243,166,15)"/><stop offset="100%" stop-color="rgb(240,160,12)"/></linearGradient></defs><polygon id="triangle36" points="895,336 985,435 996,239" style="fill: url(#gr57); stroke: rgb(0, 0, 0); stroke-width: 0;"/><defs><linearGradient id="gr58" x1="0%" x2="100%" y1="0%" y2="100%"><stop offset="0%" stop-color="rgb(232,150,2)"/><stop offset="100%" stop-color="rgb(230,146,1)"/></linearGradient></defs><polygon id="triangle36" points="985,435 994,649 996,239" style="fill: url(#gr58); stroke: rgb(0, 0, 0); stroke-width: 0;"/><defs><linearGradient id="gr59" x1="0%" x2="100%" y1="0%" y2="100%"><stop offset="0%" stop-color="rgb(254,186,54)"/><stop offset="100%" stop-color="rgb(245,169,32)"/></linearGradient></defs><polygon id="triangle36" points="859,135 996,239 996,89" style="fill: url(#gr59); stroke: rgb(0, 0, 0); stroke-width: 0;"/><defs><linearGradient id="gr60" x1="0%" x2="100%" y1="0%" y2="100%"><stop offset="0%" stop-color="rgb(240,162,29)"/><stop offset="100%" stop-color="rgb(243,165,23)"/></linearGradient></defs><polygon id="triangle36" points="680,7 819,27 981,13" style="fill: url(#gr60); stroke: rgb(0, 0, 0); stroke-width: 0;"/><defs><linearGradient id="gr61" x1="0%" x2="100%" y1="0%" y2="100%"><stop offset="0%" stop-color="rgb(243,164,14)"/><stop offset="100%" stop-color="rgb(249,177,36)"/></linearGradient></defs><polygon id="triangle36" points="819,27 859,135 981,13" style="fill: url(#gr61); stroke: rgb(0, 0, 0); stroke-width: 0;"/><defs><linearGradient id="gr62" x1="0%" x2="100%" y1="0%" y2="100%"><stop offset="0%" stop-color="rgb(252,184,47)"/><stop offset="100%" stop-color="rgb(247,174,38)"/></linearGradient></defs><polygon id="triangle36" points="859,135 996,89 981,13" style="fill: url(#gr62); stroke: rgb(0, 0, 0); stroke-width: 0;"/><defs><linearGradient id="gr63" x1="0%" x2="100%" y1="0%" y2="100%"><stop offset="0%" stop-color="rgb(238,160,24)"/><stop offset="100%" stop-color="rgb(226,140,1)"/></linearGradient></defs><polygon id="triangle36" points="926,779 994,649 997,982" style="fill: url(#gr63); stroke: rgb(0, 0, 0); stroke-width: 0;"/><defs><linearGradient id="gr64" x1="0%" x2="100%" y1="0%" y2="100%"><stop offset="0%" stop-color="rgb(254,215,119)"/><stop offset="100%" stop-color="rgb(236,171,57)"/></linearGradient></defs><polygon id="triangle36" points="759,863 926,779 849,991" style="fill: url(#gr64); stroke: rgb(0, 0, 0); stroke-width: 0;"/><defs><linearGradient id="gr65" x1="0%" x2="100%" y1="0%" y2="100%"><stop offset="0%" stop-color="rgb(239,164,36)"/><stop offset="100%" stop-color="rgb(224,141,9)"/></linearGradient></defs><polygon id="triangle36" points="926,779 997,982 849,991" style="fill: url(#gr65); stroke: rgb(0, 0, 0); stroke-width: 0;"/><defs><linearGradient id="gr66" x1="0%" x2="100%" y1="0%" y2="100%"><stop offset="0%" stop-color="rgb(216,130,1)"/><stop offset="100%" stop-color="rgb(214,124,1)"/></linearGradient></defs><polygon id="triangle36" points="476,972 639,915 619,991" style="fill: url(#gr66); stroke: rgb(0, 0, 0); stroke-width: 0;"/><defs><linearGradient id="gr67" x1="0%" x2="100%" y1="0%" y2="100%"><stop offset="0%" stop-color="rgb(228,148,7)"/><stop offset="100%" stop-color="rgb(224,141,0)"/></linearGradient></defs><polygon id="triangle36" points="2,997 208,986 356,992" style="fill: url(#gr67); stroke: rgb(0, 0, 0); stroke-width: 0;"/><defs><linearGradient id="gr68" x1="0%" x2="100%" y1="0%" y2="100%"><stop offset="0%" stop-color="rgb(224,143,0)"/><stop offset="100%" stop-color="rgb(222,137,0)"/></linearGradient></defs><polygon id="triangle36" points="208,986 358,865 356,992" style="fill: url(#gr68); stroke: rgb(0, 0, 0); stroke-width: 0;"/><defs><linearGradient id="gr69" x1="0%" x2="100%" y1="0%" y2="100%"><stop offset="0%" stop-color="rgb(226,141,0)"/><stop offset="100%" stop-color="rgb(221,137,0)"/></linearGradient></defs><polygon id="triangle36" points="358,865 476,972 356,992" style="fill: url(#gr69); stroke: rgb(0, 0, 0); stroke-width: 0;"/><defs><linearGradient id="gr70" x1="0%" x2="100%" y1="0%" y2="100%"><stop offset="0%" stop-color="rgb(218,134,0)"/><stop offset="100%" stop-color="rgb(217,130,0)"/></linearGradient></defs><polygon id="triangle36" points="476,972 619,991 356,992" style="fill: url(#gr70); stroke: rgb(0, 0, 0); stroke-width: 0;"/><defs><linearGradient id="gr71" x1="0%" x2="100%" y1="0%" y2="100%"><stop offset="0%" stop-color="rgb(214,124,1)"/><stop offset="100%" stop-color="rgb(213,123,0)"/></linearGradient></defs><polygon id="triangle36" points="619,991 639,915 716,992" style="fill: url(#gr71); stroke: rgb(0, 0, 0); stroke-width: 0;"/><defs><linearGradient id="gr72" x1="0%" x2="100%" y1="0%" y2="100%"><stop offset="0%" stop-color="rgb(214,126,1)"/><stop offset="100%" stop-color="rgb(226,154,37)"/></linearGradient></defs><polygon id="triangle36" points="639,915 759,863 716,992" style="fill: url(#gr72); stroke: rgb(0, 0, 0); stroke-width: 0;"/><defs><linearGradient id="gr73" x1="0%" x2="100%" y1="0%" y2="100%"><stop offset="0%" stop-color="rgb(239,177,55)"/><stop offset="100%" stop-color="rgb(216,129,0)"/></linearGradient></defs><polygon id="triangle36" points="759,863 849,991 716,992" style="fill: url(#gr73); stroke: rgb(0, 0, 0); stroke-width: 0;"/><defs><linearGradient id="gr74" x1="0%" x2="100%" y1="0%" y2="100%"><stop offset="0%" stop-color="rgb(240,165,18)"/><stop offset="100%" stop-color="rgb(246,173,37)"/></linearGradient></defs><polygon id="triangle36" points="355,407 396,220 491,353" style="fill: url(#gr74); stroke: rgb(0, 0, 0); stroke-width: 0;"/><defs><linearGradient id="gr75" x1="0%" x2="100%" y1="0%" y2="100%"><stop offset="0%" stop-color="rgb(242,168,25)"/><stop offset="100%" stop-color="rgb(239,164,27)"/></linearGradient></defs><polygon id="triangle36" points="355,407 531,575 491,353" style="fill: url(#gr75); stroke: rgb(0, 0, 0); stroke-width: 0;"/><defs><linearGradient id="gr76" x1="0%" x2="100%" y1="0%" y2="100%"><stop offset="0%" stop-color="rgb(238,160,21)"/><stop offset="100%" stop-color="rgb(240,163,19)"/></linearGradient></defs><polygon id="triangle36" points="396,220 643,159 491,353" style="fill: url(#gr76); stroke: rgb(0, 0, 0); stroke-width: 0;"/><defs><linearGradient id="gr77" x1="0%" x2="100%" y1="0%" y2="100%"><stop offset="0%" stop-color="rgb(230,154,16)"/><stop offset="100%" stop-color="rgb(244,173,37)"/></linearGradient></defs><polygon id="triangle36" points="531,575 613,444 491,353" style="fill: url(#gr77); stroke: rgb(0, 0, 0); stroke-width: 0;"/><defs><linearGradient id="gr78" x1="0%" x2="100%" y1="0%" y2="100%"><stop offset="0%" stop-color="rgb(235,159,24)"/><stop offset="100%" stop-color="rgb(234,154,12)"/></linearGradient></defs><polygon id="triangle36" points="613,444 644,295 491,353" style="fill: url(#gr78); stroke: rgb(0, 0, 0); stroke-width: 0;"/><defs><linearGradient id="gr79" x1="0%" x2="100%" y1="0%" y2="100%"><stop offset="0%" stop-color="rgb(241,163,14)"/><stop offset="100%" stop-color="rgb(240,161,14)"/></linearGradient></defs><polygon id="triangle36" points="643,159 644,295 491,353" style="fill: url(#gr79); stroke: rgb(0, 0, 0); stroke-width: 0;"/></svg>