<svg xmlns="http://www.w3.org/2000/svg" width="1000" height="1000" version="1.1"><defs><linearGradient id="gr0" x1="0%" x2="100%" y1="0%" y2="100%"><stop offset="0%" stop-color="rgb(98,109,89)"/><stop offset="100%" stop-color="rgb(98,109,91)"/></linearGradient></defs><polygon id="triangle36" points="7,114 24,18 177,69" style="fill: url(#gr0); stroke: rgb(0, 0, 0); stroke-width: 0;"/><defs><linearGradient id="gr1" x1="0%" x2="100%" y1="0%" y2="100%"><stop offset="0%" stop-color="rgb(92,107,90)"/><stop offset="100%" stop-color="rgb(101,111,92)"/></linearGradient></defs><polygon id="triangle36" points="24,18 177,69 174,12" style="fill: url(#gr1); stroke: rgb(0, 0, 0); stroke-width: 0;"/><defs><linearGradient id="gr2" x1="0%" x2="100%" y1="0%" y2="100%"><stop offset="0%" stop-color="rgb(116,118,95)"/><stop offset="100%" stop-color="rgb(129,125,97)"/></linearGradient></defs><polygon id="triangle36" points="177,69 314,82 301,225" style="fill: url(#gr2); stroke: rgb(0, 0, 0); stroke-width: 0;"/><defs><linearGradient id="gr3" x1="0%" x2="100%" y1="0%" y2="100%"><stop offset="0%" stop-color="rgb(121,119,93)"/><stop offset="100%" stop-color="rgb(143,129,93)"/></linearGradient></defs><polygon id="triangle36" points="177,69 301,225 161,306" style="fill: url(#gr3); stroke: rgb(0, 0, 0); stroke-width: 0;"/><defs><linearGradient id="gr4" x1="0%" x2="100%" y1="0%" y2="100%"><stop offset="0%" stop-color="rgb(139,127,91)"/><stop offset="100%" stop-color="rgb(121,119,91)"/></linearGradient></defs><polygon id="triangle36" points="161,306 177,69 28,249" style="fill: url(#gr4); stroke: rgb(0, 0, 0); stroke-width: 0;"/><defs><linearGradient id="gr5" x1="0%" x2="100%" y1="0%" y2="100%"><stop offset="0%" stop-color="rgb(105,111,89)"/><stop offset="100%" stop-color="rgb(115,116,91)"/></linearGradient></defs><polygon id="triangle36" points="7,114 177,69 28,249" style="fill: url(#gr5); stroke: rgb(0, 0, 0); stroke-width: 0;"/><defs><linearGradient id="gr6" x1="0%" x2="100%" y1="0%" y2="100%"><stop offset="0%" stop-color="rgb(136,125,88)"/><stop offset="100%" stop-color="rgb(152,132,89)"/></linearGradient></defs><polygon id="triangle36" points="28,249 161,306 62,373" style="fill: url(#gr6); stroke: rgb(0, 0, 0); stroke-width: 0;"/><defs><linearGradient id="gr7" x1="0%" x2="100%" y1="0%" y2="100%"><stop offset="0%" stop-color="rgb(160,136,90)"/><stop offset="100%" stop-color="rgb(164,138,91)"/></linearGradient></defs><polygon id="triangle36" points="62,373 161,306 210,427" style="fill: url(#gr7); stroke: rgb(0, 0, 0); stroke-width: 0;"/><defs><linearGradient id="gr8" x1="0%" x2="100%" y1="0%" y2="100%"><stop offset="0%" stop-color="rgb(159,136,92)"/><stop offset="100%" stop-color="rgb(177,145,95)"/></linearGradient></defs><polygon id="triangle36" points="161,306 210,427 346,373" style="fill: url(#gr8); stroke: rgb(0, 0, 0); stroke-width: 0;"/><defs><linearGradient id="gr9" x1="0%" x2="100%" y1="0%" y2="100%"><stop offset="0%" stop-color="rgb(152,134,92)"/><stop offset="100%" stop-color="rgb(161,139,97)"/></linearGradient></defs><polygon id="triangle36" points="161,306 301,225 346,373" style="fill: url(#gr9); stroke: rgb(0, 0, 0); stroke-width: 0;"/><defs><linearGradient id="gr10" x1="0%" x2="100%" y1="0%" y2="100%"><stop offset="0%" stop-color="rgb(156,137,98)"/><stop offset="100%" stop-color="rgb(178,148,101)"/></linearGradient></defs><polygon id="triangle36" points="301,225 346,373 462,285" style="fill: url(#gr10); stroke: rgb(0, 0, 0); stroke-width: 0;"/><defs><linearGradient id="gr11" x1="0%" x2="100%" y1="0%" y2="100%"><stop offset="0%" stop-color="rgb(141,130,97)"/><stop offset="100%" stop-color="rgb(135,128,99)"/></linearGradient></defs><polygon id="triangle36" points="301,225 314,82 463,129" style="fill: url(#gr11); stroke: rgb(0, 0, 0); stroke-width: 0;"/><defs><linearGradient id="gr12" x1="0%" x2="100%" y1="0%" y2="100%"><stop offset="0%" stop-color="rgb(151,134,98)"/><stop offset="100%" stop-color="rgb(163,141,102)"/></linearGradient></defs><polygon id="triangle36" points="301,225 462,285 463,129" style="fill: url(#gr12); stroke: rgb(0, 0, 0); stroke-width: 0;"/><defs><linearGradient id="gr13" x1="0%" x2="100%" y1="0%" y2="100%"><stop offset="0%" stop-color="rgb(100,111,94)"/><stop offset="100%" stop-color="rgb(106,114,95)"/></linearGradient></defs><polygon id="triangle36" points="174,12 177,69 318,6" style="fill: url(#gr13); stroke: rgb(0, 0, 0); stroke-width: 0;"/><defs><linearGradient id="gr14" x1="0%" x2="100%" y1="0%" y2="100%"><stop offset="0%" stop-color="rgb(110,115,95)"/><stop offset="100%" stop-color="rgb(112,117,97)"/></linearGradient></defs><polygon id="triangle36" points="177,69 314,82 318,6" style="fill: url(#gr14); stroke: rgb(0, 0, 0); stroke-width: 0;"/><defs><linearGradient id="gr15" x1="0%" x2="100%" y1="0%" y2="100%"><stop offset="0%" stop-color="rgb(121,122,99)"/><stop offset="100%" stop-color="rgb(126,124,99)"/></linearGradient></defs><polygon id="triangle36" points="314,82 463,129 318,6" style="fill: url(#gr15); stroke: rgb(0, 0, 0); stroke-width: 0;"/><defs><linearGradient id="gr16" x1="0%" x2="100%" y1="0%" y2="100%"><stop offset="0%" stop-color="rgb(116,120,99)"/><stop offset="100%" stop-color="rgb(135,129,102)"/></linearGradient></defs><polygon id="triangle36" points="318,6 463,129 537,2" style="fill: url(#gr16); stroke: rgb(0, 0, 0); stroke-width: 0;"/><defs><linearGradient id="gr17" x1="0%" x2="100%" y1="0%" y2="100%"><stop offset="0%" stop-color="rgb(179,149,106)"/><stop offset="100%" stop-color="rgb(171,146,106)"/></linearGradient></defs><polygon id="triangle36" points="462,285 463,129 601,188" style="fill: url(#gr17); stroke: rgb(0, 0, 0); stroke-width: 0;"/><defs><linearGradient id="gr18" x1="0%" x2="100%" y1="0%" y2="100%"><stop offset="0%" stop-color="rgb(152,136,103)"/><stop offset="100%" stop-color="rgb(159,141,107)"/></linearGradient></defs><polygon id="triangle36" points="463,129 537,2 601,188" style="fill: url(#gr18); stroke: rgb(0, 0, 0); stroke-width: 0;"/><defs><linearGradient id="gr19" x1="0%" x2="100%" y1="0%" y2="100%"><stop offset="0%" stop-color="rgb(192,156,103)"/><stop offset="100%" stop-color="rgb(206,170,112)"/></linearGradient></defs><polygon id="triangle36" points="346,373 462,285 571,409" style="fill: url(#gr19); stroke: rgb(0, 0, 0); stroke-width: 0;"/><defs><linearGradient id="gr20" x1="0%" x2="100%" y1="0%" y2="100%"><stop offset="0%" stop-color="rgb(203,166,106)"/><stop offset="100%" stop-color="rgb(233,194,122)"/></linearGradient></defs><polygon id="triangle36" points="346,373 571,409 526,557" style="fill: url(#gr20); stroke: rgb(0, 0, 0); stroke-width: 0;"/><defs><linearGradient id="gr21" x1="0%" x2="100%" y1="0%" y2="100%"><stop offset="0%" stop-color="rgb(191,152,96)"/><stop offset="100%" stop-color="rgb(203,162,101)"/></linearGradient></defs><polygon id="triangle36" points="210,427 346,373 335,614" style="fill: url(#gr21); stroke: rgb(0, 0, 0); stroke-width: 0;"/><defs><linearGradient id="gr22" x1="0%" x2="100%" y1="0%" y2="100%"><stop offset="0%" stop-color="rgb(203,164,105)"/><stop offset="100%" stop-color="rgb(231,188,114)"/></linearGradient></defs><polygon id="triangle36" points="346,373 526,557 335,614" style="fill: url(#gr22); stroke: rgb(0, 0, 0); stroke-width: 0;"/><defs><linearGradient id="gr23" x1="0%" x2="100%" y1="0%" y2="100%"><stop offset="0%" stop-color="rgb(194,153,95)"/><stop offset="100%" stop-color="rgb(213,164,96)"/></linearGradient></defs><polygon id="triangle36" points="210,427 335,614 137,605" style="fill: url(#gr23); stroke: rgb(0, 0, 0); stroke-width: 0;"/><defs><linearGradient id="gr24" x1="0%" x2="100%" y1="0%" y2="100%"><stop offset="0%" stop-color="rgb(199,151,89)"/><stop offset="100%" stop-color="rgb(187,146,89)"/></linearGradient></defs><polygon id="triangle36" points="137,605 210,427 8,533" style="fill: url(#gr24); stroke: rgb(0, 0, 0); stroke-width: 0;"/><defs><linearGradient id="gr25" x1="0%" x2="100%" y1="0%" y2="100%"><stop offset="0%" stop-color="rgb(143,127,87)"/><stop offset="100%" stop-color="rgb(168,138,86)"/></linearGradient></defs><polygon id="triangle36" points="28,249 62,373 8,533" style="fill: url(#gr25); stroke: rgb(0, 0, 0); stroke-width: 0;"/><defs><linearGradient id="gr26" x1="0%" x2="100%" y1="0%" y2="100%"><stop offset="0%" stop-color="rgb(168,138,89)"/><stop offset="100%" stop-color="rgb(182,144,89)"/></linearGradient></defs><polygon id="triangle36" points="62,373 210,427 8,533" style="fill: url(#gr26); stroke: rgb(0, 0, 0); stroke-width: 0;"/><defs><linearGradient id="gr27" x1="0%" x2="100%" y1="0%" y2="100%"><stop offset="0%" stop-color="rgb(118,116,87)"/><stop offset="100%" stop-color="rgb(150,130,86)"/></linearGradient></defs><polygon id="triangle36" points="7,114 28,249 8,533" style="fill: url(#gr27); stroke: rgb(0, 0, 0); stroke-width: 0;"/><defs><linearGradient id="gr28" x1="0%" x2="100%" y1="0%" y2="100%"><stop offset="0%" stop-color="rgb(146,135,105)"/><stop offset="100%" stop-color="rgb(170,147,109)"/></linearGradient></defs><polygon id="triangle36" points="537,2 601,188 725,13" style="fill: url(#gr28); stroke: rgb(0, 0, 0); stroke-width: 0;"/><defs><linearGradient id="gr29" x1="0%" x2="100%" y1="0%" y2="100%"><stop offset="0%" stop-color="rgb(190,158,112)"/><stop offset="100%" stop-color="rgb(188,161,116)"/></linearGradient></defs><polygon id="triangle36" points="601,188 766,198 725,13" style="fill: url(#gr29); stroke: rgb(0, 0, 0); stroke-width: 0;"/><defs><linearGradient id="gr30" x1="0%" x2="100%" y1="0%" y2="100%"><stop offset="0%" stop-color="rgb(202,171,121)"/><stop offset="100%" stop-color="rgb(177,153,114)"/></linearGradient></defs><polygon id="triangle36" points="766,198 806,97 725,13" style="fill: url(#gr30); stroke: rgb(0, 0, 0); stroke-width: 0;"/><defs><linearGradient id="gr31" x1="0%" x2="100%" y1="0%" y2="100%"><stop offset="0%" stop-color="rgb(144,134,105)"/><stop offset="100%" stop-color="rgb(158,142,109)"/></linearGradient></defs><polygon id="triangle36" points="537,2 725,13 859,13" style="fill: url(#gr31); stroke: rgb(0, 0, 0); stroke-width: 0;"/><defs><linearGradient id="gr32" x1="0%" x2="100%" y1="0%" y2="100%"><stop offset="0%" stop-color="rgb(163,145,111)"/><stop offset="100%" stop-color="rgb(171,150,114)"/></linearGradient></defs><polygon id="triangle36" points="725,13 806,97 859,13" style="fill: url(#gr32); stroke: rgb(0, 0, 0); stroke-width: 0;"/><defs><linearGradient id="gr33" x1="0%" x2="100%" y1="0%" y2="100%"><stop offset="0%" stop-color="rgb(145,135,106)"/><stop offset="100%" stop-color="rgb(157,144,112)"/></linearGradient></defs><polygon id="triangle36" points="537,2 859,13 997,14" style="fill: url(#gr33); stroke: rgb(0, 0, 0); stroke-width: 0;"/><defs><linearGradient id="gr34" x1="0%" x2="100%" y1="0%" y2="100%"><stop offset="0%" stop-color="rgb(211,180,126)"/><stop offset="100%" stop-color="rgb(198,172,126)"/></linearGradient></defs><polygon id="triangle36" points="766,198 806,97 994,148" style="fill: url(#gr34); stroke: rgb(0, 0, 0); stroke-width: 0;"/><defs><linearGradient id="gr35" x1="0%" x2="100%" y1="0%" y2="100%"><stop offset="0%" stop-color="rgb(185,160,118)"/><stop offset="100%" stop-color="rgb(181,161,121)"/></linearGradient></defs><polygon id="triangle36" points="806,97 859,13 994,148" style="fill: url(#gr35); stroke: rgb(0, 0, 0); stroke-width: 0;"/><defs><linearGradient id="gr36" x1="0%" x2="100%" y1="0%" y2="100%"><stop offset="0%" stop-color="rgb(164,149,115)"/><stop offset="100%" stop-color="rgb(174,159,122)"/></linearGradient></defs><polygon id="triangle36" points="859,13 997,14 994,148" style="fill: url(#gr36); stroke: rgb(0, 0, 0); stroke-width: 0;"/><defs><linearGradient id="gr37" x1="0%" x2="100%" y1="0%" y2="100%"><stop offset="0%" stop-color="rgb(227,199,141)"/><stop offset="100%" stop-color="rgb(240,221,164)"/></linearGradient></defs><polygon id="triangle36" points="766,198 839,399 995,309" style="fill: url(#gr37); stroke: rgb(0, 0, 0); stroke-width: 0;"/><defs><linearGradient id="gr38" x1="0%" x2="100%" y1="0%" y2="100%"><stop offset="0%" stop-color="rgb(220,191,135)"/><stop offset="100%" stop-color="rgb(221,200,149)"/></linearGradient></defs><polygon id="triangle36" points="766,198 994,148 995,309" style="fill: url(#gr38); stroke: rgb(0, 0, 0); stroke-width: 0;"/><defs><linearGradient id="gr39" x1="0%" x2="100%" y1="0%" y2="100%"><stop offset="0%" stop-color="rgb(202,181,135)"/><stop offset="100%" stop-color="rgb(198,183,140)"/></linearGradient></defs><polygon id="triangle36" points="994,148 997,14 995,309" style="fill: url(#gr39); stroke: rgb(0, 0, 0); stroke-width: 0;"/><defs><linearGradient id="gr40" x1="0%" x2="100%" y1="0%" y2="100%"><stop offset="0%" stop-color="rgb(245,229,175)"/><stop offset="100%" stop-color="rgb(243,230,181)"/></linearGradient></defs><polygon id="triangle36" points="839,399 995,309 929,529" style="fill: url(#gr40); stroke: rgb(0, 0, 0); stroke-width: 0;"/><defs><linearGradient id="gr41" x1="0%" x2="100%" y1="0%" y2="100%"><stop offset="0%" stop-color="rgb(247,232,177)"/><stop offset="100%" stop-color="rgb(249,237,186)"/></linearGradient></defs><polygon id="triangle36" points="839,399 929,529 846,619" style="fill: url(#gr41); stroke: rgb(0, 0, 0); stroke-width: 0;"/><defs><linearGradient id="gr42" x1="0%" x2="100%" y1="0%" y2="100%"><stop offset="0%" stop-color="rgb(234,189,112)"/><stop offset="100%" stop-color="rgb(242,201,120)"/></linearGradient></defs><polygon id="triangle36" points="335,614 526,557 540,786" style="fill: url(#gr42); stroke: rgb(0, 0, 0); stroke-width: 0;"/><defs><linearGradient id="gr43" x1="0%" x2="100%" y1="0%" y2="100%"><stop offset="0%" stop-color="rgb(230,182,103)"/><stop offset="100%" stop-color="rgb(233,183,100)"/></linearGradient></defs><polygon id="triangle36" points="335,614 540,786 369,814" style="fill: url(#gr43); stroke: rgb(0, 0, 0); stroke-width: 0;"/><defs><linearGradient id="gr44" x1="0%" x2="100%" y1="0%" y2="100%"><stop offset="0%" stop-color="rgb(209,157,89)"/><stop offset="100%" stop-color="rgb(214,162,90)"/></linearGradient></defs><polygon id="triangle36" points="137,605 335,614 188,757" style="fill: url(#gr44); stroke: rgb(0, 0, 0); stroke-width: 0;"/><defs><linearGradient id="gr45" x1="0%" x2="100%" y1="0%" y2="100%"><stop offset="0%" stop-color="rgb(223,173,97)"/><stop offset="100%" stop-color="rgb(215,160,84)"/></linearGradient></defs><polygon id="triangle36" points="335,614 369,814 188,757" style="fill: url(#gr45); stroke: rgb(0, 0, 0); stroke-width: 0;"/><defs><linearGradient id="gr46" x1="0%" x2="100%" y1="0%" y2="100%"><stop offset="0%" stop-color="rgb(201,149,83)"/><stop offset="100%" stop-color="rgb(196,144,75)"/></linearGradient></defs><polygon id="triangle36" points="137,605 188,757 38,708" style="fill: url(#gr46); stroke: rgb(0, 0, 0); stroke-width: 0;"/><defs><linearGradient id="gr47" x1="0%" x2="100%" y1="0%" y2="100%"><stop offset="0%" stop-color="rgb(191,145,83)"/><stop offset="100%" stop-color="rgb(195,145,80)"/></linearGradient></defs><polygon id="triangle36" points="8,533 137,605 38,708" style="fill: url(#gr47); stroke: rgb(0, 0, 0); stroke-width: 0;"/><defs><linearGradient id="gr48" x1="0%" x2="100%" y1="0%" y2="100%"><stop offset="0%" stop-color="rgb(187,136,68)"/><stop offset="100%" stop-color="rgb(186,134,66)"/></linearGradient></defs><polygon id="triangle36" points="38,708 188,757 30,841" style="fill: url(#gr48); stroke: rgb(0, 0, 0); stroke-width: 0;"/><defs><linearGradient id="gr49" x1="0%" x2="100%" y1="0%" y2="100%"><stop offset="0%" stop-color="rgb(187,142,79)"/><stop offset="100%" stop-color="rgb(181,133,66)"/></linearGradient></defs><polygon id="triangle36" points="8,533 38,708 30,841" style="fill: url(#gr49); stroke: rgb(0, 0, 0); stroke-width: 0;"/><defs><linearGradient id="gr50" x1="0%" x2="100%" y1="0%" y2="100%"><stop offset="0%" stop-color="rgb(181,136,73)"/><stop offset="100%" stop-color="rgb(164,118,54)"/></linearGradient></defs><polygon id="triangle36" points="8,533 30,841 20,986" style="fill: url(#gr50); stroke: rgb(0, 0, 0); stroke-width: 0;"/><defs><linearGradient id="gr51" x1="0%" x2="100%" y1="0%" y2="100%"><stop offset="0%" stop-color="rgb(204,148,75)"/><stop offset="100%" stop-color="rgb(206,149,75)"/></linearGradient></defs><polygon id="triangle36" points="188,757 369,814 246,988" style="fill: url(#gr51); stroke: rgb(0, 0, 0); stroke-width: 0;"/><defs><linearGradient id="gr52" x1="0%" x2="100%" y1="0%" y2="100%"><stop offset="0%" stop-color="rgb(157,112,50)"/><stop offset="100%" stop-color="rgb(175,124,58)"/></linearGradient></defs><polygon id="triangle36" points="20,986 30,841 246,988" style="fill: url(#gr52); stroke: rgb(0, 0, 0); stroke-width: 0;"/><defs><linearGradient id="gr53" x1="0%" x2="100%" y1="0%" y2="100%"><stop offset="0%" stop-color="rgb(177,126,59)"/><stop offset="100%" stop-color="rgb(192,137,67)"/></linearGradient></defs><polygon id="triangle36" points="30,841 188,757 246,988" style="fill: url(#gr53); stroke: rgb(0, 0, 0); stroke-width: 0;"/><defs><linearGradient id="gr54" x1="0%" x2="100%" y1="0%" y2="100%"><stop offset="0%" stop-color="rgb(249,236,184)"/><stop offset="100%" stop-color="rgb(246,235,188)"/></linearGradient></defs><polygon id="triangle36" points="846,619 929,529 992,609" style="fill: url(#gr54); stroke: rgb(0, 0, 0); stroke-width: 0;"/><defs><linearGradient id="gr55" x1="0%" x2="100%" y1="0%" y2="100%"><stop offset="0%" stop-color="rgb(247,237,193)"/><stop offset="100%" stop-color="rgb(242,229,181)"/></linearGradient></defs><polygon id="triangle36" points="929,529 995,309 992,609" style="fill: url(#gr55); stroke: rgb(0, 0, 0); stroke-width: 0;"/><defs><linearGradient id="gr56" x1="0%" x2="100%" y1="0%" y2="100%"><stop offset="0%" stop-color="rgb(251,230,156)"/><stop offset="100%" stop-color="rgb(249,234,172)"/></linearGradient></defs><polygon id="triangle36" points="732,728 846,619 968,707" style="fill: url(#gr56); stroke: rgb(0, 0, 0); stroke-width: 0;"/><defs><linearGradient id="gr57" x1="0%" x2="100%" y1="0%" y2="100%"><stop offset="0%" stop-color="rgb(248,235,180)"/><stop offset="100%" stop-color="rgb(245,233,178)"/></linearGradient></defs><polygon id="triangle36" points="846,619 992,609 968,707" style="fill: url(#gr57); stroke: rgb(0, 0, 0); stroke-width: 0;"/><defs><linearGradient id="gr58" x1="0%" x2="100%" y1="0%" y2="100%"><stop offset="0%" stop-color="rgb(250,228,153)"/><stop offset="100%" stop-color="rgb(247,228,160)"/></linearGradient></defs><polygon id="triangle36" points="732,728 968,707 960,812" style="fill: url(#gr58); stroke: rgb(0, 0, 0); stroke-width: 0;"/><defs><linearGradient id="gr59" x1="0%" x2="100%" y1="0%" y2="100%"><stop offset="0%" stop-color="rgb(244,203,116)"/><stop offset="100%" stop-color="rgb(243,205,120)"/></linearGradient></defs><polygon id="triangle36" points="540,786 732,728 804,961" style="fill: url(#gr59); stroke: rgb(0, 0, 0); stroke-width: 0;"/><defs><linearGradient id="gr60" x1="0%" x2="100%" y1="0%" y2="100%"><stop offset="0%" stop-color="rgb(249,222,140)"/><stop offset="100%" stop-color="rgb(242,207,126)"/></linearGradient></defs><polygon id="triangle36" points="732,728 960,812 804,961" style="fill: url(#gr60); stroke: rgb(0, 0, 0); stroke-width: 0;"/><defs><linearGradient id="gr61" x1="0%" x2="100%" y1="0%" y2="100%"><stop offset="0%" stop-color="rgb(228,178,94)"/><stop offset="100%" stop-color="rgb(239,198,117)"/></linearGradient></defs><polygon id="triangle36" points="936,996 960,812 804,961" style="fill: url(#gr61); stroke: rgb(0, 0, 0); stroke-width: 0;"/><defs><linearGradient id="gr62" x1="0%" x2="100%" y1="0%" y2="100%"><stop offset="0%" stop-color="rgb(201,143,70)"/><stop offset="100%" stop-color="rgb(218,159,80)"/></linearGradient></defs><polygon id="triangle36" points="246,988 369,814 530,991" style="fill: url(#gr62); stroke: rgb(0, 0, 0); stroke-width: 0;"/><defs><linearGradient id="gr63" x1="0%" x2="100%" y1="0%" y2="100%"><stop offset="0%" stop-color="rgb(228,172,91)"/><stop offset="100%" stop-color="rgb(231,177,94)"/></linearGradient></defs><polygon id="triangle36" points="369,814 540,786 530,991" style="fill: url(#gr63); stroke: rgb(0, 0, 0); stroke-width: 0;"/><defs><linearGradient id="gr64" x1="0%" x2="100%" y1="0%" y2="100%"><stop offset="0%" stop-color="rgb(238,190,104)"/><stop offset="100%" stop-color="rgb(228,174,90)"/></linearGradient></defs><polygon id="triangle36" points="540,786 804,961 530,991" style="fill: url(#gr64); stroke: rgb(0, 0, 0); stroke-width: 0;"/><defs><linearGradient id="gr65" x1="0%" x2="100%" y1="0%" y2="100%"><stop offset="0%" stop-color="rgb(232,178,93)"/><stop offset="100%" stop-color="rgb(222,165,82)"/></linearGradient></defs><polygon id="triangle36" points="804,961 936,996 530,991" style="fill: url(#gr65); stroke: rgb(0, 0, 0); stroke-width: 0;"/><defs><linearGradient id="gr66" x1="0%" x2="100%" y1="0%" y2="100%"><stop offset="0%" stop-color="rgb(225,176,93)"/><stop offset="100%" stop-color="rgb(232,193,113)"/></linearGradient></defs><polygon id="triangle36" points="936,996 960,812 996,946" style="fill: url(#gr66); stroke: rgb(0, 0, 0); stroke-width: 0;"/><defs><linearGradient id="gr67" x1="0%" x2="100%" y1="0%" y2="100%"><stop offset="0%" stop-color="rgb(244,219,145)"/><stop offset="100%" stop-color="rgb(236,207,134)"/></linearGradient></defs><polygon id="triangle36" points="960,812 968,707 996,946" style="fill: url(#gr67); stroke: rgb(0, 0, 0); stroke-width: 0;"/><defs><linearGradient id="gr68" x1="0%" x2="100%" y1="0%" y2="100%"><stop offset="0%" stop-color="rgb(245,229,166)"/><stop offset="100%" stop-color="rgb(236,210,144)"/></linearGradient></defs><polygon id="triangle36" points="968,707 992,609 996,946" style="fill: url(#gr68); stroke: rgb(0, 0, 0); stroke-width: 0;"/><defs><linearGradient id="gr69" x1="0%" x2="100%" y1="0%" y2="100%"><stop offset="0%" stop-color="rgb(243,231,181)"/><stop offset="100%" stop-color="rgb(233,207,145)"/></linearGradient></defs><polygon id="triangle36" points="992,609 995,309 996,946" style="fill: url(#gr69); stroke: rgb(0, 0, 0); stroke-width: 0;"/><defs><linearGradient id="gr70" x1="0%" x2="100%" y1="0%" y2="100%"><stop offset="0%" stop-color="rgb(246,212,132)"/><stop offset="100%" stop-color="rgb(247,215,135)"/></linearGradient></defs><polygon id="triangle36" points="526,557 540,786 698,578" style="fill: url(#gr70); stroke: rgb(0, 0, 0); stroke-width: 0;"/><defs><linearGradient id="gr71" x1="0%" x2="100%" y1="0%" y2="100%"><stop offset="0%" stop-color="rgb(244,209,133)"/><stop offset="100%" stop-color="rgb(242,212,139)"/></linearGradient></defs><polygon id="triangle36" points="526,557 571,409 698,578" style="fill: url(#gr71); stroke: rgb(0, 0, 0); stroke-width: 0;"/><defs><linearGradient id="gr72" x1="0%" x2="100%" y1="0%" y2="100%"><stop offset="0%" stop-color="rgb(246,210,126)"/><stop offset="100%" stop-color="rgb(250,225,147)"/></linearGradient></defs><polygon id="triangle36" points="540,786 732,728 698,578" style="fill: url(#gr72); stroke: rgb(0, 0, 0); stroke-width: 0;"/><defs><linearGradient id="gr73" x1="0%" x2="100%" y1="0%" y2="100%"><stop offset="0%" stop-color="rgb(251,229,154)"/><stop offset="100%" stop-color="rgb(251,232,166)"/></linearGradient></defs><polygon id="triangle36" points="732,728 846,619 698,578" style="fill: url(#gr73); stroke: rgb(0, 0, 0); stroke-width: 0;"/><defs><linearGradient id="gr74" x1="0%" x2="100%" y1="0%" y2="100%"><stop offset="0%" stop-color="rgb(248,231,171)"/><stop offset="100%" stop-color="rgb(250,233,169)"/></linearGradient></defs><polygon id="triangle36" points="839,399 846,619 698,578" style="fill: url(#gr74); stroke: rgb(0, 0, 0); stroke-width: 0;"/><defs><linearGradient id="gr75" x1="0%" x2="100%" y1="0%" y2="100%"><stop offset="0%" stop-color="rgb(203,167,112)"/><stop offset="100%" stop-color="rgb(229,191,124)"/></linearGradient></defs><polygon id="triangle36" points="462,285 571,409 653,336" style="fill: url(#gr75); stroke: rgb(0, 0, 0); stroke-width: 0;"/><defs><linearGradient id="gr76" x1="0%" x2="100%" y1="0%" y2="100%"><stop offset="0%" stop-color="rgb(196,161,111)"/><stop offset="100%" stop-color="rgb(211,175,119)"/></linearGradient></defs><polygon id="triangle36" points="462,285 601,188 653,336" style="fill: url(#gr76); stroke: rgb(0, 0, 0); stroke-width: 0;"/><defs><linearGradient id="gr77" x1="0%" x2="100%" y1="0%" y2="100%"><stop offset="0%" stop-color="rgb(238,203,131)"/><stop offset="100%" stop-color="rgb(242,212,141)"/></linearGradient></defs><polygon id="triangle36" points="571,409 698,578 653,336" style="fill: url(#gr77); stroke: rgb(0, 0, 0); stroke-width: 0;"/><defs><linearGradient id="gr78" x1="0%" x2="100%" y1="0%" y2="100%"><stop offset="0%" stop-color="rgb(204,169,117)"/><stop offset="100%" stop-color="rgb(222,187,126)"/></linearGradient></defs><polygon id="triangle36" points="601,188 766,198 653,336" style="fill: url(#gr78); stroke: rgb(0, 0, 0); stroke-width: 0;"/><defs><linearGradient id="gr79" x1="0%" x2="100%" y1="0%" y2="100%"><stop offset="0%" stop-color="rgb(248,226,154)"/><stop offset="100%" stop-color="rgb(242,216,150)"/></linearGradient></defs><polygon id="triangle36" points="698,578 839,399 653,336" style="fill: url(#gr79); stroke: rgb(0, 0, 0); stroke-width: 0;"/><defs><linearGradient id="gr80" x1="0%" x2="100%" y1="0%" y2="100%"><stop offset="0%" stop-color="rgb(226,195,133)"/><stop offset="100%" stop-color="rgb(239,211,146)"/></linearGradient></defs><polygon id="triangle36" points="766,198 839,399 653,336" style="fill: url(#gr80); stroke: rgb(0, 0, 0); stroke-width: 0;"/></svg>