<svg xmlns="http://www.w3.org/2000/svg" width="1000" height="1000" version="1.1"><defs><linearGradient id="gr0" x1="0%" x2="100%" y1="0%" y2="100%"><stop offset="0%" stop-color="rgb(141,53,84)"/><stop offset="100%" stop-color="rgb(173,69,91)"/></linearGradient></defs><polygon id="triangle36" points="18,12 29,169 194,38" style="fill: url(#gr0); stroke: rgb(0, 0, 0); stroke-width: 0;"/><defs><linearGradient id="gr1" x1="0%" x2="100%" y1="0%" y2="100%"><stop offset="0%" stop-color="rgb(157,55,92)"/><stop offset="100%" stop-color="rgb(207,68,95)"/></linearGradient></defs><polygon id="triangle36" points="29,169 144,252 194,38" style="fill: url(#gr1); stroke: rgb(0, 0, 0); stroke-width: 0;"/><defs><linearGradient id="gr2" x1="0%" x2="100%" y1="0%" y2="100%"><stop offset="0%" stop-color="rgb(217,59,95)"/><stop offset="100%" stop-color="rgb(232,72,85)"/></linearGradient></defs><polygon id="triangle36" points="144,252 194,38 323,206" style="fill: url(#gr2); stroke: rgb(0, 0, 0); stroke-width: 0;"/><defs><linearGradient id="gr3" x1="0%" x2="100%" y1="0%" y2="100%"><stop offset="0%" stop-color="rgb(225,51,112)"/><stop offset="100%" stop-color="rgb(244,60,114)"/></linearGradient></defs><polygon id="triangle36" points="144,252 323,206 288,416" style="fill: url(#gr3); stroke: rgb(0, 0, 0); stroke-width: 0;"/><defs><linearGradient id="gr4" x1="0%" x2="100%" y1="0%" y2="100%"><stop offset="0%" stop-color="rgb(224,58,123)"/><stop offset="100%" stop-color="rgb(246,101,162)"/></linearGradient></defs><polygon id="triangle36" points="144,252 288,416 112,436" style="fill: url(#gr4); stroke: rgb(0, 0, 0); stroke-width: 0;"/><defs><linearGradient id="gr5" x1="0%" x2="100%" y1="0%" y2="100%"><stop offset="0%" stop-color="rgb(252,115,172)"/><stop offset="100%" stop-color="rgb(251,178,207)"/></linearGradient></defs><polygon id="triangle36" points="288,416 312,567 112,436" style="fill: url(#gr5); stroke: rgb(0, 0, 0); stroke-width: 0;"/><defs><linearGradient id="gr6" x1="0%" x2="100%" y1="0%" y2="100%"><stop offset="0%" stop-color="rgb(222,113,164)"/><stop offset="100%" stop-color="rgb(187,61,122)"/></linearGradient></defs><polygon id="triangle36" points="112,436 144,252 2,327" style="fill: url(#gr6); stroke: rgb(0, 0, 0); stroke-width: 0;"/><defs><linearGradient id="gr7" x1="0%" x2="100%" y1="0%" y2="100%"><stop offset="0%" stop-color="rgb(122,51,92)"/><stop offset="100%" stop-color="rgb(136,59,110)"/></linearGradient></defs><polygon id="triangle36" points="18,12 29,169 2,327" style="fill: url(#gr7); stroke: rgb(0, 0, 0); stroke-width: 0;"/><defs><linearGradient id="gr8" x1="0%" x2="100%" y1="0%" y2="100%"><stop offset="0%" stop-color="rgb(142,52,103)"/><stop offset="100%" stop-color="rgb(173,58,116)"/></linearGradient></defs><polygon id="triangle36" points="29,169 144,252 2,327" style="fill: url(#gr8); stroke: rgb(0, 0, 0); stroke-width: 0;"/><defs><linearGradient id="gr9" x1="0%" x2="100%" y1="0%" y2="100%"><stop offset="0%" stop-color="rgb(195,113,163)"/><stop offset="100%" stop-color="rgb(239,151,190)"/></linearGradient></defs><polygon id="triangle36" points="2,327 112,436 26,492" style="fill: url(#gr9); stroke: rgb(0, 0, 0); stroke-width: 0;"/><defs><linearGradient id="gr10" x1="0%" x2="100%" y1="0%" y2="100%"><stop offset="0%" stop-color="rgb(250,174,202)"/><stop offset="100%" stop-color="rgb(253,195,209)"/></linearGradient></defs><polygon id="triangle36" points="112,436 312,567 69,651" style="fill: url(#gr10); stroke: rgb(0, 0, 0); stroke-width: 0;"/><defs><linearGradient id="gr11" x1="0%" x2="100%" y1="0%" y2="100%"><stop offset="0%" stop-color="rgb(241,143,176)"/><stop offset="100%" stop-color="rgb(249,168,194)"/></linearGradient></defs><polygon id="triangle36" points="26,492 112,436 69,651" style="fill: url(#gr11); stroke: rgb(0, 0, 0); stroke-width: 0;"/><defs><linearGradient id="gr12" x1="0%" x2="100%" y1="0%" y2="100%"><stop offset="0%" stop-color="rgb(253,204,214)"/><stop offset="100%" stop-color="rgb(253,221,227)"/></linearGradient></defs><polygon id="triangle36" points="69,651 312,567 248,743" style="fill: url(#gr12); stroke: rgb(0, 0, 0); stroke-width: 0;"/><defs><linearGradient id="gr13" x1="0%" x2="100%" y1="0%" y2="100%"><stop offset="0%" stop-color="rgb(254,232,230)"/><stop offset="100%" stop-color="rgb(253,225,216)"/></linearGradient></defs><polygon id="triangle36" points="248,743 312,567 417,765" style="fill: url(#gr13); stroke: rgb(0, 0, 0); stroke-width: 0;"/><defs><linearGradient id="gr14" x1="0%" x2="100%" y1="0%" y2="100%"><stop offset="0%" stop-color="rgb(252,111,162)"/><stop offset="100%" stop-color="rgb(249,144,163)"/></linearGradient></defs><polygon id="triangle36" points="288,416 312,567 625,490" style="fill: url(#gr14); stroke: rgb(0, 0, 0); stroke-width: 0;"/><defs><linearGradient id="gr15" x1="0%" x2="100%" y1="0%" y2="100%"><stop offset="0%" stop-color="rgb(254,219,213)"/><stop offset="100%" stop-color="rgb(248,173,164)"/></linearGradient></defs><polygon id="triangle36" points="312,567 417,765 625,490" style="fill: url(#gr15); stroke: rgb(0, 0, 0); stroke-width: 0;"/><defs><linearGradient id="gr16" x1="0%" x2="100%" y1="0%" y2="100%"><stop offset="0%" stop-color="rgb(244,53,120)"/><stop offset="100%" stop-color="rgb(213,34,79)"/></linearGradient></defs><polygon id="triangle36" points="288,416 323,206 624,313" style="fill: url(#gr16); stroke: rgb(0, 0, 0); stroke-width: 0;"/><defs><linearGradient id="gr17" x1="0%" x2="100%" y1="0%" y2="100%"><stop offset="0%" stop-color="rgb(243,56,120)"/><stop offset="100%" stop-color="rgb(213,41,82)"/></linearGradient></defs><polygon id="triangle36" points="288,416 625,490 624,313" style="fill: url(#gr17); stroke: rgb(0, 0, 0); stroke-width: 0;"/><defs><linearGradient id="gr18" x1="0%" x2="100%" y1="0%" y2="100%"><stop offset="0%" stop-color="rgb(221,46,77)"/><stop offset="100%" stop-color="rgb(169,24,59)"/></linearGradient></defs><polygon id="triangle36" points="323,206 624,313 643,179" style="fill: url(#gr18); stroke: rgb(0, 0, 0); stroke-width: 0;"/><defs><linearGradient id="gr19" x1="0%" x2="100%" y1="0%" y2="100%"><stop offset="0%" stop-color="rgb(215,47,63)"/><stop offset="100%" stop-color="rgb(158,25,42)"/></linearGradient></defs><polygon id="triangle36" points="323,206 643,179 620,46" style="fill: url(#gr19); stroke: rgb(0, 0, 0); stroke-width: 0;"/><defs><linearGradient id="gr20" x1="0%" x2="100%" y1="0%" y2="100%"><stop offset="0%" stop-color="rgb(177,72,94)"/><stop offset="100%" stop-color="rgb(227,81,81)"/></linearGradient></defs><polygon id="triangle36" points="18,12 194,38 352,5" style="fill: url(#gr20); stroke: rgb(0, 0, 0); stroke-width: 0;"/><defs><linearGradient id="gr21" x1="0%" x2="100%" y1="0%" y2="100%"><stop offset="0%" stop-color="rgb(237,99,89)"/><stop offset="100%" stop-color="rgb(235,70,72)"/></linearGradient></defs><polygon id="triangle36" points="194,38 323,206 352,5" style="fill: url(#gr21); stroke: rgb(0, 0, 0); stroke-width: 0;"/><defs><linearGradient id="gr22" x1="0%" x2="100%" y1="0%" y2="100%"><stop offset="0%" stop-color="rgb(229,57,64)"/><stop offset="100%" stop-color="rgb(194,43,45)"/></linearGradient></defs><polygon id="triangle36" points="323,206 620,46 352,5" style="fill: url(#gr22); stroke: rgb(0, 0, 0); stroke-width: 0;"/><defs><linearGradient id="gr23" x1="0%" x2="100%" y1="0%" y2="100%"><stop offset="0%" stop-color="rgb(142,17,39)"/><stop offset="100%" stop-color="rgb(143,15,44)"/></linearGradient></defs><polygon id="triangle36" points="620,46 643,179 812,94" style="fill: url(#gr23); stroke: rgb(0, 0, 0); stroke-width: 0;"/><defs><linearGradient id="gr24" x1="0%" x2="100%" y1="0%" y2="100%"><stop offset="0%" stop-color="rgb(179,35,45)"/><stop offset="100%" stop-color="rgb(137,16,47)"/></linearGradient></defs><polygon id="triangle36" points="352,5 620,46 854,9" style="fill: url(#gr24); stroke: rgb(0, 0, 0); stroke-width: 0;"/><defs><linearGradient id="gr25" x1="0%" x2="100%" y1="0%" y2="100%"><stop offset="0%" stop-color="rgb(142,14,45)"/><stop offset="100%" stop-color="rgb(139,10,54)"/></linearGradient></defs><polygon id="triangle36" points="620,46 812,94 854,9" style="fill: url(#gr25); stroke: rgb(0, 0, 0); stroke-width: 0;"/><defs><linearGradient id="gr26" x1="0%" x2="100%" y1="0%" y2="100%"><stop offset="0%" stop-color="rgb(144,9,52)"/><stop offset="100%" stop-color="rgb(130,9,55)"/></linearGradient></defs><polygon id="triangle36" points="812,94 854,9 953,116" style="fill: url(#gr26); stroke: rgb(0, 0, 0); stroke-width: 0;"/><defs><linearGradient id="gr27" x1="0%" x2="100%" y1="0%" y2="100%"><stop offset="0%" stop-color="rgb(158,13,60)"/><stop offset="100%" stop-color="rgb(155,28,62)"/></linearGradient></defs><polygon id="triangle36" points="624,313 625,490 917,335" style="fill: url(#gr27); stroke: rgb(0, 0, 0); stroke-width: 0;"/><defs><linearGradient id="gr28" x1="0%" x2="100%" y1="0%" y2="100%"><stop offset="0%" stop-color="rgb(144,13,58)"/><stop offset="100%" stop-color="rgb(113,11,45)"/></linearGradient></defs><polygon id="triangle36" points="624,313 643,179 917,335" style="fill: url(#gr28); stroke: rgb(0, 0, 0); stroke-width: 0;"/><defs><linearGradient id="gr29" x1="0%" x2="100%" y1="0%" y2="100%"><stop offset="0%" stop-color="rgb(130,14,41)"/><stop offset="100%" stop-color="rgb(112,7,43)"/></linearGradient></defs><polygon id="triangle36" points="643,179 812,94 917,335" style="fill: url(#gr29); stroke: rgb(0, 0, 0); stroke-width: 0;"/><defs><linearGradient id="gr30" x1="0%" x2="100%" y1="0%" y2="100%"><stop offset="0%" stop-color="rgb(130,8,46)"/><stop offset="100%" stop-color="rgb(102,5,44)"/></linearGradient></defs><polygon id="triangle36" points="812,94 953,116 917,335" style="fill: url(#gr30); stroke: rgb(0, 0, 0); stroke-width: 0;"/><defs><linearGradient id="gr31" x1="0%" x2="100%" y1="0%" y2="100%"><stop offset="0%" stop-color="rgb(211,45,76)"/><stop offset="100%" stop-color="rgb(155,21,54)"/></linearGradient></defs><polygon id="triangle36" points="625,490 917,335 891,574" style="fill: url(#gr31); stroke: rgb(0, 0, 0); stroke-width: 0;"/><defs><linearGradient id="gr32" x1="0%" x2="100%" y1="0%" y2="100%"><stop offset="0%" stop-color="rgb(131,10,60)"/><stop offset="100%" stop-color="rgb(116,9,55)"/></linearGradient></defs><polygon id="triangle36" points="854,9 953,116 987,14" style="fill: url(#gr32); stroke: rgb(0, 0, 0); stroke-width: 0;"/><defs><linearGradient id="gr33" x1="0%" x2="100%" y1="0%" y2="100%"><stop offset="0%" stop-color="rgb(72,3,40)"/><stop offset="100%" stop-color="rgb(79,4,43)"/></linearGradient></defs><polygon id="triangle36" points="917,335 953,116 994,321" style="fill: url(#gr33); stroke: rgb(0, 0, 0); stroke-width: 0;"/><defs><linearGradient id="gr34" x1="0%" x2="100%" y1="0%" y2="100%"><stop offset="0%" stop-color="rgb(107,6,48)"/><stop offset="100%" stop-color="rgb(81,6,47)"/></linearGradient></defs><polygon id="triangle36" points="953,116 987,14 994,321" style="fill: url(#gr34); stroke: rgb(0, 0, 0); stroke-width: 0;"/><defs><linearGradient id="gr35" x1="0%" x2="100%" y1="0%" y2="100%"><stop offset="0%" stop-color="rgb(163,25,54)"/><stop offset="100%" stop-color="rgb(94,6,43)"/></linearGradient></defs><polygon id="triangle36" points="891,574 917,335 994,493" style="fill: url(#gr35); stroke: rgb(0, 0, 0); stroke-width: 0;"/><defs><linearGradient id="gr36" x1="0%" x2="100%" y1="0%" y2="100%"><stop offset="0%" stop-color="rgb(67,3,39)"/><stop offset="100%" stop-color="rgb(68,5,40)"/></linearGradient></defs><polygon id="triangle36" points="917,335 994,321 994,493" style="fill: url(#gr36); stroke: rgb(0, 0, 0); stroke-width: 0;"/><defs><linearGradient id="gr37" x1="0%" x2="100%" y1="0%" y2="100%"><stop offset="0%" stop-color="rgb(201,37,63)"/><stop offset="100%" stop-color="rgb(165,31,51)"/></linearGradient></defs><polygon id="triangle36" points="891,574 994,493 976,710" style="fill: url(#gr37); stroke: rgb(0, 0, 0); stroke-width: 0;"/><defs><linearGradient id="gr38" x1="0%" x2="100%" y1="0%" y2="100%"><stop offset="0%" stop-color="rgb(216,56,54)"/><stop offset="100%" stop-color="rgb(225,86,46)"/></linearGradient></defs><polygon id="triangle36" points="891,574 976,710 926,816" style="fill: url(#gr38); stroke: rgb(0, 0, 0); stroke-width: 0;"/><defs><linearGradient id="gr39" x1="0%" x2="100%" y1="0%" y2="100%"><stop offset="0%" stop-color="rgb(253,231,233)"/><stop offset="100%" stop-color="rgb(252,231,225)"/></linearGradient></defs><polygon id="triangle36" points="248,743 417,765 264,923" style="fill: url(#gr39); stroke: rgb(0, 0, 0); stroke-width: 0;"/><defs><linearGradient id="gr40" x1="0%" x2="100%" y1="0%" y2="100%"><stop offset="0%" stop-color="rgb(253,235,239)"/><stop offset="100%" stop-color="rgb(252,238,245)"/></linearGradient></defs><polygon id="triangle36" points="248,743 264,923 63,853" style="fill: url(#gr40); stroke: rgb(0, 0, 0); stroke-width: 0;"/><defs><linearGradient id="gr41" x1="0%" x2="100%" y1="0%" y2="100%"><stop offset="0%" stop-color="rgb(253,213,223)"/><stop offset="100%" stop-color="rgb(253,235,241)"/></linearGradient></defs><polygon id="triangle36" points="69,651 248,743 63,853" style="fill: url(#gr41); stroke: rgb(0, 0, 0); stroke-width: 0;"/><defs><linearGradient id="gr42" x1="0%" x2="100%" y1="0%" y2="100%"><stop offset="0%" stop-color="rgb(197,100,148)"/><stop offset="100%" stop-color="rgb(242,165,192)"/></linearGradient></defs><polygon id="triangle36" points="2,327 26,492 7,713" style="fill: url(#gr42); stroke: rgb(0, 0, 0); stroke-width: 0;"/><defs><linearGradient id="gr43" x1="0%" x2="100%" y1="0%" y2="100%"><stop offset="0%" stop-color="rgb(244,154,182)"/><stop offset="100%" stop-color="rgb(253,197,210)"/></linearGradient></defs><polygon id="triangle36" points="26,492 69,651 7,713" style="fill: url(#gr43); stroke: rgb(0, 0, 0); stroke-width: 0;"/><defs><linearGradient id="gr44" x1="0%" x2="100%" y1="0%" y2="100%"><stop offset="0%" stop-color="rgb(252,236,244)"/><stop offset="100%" stop-color="rgb(253,218,227)"/></linearGradient></defs><polygon id="triangle36" points="63,853 69,651 7,713" style="fill: url(#gr44); stroke: rgb(0, 0, 0); stroke-width: 0;"/><defs><linearGradient id="gr45" x1="0%" x2="100%" y1="0%" y2="100%"><stop offset="0%" stop-color="rgb(251,235,243)"/><stop offset="100%" stop-color="rgb(242,224,237)"/></linearGradient></defs><polygon id="triangle36" points="7,713 63,853 16,924" style="fill: url(#gr45); stroke: rgb(0, 0, 0); stroke-width: 0;"/><defs><linearGradient id="gr46" x1="0%" x2="100%" y1="0%" y2="100%"><stop offset="0%" stop-color="rgb(229,197,220)"/><stop offset="100%" stop-color="rgb(222,188,214)"/></linearGradient></defs><polygon id="triangle36" points="16,924 63,853 25,991" style="fill: url(#gr46); stroke: rgb(0, 0, 0); stroke-width: 0;"/><defs><linearGradient id="gr47" x1="0%" x2="100%" y1="0%" y2="100%"><stop offset="0%" stop-color="rgb(246,226,238)"/><stop offset="100%" stop-color="rgb(226,192,215)"/></linearGradient></defs><polygon id="triangle36" points="63,853 264,923 25,991" style="fill: url(#gr47); stroke: rgb(0, 0, 0); stroke-width: 0;"/><defs><linearGradient id="gr48" x1="0%" x2="100%" y1="0%" y2="100%"><stop offset="0%" stop-color="rgb(213,165,194)"/><stop offset="100%" stop-color="rgb(248,218,225)"/></linearGradient></defs><polygon id="triangle36" points="25,991 264,923 357,983" style="fill: url(#gr48); stroke: rgb(0, 0, 0); stroke-width: 0;"/><defs><linearGradient id="gr49" x1="0%" x2="100%" y1="0%" y2="100%"><stop offset="0%" stop-color="rgb(252,233,238)"/><stop offset="100%" stop-color="rgb(252,225,216)"/></linearGradient></defs><polygon id="triangle36" points="264,923 417,765 357,983" style="fill: url(#gr49); stroke: rgb(0, 0, 0); stroke-width: 0;"/><defs><linearGradient id="gr50" x1="0%" x2="100%" y1="0%" y2="100%"><stop offset="0%" stop-color="rgb(253,223,205)"/><stop offset="100%" stop-color="rgb(253,215,205)"/></linearGradient></defs><polygon id="triangle36" points="417,765 518,920 357,983" style="fill: url(#gr50); stroke: rgb(0, 0, 0); stroke-width: 0;"/><defs><linearGradient id="gr51" x1="0%" x2="100%" y1="0%" y2="100%"><stop offset="0%" stop-color="rgb(218,171,192)"/><stop offset="100%" stop-color="rgb(252,203,191)"/></linearGradient></defs><polygon id="triangle36" points="25,991 357,983 683,995" style="fill: url(#gr51); stroke: rgb(0, 0, 0); stroke-width: 0;"/><defs><linearGradient id="gr52" x1="0%" x2="100%" y1="0%" y2="100%"><stop offset="0%" stop-color="rgb(253,215,205)"/><stop offset="100%" stop-color="rgb(253,199,176)"/></linearGradient></defs><polygon id="triangle36" points="357,983 518,920 683,995" style="fill: url(#gr52); stroke: rgb(0, 0, 0); stroke-width: 0;"/><defs><linearGradient id="gr53" x1="0%" x2="100%" y1="0%" y2="100%"><stop offset="0%" stop-color="rgb(254,195,166)"/><stop offset="100%" stop-color="rgb(253,183,135)"/></linearGradient></defs><polygon id="triangle36" points="518,920 769,909 683,995" style="fill: url(#gr53); stroke: rgb(0, 0, 0); stroke-width: 0;"/><defs><linearGradient id="gr54" x1="0%" x2="100%" y1="0%" y2="100%"><stop offset="0%" stop-color="rgb(253,165,122)"/><stop offset="100%" stop-color="rgb(251,151,92)"/></linearGradient></defs><polygon id="triangle36" points="683,995 769,909 911,994" style="fill: url(#gr54); stroke: rgb(0, 0, 0); stroke-width: 0;"/><defs><linearGradient id="gr55" x1="0%" x2="100%" y1="0%" y2="100%"><stop offset="0%" stop-color="rgb(253,193,115)"/><stop offset="100%" stop-color="rgb(248,148,75)"/></linearGradient></defs><polygon id="triangle36" points="769,909 926,816 911,994" style="fill: url(#gr55); stroke: rgb(0, 0, 0); stroke-width: 0;"/><defs><linearGradient id="gr56" x1="0%" x2="100%" y1="0%" y2="100%"><stop offset="0%" stop-color="rgb(250,140,78)"/><stop offset="100%" stop-color="rgb(247,147,74)"/></linearGradient></defs><polygon id="triangle36" points="911,994 926,816 995,949" style="fill: url(#gr56); stroke: rgb(0, 0, 0); stroke-width: 0;"/><defs><linearGradient id="gr57" x1="0%" x2="100%" y1="0%" y2="100%"><stop offset="0%" stop-color="rgb(240,124,47)"/><stop offset="100%" stop-color="rgb(232,103,60)"/></linearGradient></defs><polygon id="triangle36" points="926,816 976,710 995,949" style="fill: url(#gr57); stroke: rgb(0, 0, 0); stroke-width: 0;"/><defs><linearGradient id="gr58" x1="0%" x2="100%" y1="0%" y2="100%"><stop offset="0%" stop-color="rgb(208,52,46)"/><stop offset="100%" stop-color="rgb(182,66,57)"/></linearGradient></defs><polygon id="triangle36" points="976,710 994,493 995,949" style="fill: url(#gr58); stroke: rgb(0, 0, 0); stroke-width: 0;"/><defs><linearGradient id="gr59" x1="0%" x2="100%" y1="0%" y2="100%"><stop offset="0%" stop-color="rgb(253,225,180)"/><stop offset="100%" stop-color="rgb(253,208,147)"/></linearGradient></defs><polygon id="triangle36" points="417,765 518,920 679,666" style="fill: url(#gr59); stroke: rgb(0, 0, 0); stroke-width: 0;"/><defs><linearGradient id="gr60" x1="0%" x2="100%" y1="0%" y2="100%"><stop offset="0%" stop-color="rgb(253,222,177)"/><stop offset="100%" stop-color="rgb(249,161,112)"/></linearGradient></defs><polygon id="triangle36" points="417,765 625,490 679,666" style="fill: url(#gr60); stroke: rgb(0, 0, 0); stroke-width: 0;"/><defs><linearGradient id="gr61" x1="0%" x2="100%" y1="0%" y2="100%"><stop offset="0%" stop-color="rgb(254,211,161)"/><stop offset="100%" stop-color="rgb(253,199,114)"/></linearGradient></defs><polygon id="triangle36" points="518,920 769,909 679,666" style="fill: url(#gr61); stroke: rgb(0, 0, 0); stroke-width: 0;"/><defs><linearGradient id="gr62" x1="0%" x2="100%" y1="0%" y2="100%"><stop offset="0%" stop-color="rgb(244,94,88)"/><stop offset="100%" stop-color="rgb(237,118,80)"/></linearGradient></defs><polygon id="triangle36" points="625,490 891,574 679,666" style="fill: url(#gr62); stroke: rgb(0, 0, 0); stroke-width: 0;"/><defs><linearGradient id="gr63" x1="0%" x2="100%" y1="0%" y2="100%"><stop offset="0%" stop-color="rgb(253,193,98)"/><stop offset="100%" stop-color="rgb(249,175,73)"/></linearGradient></defs><polygon id="triangle36" points="769,909 926,816 679,666" style="fill: url(#gr63); stroke: rgb(0, 0, 0); stroke-width: 0;"/><defs><linearGradient id="gr64" x1="0%" x2="100%" y1="0%" y2="100%"><stop offset="0%" stop-color="rgb(226,85,57)"/><stop offset="100%" stop-color="rgb(246,152,64)"/></linearGradient></defs><polygon id="triangle36" points="891,574 926,816 679,666" style="fill: url(#gr64); stroke: rgb(0, 0, 0); stroke-width: 0;"/></svg>