<svg xmlns="http://www.w3.org/2000/svg" width="1000" height="1000" version="1.1"><defs><linearGradient id="gr0" x1="0%" x2="100%" y1="0%" y2="100%"><stop offset="0%" stop-color="rgb(197,218,146)"/><stop offset="100%" stop-color="rgb(197,218,146)"/></linearGradient></defs><polygon id="triangle36" points="15,11 156,13 328,10" style="fill: url(#gr0); stroke: rgb(0, 0, 0); stroke-width: 0;"/><defs><linearGradient id="gr1" x1="0%" x2="100%" y1="0%" y2="100%"><stop offset="0%" stop-color="rgb(194,216,142)"/><stop offset="100%" stop-color="rgb(190,212,136)"/></linearGradient></defs><polygon id="triangle36" points="156,13 243,91 328,10" style="fill: url(#gr1); stroke: rgb(0, 0, 0); stroke-width: 0;"/><defs><linearGradient id="gr2" x1="0%" x2="100%" y1="0%" y2="100%"><stop offset="0%" stop-color="rgb(182,207,125)"/><stop offset="100%" stop-color="rgb(182,207,126)"/></linearGradient></defs><polygon id="triangle36" points="243,91 328,10 420,137" style="fill: url(#gr2); stroke: rgb(0, 0, 0); stroke-width: 0;"/><defs><linearGradient id="gr3" x1="0%" x2="100%" y1="0%" y2="100%"><stop offset="0%" stop-color="rgb(169,198,109)"/><stop offset="100%" stop-color="rgb(155,188,92)"/></linearGradient></defs><polygon id="triangle36" points="243,91 420,137 282,291" style="fill: url(#gr3); stroke: rgb(0, 0, 0); stroke-width: 0;"/><defs><linearGradient id="gr4" x1="0%" x2="100%" y1="0%" y2="100%"><stop offset="0%" stop-color="rgb(155,188,90)"/><stop offset="100%" stop-color="rgb(141,178,73)"/></linearGradient></defs><polygon id="triangle36" points="420,137 438,344 282,291" style="fill: url(#gr4); stroke: rgb(0, 0, 0); stroke-width: 0;"/><defs><linearGradient id="gr5" x1="0%" x2="100%" y1="0%" y2="100%"><stop offset="0%" stop-color="rgb(194,216,142)"/><stop offset="100%" stop-color="rgb(190,213,136)"/></linearGradient></defs><polygon id="triangle36" points="15,11 156,13 11,90" style="fill: url(#gr5); stroke: rgb(0, 0, 0); stroke-width: 0;"/><defs><linearGradient id="gr6" x1="0%" x2="100%" y1="0%" y2="100%"><stop offset="0%" stop-color="rgb(192,215,139)"/><stop offset="100%" stop-color="rgb(183,207,126)"/></linearGradient></defs><polygon id="triangle36" points="156,13 243,91 11,90" style="fill: url(#gr6); stroke: rgb(0, 0, 0); stroke-width: 0;"/><defs><linearGradient id="gr7" x1="0%" x2="100%" y1="0%" y2="100%"><stop offset="0%" stop-color="rgb(156,189,93)"/><stop offset="100%" stop-color="rgb(176,203,117)"/></linearGradient></defs><polygon id="triangle36" points="36,236 243,91 11,90" style="fill: url(#gr7); stroke: rgb(0, 0, 0); stroke-width: 0;"/><defs><linearGradient id="gr8" x1="0%" x2="100%" y1="0%" y2="100%"><stop offset="0%" stop-color="rgb(153,186,79)"/><stop offset="100%" stop-color="rgb(150,184,76)"/></linearGradient></defs><polygon id="triangle36" points="399,616 438,344 617,524" style="fill: url(#gr8); stroke: rgb(0, 0, 0); stroke-width: 0;"/><defs><linearGradient id="gr9" x1="0%" x2="100%" y1="0%" y2="100%"><stop offset="0%" stop-color="rgb(144,180,72)"/><stop offset="100%" stop-color="rgb(148,182,74)"/></linearGradient></defs><polygon id="triangle36" points="438,344 617,524 645,372" style="fill: url(#gr9); stroke: rgb(0, 0, 0); stroke-width: 0;"/><defs><linearGradient id="gr10" x1="0%" x2="100%" y1="0%" y2="100%"><stop offset="0%" stop-color="rgb(157,189,93)"/><stop offset="100%" stop-color="rgb(145,181,78)"/></linearGradient></defs><polygon id="triangle36" points="420,137 438,344 658,222" style="fill: url(#gr10); stroke: rgb(0, 0, 0); stroke-width: 0;"/><defs><linearGradient id="gr11" x1="0%" x2="100%" y1="0%" y2="100%"><stop offset="0%" stop-color="rgb(141,178,73)"/><stop offset="100%" stop-color="rgb(144,180,76)"/></linearGradient></defs><polygon id="triangle36" points="438,344 645,372 658,222" style="fill: url(#gr11); stroke: rgb(0, 0, 0); stroke-width: 0;"/><defs><linearGradient id="gr12" x1="0%" x2="100%" y1="0%" y2="100%"><stop offset="0%" stop-color="rgb(165,195,104)"/><stop offset="100%" stop-color="rgb(163,194,101)"/></linearGradient></defs><polygon id="triangle36" points="420,137 658,222 650,97" style="fill: url(#gr12); stroke: rgb(0, 0, 0); stroke-width: 0;"/><defs><linearGradient id="gr13" x1="0%" x2="100%" y1="0%" y2="100%"><stop offset="0%" stop-color="rgb(197,218,146)"/><stop offset="100%" stop-color="rgb(197,219,146)"/></linearGradient></defs><polygon id="triangle36" points="15,11 328,10 560,5" style="fill: url(#gr13); stroke: rgb(0, 0, 0); stroke-width: 0;"/><defs><linearGradient id="gr14" x1="0%" x2="100%" y1="0%" y2="100%"><stop offset="0%" stop-color="rgb(193,215,140)"/><stop offset="100%" stop-color="rgb(185,210,129)"/></linearGradient></defs><polygon id="triangle36" points="328,10 420,137 560,5" style="fill: url(#gr14); stroke: rgb(0, 0, 0); stroke-width: 0;"/><defs><linearGradient id="gr15" x1="0%" x2="100%" y1="0%" y2="100%"><stop offset="0%" stop-color="rgb(175,202,117)"/><stop offset="100%" stop-color="rgb(186,211,131)"/></linearGradient></defs><polygon id="triangle36" points="420,137 650,97 560,5" style="fill: url(#gr15); stroke: rgb(0, 0, 0); stroke-width: 0;"/><defs><linearGradient id="gr16" x1="0%" x2="100%" y1="0%" y2="100%"><stop offset="0%" stop-color="rgb(149,182,73)"/><stop offset="100%" stop-color="rgb(148,182,74)"/></linearGradient></defs><polygon id="triangle36" points="149,429 282,291 235,530" style="fill: url(#gr16); stroke: rgb(0, 0, 0); stroke-width: 0;"/><defs><linearGradient id="gr17" x1="0%" x2="100%" y1="0%" y2="100%"><stop offset="0%" stop-color="rgb(142,179,72)"/><stop offset="100%" stop-color="rgb(146,181,74)"/></linearGradient></defs><polygon id="triangle36" points="282,291 438,344 235,530" style="fill: url(#gr17); stroke: rgb(0, 0, 0); stroke-width: 0;"/><defs><linearGradient id="gr18" x1="0%" x2="100%" y1="0%" y2="100%"><stop offset="0%" stop-color="rgb(153,186,79)"/><stop offset="100%" stop-color="rgb(150,184,76)"/></linearGradient></defs><polygon id="triangle36" points="399,616 438,344 235,530" style="fill: url(#gr18); stroke: rgb(0, 0, 0); stroke-width: 0;"/><defs><linearGradient id="gr19" x1="0%" x2="100%" y1="0%" y2="100%"><stop offset="0%" stop-color="rgb(155,187,80)"/><stop offset="100%" stop-color="rgb(152,185,79)"/></linearGradient></defs><polygon id="triangle36" points="64,543 134,646 235,530" style="fill: url(#gr19); stroke: rgb(0, 0, 0); stroke-width: 0;"/><defs><linearGradient id="gr20" x1="0%" x2="100%" y1="0%" y2="100%"><stop offset="0%" stop-color="rgb(155,187,79)"/><stop offset="100%" stop-color="rgb(153,185,77)"/></linearGradient></defs><polygon id="triangle36" points="64,543 149,429 235,530" style="fill: url(#gr20); stroke: rgb(0, 0, 0); stroke-width: 0;"/><defs><linearGradient id="gr21" x1="0%" x2="100%" y1="0%" y2="100%"><stop offset="0%" stop-color="rgb(146,180,73)"/><stop offset="100%" stop-color="rgb(141,178,73)"/></linearGradient></defs><polygon id="triangle36" points="149,429 282,291 182,295" style="fill: url(#gr21); stroke: rgb(0, 0, 0); stroke-width: 0;"/><defs><linearGradient id="gr22" x1="0%" x2="100%" y1="0%" y2="100%"><stop offset="0%" stop-color="rgb(164,194,102)"/><stop offset="100%" stop-color="rgb(143,179,76)"/></linearGradient></defs><polygon id="triangle36" points="243,91 282,291 182,295" style="fill: url(#gr22); stroke: rgb(0, 0, 0); stroke-width: 0;"/><defs><linearGradient id="gr23" x1="0%" x2="100%" y1="0%" y2="100%"><stop offset="0%" stop-color="rgb(148,183,83)"/><stop offset="100%" stop-color="rgb(157,189,94)"/></linearGradient></defs><polygon id="triangle36" points="36,236 243,91 182,295" style="fill: url(#gr23); stroke: rgb(0, 0, 0); stroke-width: 0;"/><defs><linearGradient id="gr24" x1="0%" x2="100%" y1="0%" y2="100%"><stop offset="0%" stop-color="rgb(147,182,78)"/><stop offset="100%" stop-color="rgb(126,169,72)"/></linearGradient></defs><polygon id="triangle36" points="64,543 134,646 20,863" style="fill: url(#gr24); stroke: rgb(0, 0, 0); stroke-width: 0;"/><defs><linearGradient id="gr25" x1="0%" x2="100%" y1="0%" y2="100%"><stop offset="0%" stop-color="rgb(100,155,65)"/><stop offset="100%" stop-color="rgb(115,163,69)"/></linearGradient></defs><polygon id="triangle36" points="20,863 134,646 180,876" style="fill: url(#gr25); stroke: rgb(0, 0, 0); stroke-width: 0;"/><defs><linearGradient id="gr26" x1="0%" x2="100%" y1="0%" y2="100%"><stop offset="0%" stop-color="rgb(148,183,78)"/><stop offset="100%" stop-color="rgb(133,174,73)"/></linearGradient></defs><polygon id="triangle36" points="399,616 617,524 591,828" style="fill: url(#gr26); stroke: rgb(0, 0, 0); stroke-width: 0;"/><defs><linearGradient id="gr27" x1="0%" x2="100%" y1="0%" y2="100%"><stop offset="0%" stop-color="rgb(118,166,69)"/><stop offset="100%" stop-color="rgb(138,177,74)"/></linearGradient></defs><polygon id="triangle36" points="591,828 617,524 754,740" style="fill: url(#gr27); stroke: rgb(0, 0, 0); stroke-width: 0;"/><defs><linearGradient id="gr28" x1="0%" x2="100%" y1="0%" y2="100%"><stop offset="0%" stop-color="rgb(155,187,77)"/><stop offset="100%" stop-color="rgb(151,184,76)"/></linearGradient></defs><polygon id="triangle36" points="617,524 645,372 841,558" style="fill: url(#gr28); stroke: rgb(0, 0, 0); stroke-width: 0;"/><defs><linearGradient id="gr29" x1="0%" x2="100%" y1="0%" y2="100%"><stop offset="0%" stop-color="rgb(154,186,79)"/><stop offset="100%" stop-color="rgb(144,180,77)"/></linearGradient></defs><polygon id="triangle36" points="617,524 754,740 841,558" style="fill: url(#gr29); stroke: rgb(0, 0, 0); stroke-width: 0;"/><defs><linearGradient id="gr30" x1="0%" x2="100%" y1="0%" y2="100%"><stop offset="0%" stop-color="rgb(142,178,73)"/><stop offset="100%" stop-color="rgb(143,179,76)"/></linearGradient></defs><polygon id="triangle36" points="645,372 658,222 860,357" style="fill: url(#gr30); stroke: rgb(0, 0, 0); stroke-width: 0;"/><defs><linearGradient id="gr31" x1="0%" x2="100%" y1="0%" y2="100%"><stop offset="0%" stop-color="rgb(147,181,73)"/><stop offset="100%" stop-color="rgb(149,182,75)"/></linearGradient></defs><polygon id="triangle36" points="645,372 841,558 860,357" style="fill: url(#gr31); stroke: rgb(0, 0, 0); stroke-width: 0;"/><defs><linearGradient id="gr32" x1="0%" x2="100%" y1="0%" y2="100%"><stop offset="0%" stop-color="rgb(169,198,109)"/><stop offset="100%" stop-color="rgb(154,187,91)"/></linearGradient></defs><polygon id="triangle36" points="650,97 658,222 864,186" style="fill: url(#gr32); stroke: rgb(0, 0, 0); stroke-width: 0;"/><defs><linearGradient id="gr33" x1="0%" x2="100%" y1="0%" y2="100%"><stop offset="0%" stop-color="rgb(145,181,79)"/><stop offset="100%" stop-color="rgb(146,181,80)"/></linearGradient></defs><polygon id="triangle36" points="658,222 860,357 864,186" style="fill: url(#gr33); stroke: rgb(0, 0, 0); stroke-width: 0;"/><defs><linearGradient id="gr34" x1="0%" x2="100%" y1="0%" y2="100%"><stop offset="0%" stop-color="rgb(195,217,143)"/><stop offset="100%" stop-color="rgb(189,213,135)"/></linearGradient></defs><polygon id="triangle36" points="560,5 650,97 819,9" style="fill: url(#gr34); stroke: rgb(0, 0, 0); stroke-width: 0;"/><defs><linearGradient id="gr35" x1="0%" x2="100%" y1="0%" y2="100%"><stop offset="0%" stop-color="rgb(179,205,121)"/><stop offset="100%" stop-color="rgb(177,204,120)"/></linearGradient></defs><polygon id="triangle36" points="650,97 864,186 819,9" style="fill: url(#gr35); stroke: rgb(0, 0, 0); stroke-width: 0;"/><defs><linearGradient id="gr36" x1="0%" x2="100%" y1="0%" y2="100%"><stop offset="0%" stop-color="rgb(191,215,138)"/><stop offset="100%" stop-color="rgb(179,206,123)"/></linearGradient></defs><polygon id="triangle36" points="819,9 864,186 979,13" style="fill: url(#gr36); stroke: rgb(0, 0, 0); stroke-width: 0;"/><defs><linearGradient id="gr37" x1="0%" x2="100%" y1="0%" y2="100%"><stop offset="0%" stop-color="rgb(142,178,73)"/><stop offset="100%" stop-color="rgb(148,183,83)"/></linearGradient></defs><polygon id="triangle36" points="860,357 864,186 988,228" style="fill: url(#gr37); stroke: rgb(0, 0, 0); stroke-width: 0;"/><defs><linearGradient id="gr38" x1="0%" x2="100%" y1="0%" y2="100%"><stop offset="0%" stop-color="rgb(160,192,99)"/><stop offset="100%" stop-color="rgb(170,199,111)"/></linearGradient></defs><polygon id="triangle36" points="864,186 979,13 988,228" style="fill: url(#gr38); stroke: rgb(0, 0, 0); stroke-width: 0;"/><defs><linearGradient id="gr39" x1="0%" x2="100%" y1="0%" y2="100%"><stop offset="0%" stop-color="rgb(154,186,77)"/><stop offset="100%" stop-color="rgb(149,182,74)"/></linearGradient></defs><polygon id="triangle36" points="841,558 860,357 993,448" style="fill: url(#gr39); stroke: rgb(0, 0, 0); stroke-width: 0;"/><defs><linearGradient id="gr40" x1="0%" x2="100%" y1="0%" y2="100%"><stop offset="0%" stop-color="rgb(141,177,73)"/><stop offset="100%" stop-color="rgb(146,181,76)"/></linearGradient></defs><polygon id="triangle36" points="860,357 988,228 993,448" style="fill: url(#gr40); stroke: rgb(0, 0, 0); stroke-width: 0;"/><defs><linearGradient id="gr41" x1="0%" x2="100%" y1="0%" y2="100%"><stop offset="0%" stop-color="rgb(134,174,73)"/><stop offset="100%" stop-color="rgb(145,181,77)"/></linearGradient></defs><polygon id="triangle36" points="754,740 841,558 996,692" style="fill: url(#gr41); stroke: rgb(0, 0, 0); stroke-width: 0;"/><defs><linearGradient id="gr42" x1="0%" x2="100%" y1="0%" y2="100%"><stop offset="0%" stop-color="rgb(155,187,80)"/><stop offset="100%" stop-color="rgb(148,182,76)"/></linearGradient></defs><polygon id="triangle36" points="841,558 993,448 996,692" style="fill: url(#gr42); stroke: rgb(0, 0, 0); stroke-width: 0;"/><defs><linearGradient id="gr43" x1="0%" x2="100%" y1="0%" y2="100%"><stop offset="0%" stop-color="rgb(121,167,70)"/><stop offset="100%" stop-color="rgb(114,163,68)"/></linearGradient></defs><polygon id="triangle36" points="754,740 996,692 925,869" style="fill: url(#gr43); stroke: rgb(0, 0, 0); stroke-width: 0;"/><defs><linearGradient id="gr44" x1="0%" x2="100%" y1="0%" y2="100%"><stop offset="0%" stop-color="rgb(98,154,64)"/><stop offset="100%" stop-color="rgb(94,151,63)"/></linearGradient></defs><polygon id="triangle36" points="591,828 754,740 816,978" style="fill: url(#gr44); stroke: rgb(0, 0, 0); stroke-width: 0;"/><defs><linearGradient id="gr45" x1="0%" x2="100%" y1="0%" y2="100%"><stop offset="0%" stop-color="rgb(108,159,66)"/><stop offset="100%" stop-color="rgb(81,144,59)"/></linearGradient></defs><polygon id="triangle36" points="754,740 925,869 816,978" style="fill: url(#gr45); stroke: rgb(0, 0, 0); stroke-width: 0;"/><defs><linearGradient id="gr46" x1="0%" x2="100%" y1="0%" y2="100%"><stop offset="0%" stop-color="rgb(88,148,62)"/><stop offset="100%" stop-color="rgb(67,136,56)"/></linearGradient></defs><polygon id="triangle36" points="591,828 816,978 604,970" style="fill: url(#gr46); stroke: rgb(0, 0, 0); stroke-width: 0;"/><defs><linearGradient id="gr47" x1="0%" x2="100%" y1="0%" y2="100%"><stop offset="0%" stop-color="rgb(64,134,54)"/><stop offset="100%" stop-color="rgb(63,134,54)"/></linearGradient></defs><polygon id="triangle36" points="604,970 816,978 314,983" style="fill: url(#gr47); stroke: rgb(0, 0, 0); stroke-width: 0;"/><defs><linearGradient id="gr48" x1="0%" x2="100%" y1="0%" y2="100%"><stop offset="0%" stop-color="rgb(79,143,59)"/><stop offset="100%" stop-color="rgb(65,135,55)"/></linearGradient></defs><polygon id="triangle36" points="180,876 314,983 18,976" style="fill: url(#gr48); stroke: rgb(0, 0, 0); stroke-width: 0;"/><defs><linearGradient id="gr49" x1="0%" x2="100%" y1="0%" y2="100%"><stop offset="0%" stop-color="rgb(85,146,61)"/><stop offset="100%" stop-color="rgb(77,142,58)"/></linearGradient></defs><polygon id="triangle36" points="20,863 180,876 18,976" style="fill: url(#gr49); stroke: rgb(0, 0, 0); stroke-width: 0;"/><defs><linearGradient id="gr50" x1="0%" x2="100%" y1="0%" y2="100%"><stop offset="0%" stop-color="rgb(67,136,55)"/><stop offset="100%" stop-color="rgb(74,141,57)"/></linearGradient></defs><polygon id="triangle36" points="816,978 925,869 984,973" style="fill: url(#gr50); stroke: rgb(0, 0, 0); stroke-width: 0;"/><defs><linearGradient id="gr51" x1="0%" x2="100%" y1="0%" y2="100%"><stop offset="0%" stop-color="rgb(93,151,63)"/><stop offset="100%" stop-color="rgb(99,155,64)"/></linearGradient></defs><polygon id="triangle36" points="925,869 996,692 984,973" style="fill: url(#gr51); stroke: rgb(0, 0, 0); stroke-width: 0;"/><defs><linearGradient id="gr52" x1="0%" x2="100%" y1="0%" y2="100%"><stop offset="0%" stop-color="rgb(86,147,61)"/><stop offset="100%" stop-color="rgb(85,147,61)"/></linearGradient></defs><polygon id="triangle36" points="180,876 314,983 400,793" style="fill: url(#gr52); stroke: rgb(0, 0, 0); stroke-width: 0;"/><defs><linearGradient id="gr53" x1="0%" x2="100%" y1="0%" y2="100%"><stop offset="0%" stop-color="rgb(70,138,56)"/><stop offset="100%" stop-color="rgb(84,146,60)"/></linearGradient></defs><polygon id="triangle36" points="314,983 604,970 400,793" style="fill: url(#gr53); stroke: rgb(0, 0, 0); stroke-width: 0;"/><defs><linearGradient id="gr54" x1="0%" x2="100%" y1="0%" y2="100%"><stop offset="0%" stop-color="rgb(137,177,75)"/><stop offset="100%" stop-color="rgb(111,162,68)"/></linearGradient></defs><polygon id="triangle36" points="399,616 591,828 400,793" style="fill: url(#gr54); stroke: rgb(0, 0, 0); stroke-width: 0;"/><defs><linearGradient id="gr55" x1="0%" x2="100%" y1="0%" y2="100%"><stop offset="0%" stop-color="rgb(96,152,63)"/><stop offset="100%" stop-color="rgb(88,148,61)"/></linearGradient></defs><polygon id="triangle36" points="591,828 604,970 400,793" style="fill: url(#gr55); stroke: rgb(0, 0, 0); stroke-width: 0;"/><defs><linearGradient id="gr56" x1="0%" x2="100%" y1="0%" y2="100%"><stop offset="0%" stop-color="rgb(138,177,76)"/><stop offset="100%" stop-color="rgb(120,167,70)"/></linearGradient></defs><polygon id="triangle36" points="134,646 180,876 270,658" style="fill: url(#gr56); stroke: rgb(0, 0, 0); stroke-width: 0;"/><defs><linearGradient id="gr57" x1="0%" x2="100%" y1="0%" y2="100%"><stop offset="0%" stop-color="rgb(149,183,78)"/><stop offset="100%" stop-color="rgb(150,184,78)"/></linearGradient></defs><polygon id="triangle36" points="134,646 235,530 270,658" style="fill: url(#gr57); stroke: rgb(0, 0, 0); stroke-width: 0;"/><defs><linearGradient id="gr58" x1="0%" x2="100%" y1="0%" y2="100%"><stop offset="0%" stop-color="rgb(102,156,66)"/><stop offset="100%" stop-color="rgb(123,169,71)"/></linearGradient></defs><polygon id="triangle36" points="180,876 400,793 270,658" style="fill: url(#gr58); stroke: rgb(0, 0, 0); stroke-width: 0;"/><defs><linearGradient id="gr59" x1="0%" x2="100%" y1="0%" y2="100%"><stop offset="0%" stop-color="rgb(154,186,79)"/><stop offset="100%" stop-color="rgb(149,184,78)"/></linearGradient></defs><polygon id="triangle36" points="235,530 399,616 270,658" style="fill: url(#gr59); stroke: rgb(0, 0, 0); stroke-width: 0;"/><defs><linearGradient id="gr60" x1="0%" x2="100%" y1="0%" y2="100%"><stop offset="0%" stop-color="rgb(145,181,78)"/><stop offset="100%" stop-color="rgb(131,173,73)"/></linearGradient></defs><polygon id="triangle36" points="399,616 400,793 270,658" style="fill: url(#gr60); stroke: rgb(0, 0, 0); stroke-width: 0;"/><defs><linearGradient id="gr61" x1="0%" x2="100%" y1="0%" y2="100%"><stop offset="0%" stop-color="rgb(163,193,101)"/><stop offset="100%" stop-color="rgb(145,180,76)"/></linearGradient></defs><polygon id="triangle36" points="11,90 36,236 9,385" style="fill: url(#gr61); stroke: rgb(0, 0, 0); stroke-width: 0;"/><defs><linearGradient id="gr62" x1="0%" x2="100%" y1="0%" y2="100%"><stop offset="0%" stop-color="rgb(147,181,73)"/><stop offset="100%" stop-color="rgb(142,179,72)"/></linearGradient></defs><polygon id="triangle36" points="149,429 182,295 9,385" style="fill: url(#gr62); stroke: rgb(0, 0, 0); stroke-width: 0;"/><defs><linearGradient id="gr63" x1="0%" x2="100%" y1="0%" y2="100%"><stop offset="0%" stop-color="rgb(94,151,62)"/><stop offset="100%" stop-color="rgb(120,166,68)"/></linearGradient></defs><polygon id="triangle36" points="18,976 20,863 9,385" style="fill: url(#gr63); stroke: rgb(0, 0, 0); stroke-width: 0;"/><defs><linearGradient id="gr64" x1="0%" x2="100%" y1="0%" y2="100%"><stop offset="0%" stop-color="rgb(122,167,70)"/><stop offset="100%" stop-color="rgb(150,184,77)"/></linearGradient></defs><polygon id="triangle36" points="20,863 64,543 9,385" style="fill: url(#gr64); stroke: rgb(0, 0, 0); stroke-width: 0;"/><defs><linearGradient id="gr65" x1="0%" x2="100%" y1="0%" y2="100%"><stop offset="0%" stop-color="rgb(143,179,76)"/><stop offset="100%" stop-color="rgb(142,178,72)"/></linearGradient></defs><polygon id="triangle36" points="36,236 182,295 9,385" style="fill: url(#gr65); stroke: rgb(0, 0, 0); stroke-width: 0;"/><defs><linearGradient id="gr66" x1="0%" x2="100%" y1="0%" y2="100%"><stop offset="0%" stop-color="rgb(154,186,78)"/><stop offset="100%" stop-color="rgb(149,182,74)"/></linearGradient></defs><polygon id="triangle36" points="64,543 149,429 9,385" style="fill: url(#gr66); stroke: rgb(0, 0, 0); stroke-width: 0;"/></svg>