<svg xmlns="http://www.w3.org/2000/svg" width="1000" height="1000" version="1.1"><defs><linearGradient id="gr0" x1="0%" x2="100%" y1="0%" y2="100%"><stop offset="0%" stop-color="rgb(135,197,222)"/><stop offset="100%" stop-color="rgb(179,213,229)"/></linearGradient></defs><polygon id="triangle36" points="13,222 15,8 180,14" style="fill: url(#gr0); stroke: rgb(0, 0, 0); stroke-width: 0;"/><defs><linearGradient id="gr1" x1="0%" x2="100%" y1="0%" y2="100%"><stop offset="0%" stop-color="rgb(124,193,220)"/><stop offset="100%" stop-color="rgb(150,202,225)"/></linearGradient></defs><polygon id="triangle36" points="13,222 257,182 180,14" style="fill: url(#gr1); stroke: rgb(0, 0, 0); stroke-width: 0;"/><defs><linearGradient id="gr2" x1="0%" x2="100%" y1="0%" y2="100%"><stop offset="0%" stop-color="rgb(123,192,221)"/><stop offset="100%" stop-color="rgb(121,191,220)"/></linearGradient></defs><polygon id="triangle36" points="257,182 441,99 435,276" style="fill: url(#gr2); stroke: rgb(0, 0, 0); stroke-width: 0;"/><defs><linearGradient id="gr3" x1="0%" x2="100%" y1="0%" y2="100%"><stop offset="0%" stop-color="rgb(101,184,218)"/><stop offset="100%" stop-color="rgb(63,170,211)"/></linearGradient></defs><polygon id="triangle36" points="257,182 435,276 320,395" style="fill: url(#gr3); stroke: rgb(0, 0, 0); stroke-width: 0;"/><defs><linearGradient id="gr4" x1="0%" x2="100%" y1="0%" y2="100%"><stop offset="0%" stop-color="rgb(93,181,216)"/><stop offset="100%" stop-color="rgb(74,174,213)"/></linearGradient></defs><polygon id="triangle36" points="13,222 257,182 113,429" style="fill: url(#gr4); stroke: rgb(0, 0, 0); stroke-width: 0;"/><defs><linearGradient id="gr5" x1="0%" x2="100%" y1="0%" y2="100%"><stop offset="0%" stop-color="rgb(89,180,216)"/><stop offset="100%" stop-color="rgb(35,158,206)"/></linearGradient></defs><polygon id="triangle36" points="257,182 320,395 113,429" style="fill: url(#gr5); stroke: rgb(0, 0, 0); stroke-width: 0;"/><defs><linearGradient id="gr6" x1="0%" x2="100%" y1="0%" y2="100%"><stop offset="0%" stop-color="rgb(80,176,214)"/><stop offset="100%" stop-color="rgb(38,160,207)"/></linearGradient></defs><polygon id="triangle36" points="13,222 113,429 17,364" style="fill: url(#gr6); stroke: rgb(0, 0, 0); stroke-width: 0;"/><defs><linearGradient id="gr7" x1="0%" x2="100%" y1="0%" y2="100%"><stop offset="0%" stop-color="rgb(15,150,202)"/><stop offset="100%" stop-color="rgb(14,147,201)"/></linearGradient></defs><polygon id="triangle36" points="113,429 320,395 140,561" style="fill: url(#gr7); stroke: rgb(0, 0, 0); stroke-width: 0;"/><defs><linearGradient id="gr8" x1="0%" x2="100%" y1="0%" y2="100%"><stop offset="0%" stop-color="rgb(9,147,200)"/><stop offset="100%" stop-color="rgb(0,138,196)"/></linearGradient></defs><polygon id="triangle36" points="113,429 140,561 42,561" style="fill: url(#gr8); stroke: rgb(0, 0, 0); stroke-width: 0;"/><defs><linearGradient id="gr9" x1="0%" x2="100%" y1="0%" y2="100%"><stop offset="0%" stop-color="rgb(28,155,205)"/><stop offset="100%" stop-color="rgb(10,146,200)"/></linearGradient></defs><polygon id="triangle36" points="17,364 113,429 42,561" style="fill: url(#gr9); stroke: rgb(0, 0, 0); stroke-width: 0;"/><defs><linearGradient id="gr10" x1="0%" x2="100%" y1="0%" y2="100%"><stop offset="0%" stop-color="rgb(0,139,196)"/><stop offset="100%" stop-color="rgb(10,143,198)"/></linearGradient></defs><polygon id="triangle36" points="140,561 320,395 284,623" style="fill: url(#gr10); stroke: rgb(0, 0, 0); stroke-width: 0;"/><defs><linearGradient id="gr11" x1="0%" x2="100%" y1="0%" y2="100%"><stop offset="0%" stop-color="rgb(1,138,195)"/><stop offset="100%" stop-color="rgb(13,149,202)"/></linearGradient></defs><polygon id="triangle36" points="284,623 320,395 486,467" style="fill: url(#gr11); stroke: rgb(0, 0, 0); stroke-width: 0;"/><defs><linearGradient id="gr12" x1="0%" x2="100%" y1="0%" y2="100%"><stop offset="0%" stop-color="rgb(0,133,192)"/><stop offset="100%" stop-color="rgb(2,137,194)"/></linearGradient></defs><polygon id="triangle36" points="284,623 484,658 486,467" style="fill: url(#gr12); stroke: rgb(0, 0, 0); stroke-width: 0;"/><defs><linearGradient id="gr13" x1="0%" x2="100%" y1="0%" y2="100%"><stop offset="0%" stop-color="rgb(34,158,206)"/><stop offset="100%" stop-color="rgb(42,161,207)"/></linearGradient></defs><polygon id="triangle36" points="320,395 435,276 486,467" style="fill: url(#gr13); stroke: rgb(0, 0, 0); stroke-width: 0;"/><defs><linearGradient id="gr14" x1="0%" x2="100%" y1="0%" y2="100%"><stop offset="0%" stop-color="rgb(58,168,210)"/><stop offset="100%" stop-color="rgb(23,154,204)"/></linearGradient></defs><polygon id="triangle36" points="435,276 486,467 647,410" style="fill: url(#gr14); stroke: rgb(0, 0, 0); stroke-width: 0;"/><defs><linearGradient id="gr15" x1="0%" x2="100%" y1="0%" y2="100%"><stop offset="0%" stop-color="rgb(73,174,212)"/><stop offset="100%" stop-color="rgb(61,169,211)"/></linearGradient></defs><polygon id="triangle36" points="435,276 647,410 696,247" style="fill: url(#gr15); stroke: rgb(0, 0, 0); stroke-width: 0;"/><defs><linearGradient id="gr16" x1="0%" x2="100%" y1="0%" y2="100%"><stop offset="0%" stop-color="rgb(107,187,218)"/><stop offset="100%" stop-color="rgb(150,202,225)"/></linearGradient></defs><polygon id="triangle36" points="435,276 441,99 668,103" style="fill: url(#gr16); stroke: rgb(0, 0, 0); stroke-width: 0;"/><defs><linearGradient id="gr17" x1="0%" x2="100%" y1="0%" y2="100%"><stop offset="0%" stop-color="rgb(97,183,217)"/><stop offset="100%" stop-color="rgb(121,192,221)"/></linearGradient></defs><polygon id="triangle36" points="435,276 696,247 668,103" style="fill: url(#gr17); stroke: rgb(0, 0, 0); stroke-width: 0;"/><defs><linearGradient id="gr18" x1="0%" x2="100%" y1="0%" y2="100%"><stop offset="0%" stop-color="rgb(163,208,227)"/><stop offset="100%" stop-color="rgb(170,210,228)"/></linearGradient></defs><polygon id="triangle36" points="441,99 668,103 523,10" style="fill: url(#gr18); stroke: rgb(0, 0, 0); stroke-width: 0;"/><defs><linearGradient id="gr19" x1="0%" x2="100%" y1="0%" y2="100%"><stop offset="0%" stop-color="rgb(187,216,230)"/><stop offset="100%" stop-color="rgb(187,216,230)"/></linearGradient></defs><polygon id="triangle36" points="15,8 180,14 329,5" style="fill: url(#gr19); stroke: rgb(0, 0, 0); stroke-width: 0;"/><defs><linearGradient id="gr20" x1="0%" x2="100%" y1="0%" y2="100%"><stop offset="0%" stop-color="rgb(178,212,229)"/><stop offset="100%" stop-color="rgb(160,206,227)"/></linearGradient></defs><polygon id="triangle36" points="180,14 257,182 329,5" style="fill: url(#gr20); stroke: rgb(0, 0, 0); stroke-width: 0;"/><defs><linearGradient id="gr21" x1="0%" x2="100%" y1="0%" y2="100%"><stop offset="0%" stop-color="rgb(142,200,224)"/><stop offset="100%" stop-color="rgb(169,210,228)"/></linearGradient></defs><polygon id="triangle36" points="257,182 441,99 329,5" style="fill: url(#gr21); stroke: rgb(0, 0, 0); stroke-width: 0;"/><defs><linearGradient id="gr22" x1="0%" x2="100%" y1="0%" y2="100%"><stop offset="0%" stop-color="rgb(169,210,228)"/><stop offset="100%" stop-color="rgb(184,215,230)"/></linearGradient></defs><polygon id="triangle36" points="441,99 523,10 329,5" style="fill: url(#gr22); stroke: rgb(0, 0, 0); stroke-width: 0;"/><defs><linearGradient id="gr23" x1="0%" x2="100%" y1="0%" y2="100%"><stop offset="0%" stop-color="rgb(21,151,202)"/><stop offset="100%" stop-color="rgb(0,135,193)"/></linearGradient></defs><polygon id="triangle36" points="17,364 42,561 23,668" style="fill: url(#gr23); stroke: rgb(0, 0, 0); stroke-width: 0;"/><defs><linearGradient id="gr24" x1="0%" x2="100%" y1="0%" y2="100%"><stop offset="0%" stop-color="rgb(0,135,194)"/><stop offset="100%" stop-color="rgb(0,133,192)"/></linearGradient></defs><polygon id="triangle36" points="42,561 140,561 23,668" style="fill: url(#gr24); stroke: rgb(0, 0, 0); stroke-width: 0;"/><defs><linearGradient id="gr25" x1="0%" x2="100%" y1="0%" y2="100%"><stop offset="0%" stop-color="rgb(0,132,191)"/><stop offset="100%" stop-color="rgb(0,125,185)"/></linearGradient></defs><polygon id="triangle36" points="140,561 284,623 187,832" style="fill: url(#gr25); stroke: rgb(0, 0, 0); stroke-width: 0;"/><defs><linearGradient id="gr26" x1="0%" x2="100%" y1="0%" y2="100%"><stop offset="0%" stop-color="rgb(0,127,188)"/><stop offset="100%" stop-color="rgb(0,126,186)"/></linearGradient></defs><polygon id="triangle36" points="23,668 140,561 187,832" style="fill: url(#gr26); stroke: rgb(0, 0, 0); stroke-width: 0;"/><defs><linearGradient id="gr27" x1="0%" x2="100%" y1="0%" y2="100%"><stop offset="0%" stop-color="rgb(0,118,179)"/><stop offset="100%" stop-color="rgb(0,122,183)"/></linearGradient></defs><polygon id="triangle36" points="187,832 284,623 455,864" style="fill: url(#gr27); stroke: rgb(0, 0, 0); stroke-width: 0;"/><defs><linearGradient id="gr28" x1="0%" x2="100%" y1="0%" y2="100%"><stop offset="0%" stop-color="rgb(0,128,188)"/><stop offset="100%" stop-color="rgb(0,122,184)"/></linearGradient></defs><polygon id="triangle36" points="284,623 484,658 455,864" style="fill: url(#gr28); stroke: rgb(0, 0, 0); stroke-width: 0;"/><defs><linearGradient id="gr29" x1="0%" x2="100%" y1="0%" y2="100%"><stop offset="0%" stop-color="rgb(0,118,179)"/><stop offset="100%" stop-color="rgb(0,123,184)"/></linearGradient></defs><polygon id="triangle36" points="455,864 484,658 700,780" style="fill: url(#gr29); stroke: rgb(0, 0, 0); stroke-width: 0;"/><defs><linearGradient id="gr30" x1="0%" x2="100%" y1="0%" y2="100%"><stop offset="0%" stop-color="rgb(142,199,224)"/><stop offset="100%" stop-color="rgb(116,190,220)"/></linearGradient></defs><polygon id="triangle36" points="668,103 696,247 965,172" style="fill: url(#gr30); stroke: rgb(0, 0, 0); stroke-width: 0;"/><defs><linearGradient id="gr31" x1="0%" x2="100%" y1="0%" y2="100%"><stop offset="0%" stop-color="rgb(93,182,216)"/><stop offset="100%" stop-color="rgb(91,181,216)"/></linearGradient></defs><polygon id="triangle36" points="696,247 953,337 965,172" style="fill: url(#gr31); stroke: rgb(0, 0, 0); stroke-width: 0;"/><defs><linearGradient id="gr32" x1="0%" x2="100%" y1="0%" y2="100%"><stop offset="0%" stop-color="rgb(157,205,226)"/><stop offset="100%" stop-color="rgb(156,205,226)"/></linearGradient></defs><polygon id="triangle36" points="668,103 965,172 911,26" style="fill: url(#gr32); stroke: rgb(0, 0, 0); stroke-width: 0;"/><defs><linearGradient id="gr33" x1="0%" x2="100%" y1="0%" y2="100%"><stop offset="0%" stop-color="rgb(187,216,230)"/><stop offset="100%" stop-color="rgb(187,216,230)"/></linearGradient></defs><polygon id="triangle36" points="329,5 523,10 730,6" style="fill: url(#gr33); stroke: rgb(0, 0, 0); stroke-width: 0;"/><defs><linearGradient id="gr34" x1="0%" x2="100%" y1="0%" y2="100%"><stop offset="0%" stop-color="rgb(182,215,230)"/><stop offset="100%" stop-color="rgb(174,211,229)"/></linearGradient></defs><polygon id="triangle36" points="523,10 668,103 730,6" style="fill: url(#gr34); stroke: rgb(0, 0, 0); stroke-width: 0;"/><defs><linearGradient id="gr35" x1="0%" x2="100%" y1="0%" y2="100%"><stop offset="0%" stop-color="rgb(167,209,228)"/><stop offset="100%" stop-color="rgb(182,214,230)"/></linearGradient></defs><polygon id="triangle36" points="668,103 911,26 730,6" style="fill: url(#gr35); stroke: rgb(0, 0, 0); stroke-width: 0;"/><defs><linearGradient id="gr36" x1="0%" x2="100%" y1="0%" y2="100%"><stop offset="0%" stop-color="rgb(0,131,191)"/><stop offset="100%" stop-color="rgb(2,138,195)"/></linearGradient></defs><polygon id="triangle36" points="484,658 486,467 599,625" style="fill: url(#gr36); stroke: rgb(0, 0, 0); stroke-width: 0;"/><defs><linearGradient id="gr37" x1="0%" x2="100%" y1="0%" y2="100%"><stop offset="0%" stop-color="rgb(0,127,188)"/><stop offset="100%" stop-color="rgb(0,126,186)"/></linearGradient></defs><polygon id="triangle36" points="484,658 700,780 599,625" style="fill: url(#gr37); stroke: rgb(0, 0, 0); stroke-width: 0;"/><defs><linearGradient id="gr38" x1="0%" x2="100%" y1="0%" y2="100%"><stop offset="0%" stop-color="rgb(4,146,200)"/><stop offset="100%" stop-color="rgb(8,143,198)"/></linearGradient></defs><polygon id="triangle36" points="486,467 647,410 599,625" style="fill: url(#gr38); stroke: rgb(0, 0, 0); stroke-width: 0;"/><defs><linearGradient id="gr39" x1="0%" x2="100%" y1="0%" y2="100%"><stop offset="0%" stop-color="rgb(0,123,184)"/><stop offset="100%" stop-color="rgb(0,128,188)"/></linearGradient></defs><polygon id="triangle36" points="700,780 849,672 599,625" style="fill: url(#gr39); stroke: rgb(0, 0, 0); stroke-width: 0;"/><defs><linearGradient id="gr40" x1="0%" x2="100%" y1="0%" y2="100%"><stop offset="0%" stop-color="rgb(0,137,195)"/><stop offset="100%" stop-color="rgb(10,148,201)"/></linearGradient></defs><polygon id="triangle36" points="599,625 647,410 811,482" style="fill: url(#gr40); stroke: rgb(0, 0, 0); stroke-width: 0;"/><defs><linearGradient id="gr41" x1="0%" x2="100%" y1="0%" y2="100%"><stop offset="0%" stop-color="rgb(0,133,192)"/><stop offset="100%" stop-color="rgb(1,135,193)"/></linearGradient></defs><polygon id="triangle36" points="599,625 849,672 811,482" style="fill: url(#gr41); stroke: rgb(0, 0, 0); stroke-width: 0;"/><defs><linearGradient id="gr42" x1="0%" x2="100%" y1="0%" y2="100%"><stop offset="0%" stop-color="rgb(32,157,206)"/><stop offset="100%" stop-color="rgb(45,163,208)"/></linearGradient></defs><polygon id="triangle36" points="647,410 696,247 811,482" style="fill: url(#gr42); stroke: rgb(0, 0, 0); stroke-width: 0;"/><defs><linearGradient id="gr43" x1="0%" x2="100%" y1="0%" y2="100%"><stop offset="0%" stop-color="rgb(70,173,212)"/><stop offset="100%" stop-color="rgb(35,159,206)"/></linearGradient></defs><polygon id="triangle36" points="696,247 953,337 811,482" style="fill: url(#gr43); stroke: rgb(0, 0, 0); stroke-width: 0;"/><defs><linearGradient id="gr44" x1="0%" x2="100%" y1="0%" y2="100%"><stop offset="0%" stop-color="rgb(0,134,192)"/><stop offset="100%" stop-color="rgb(5,145,200)"/></linearGradient></defs><polygon id="triangle36" points="849,672 953,453 811,482" style="fill: url(#gr44); stroke: rgb(0, 0, 0); stroke-width: 0;"/><defs><linearGradient id="gr45" x1="0%" x2="100%" y1="0%" y2="100%"><stop offset="0%" stop-color="rgb(37,160,207)"/><stop offset="100%" stop-color="rgb(12,149,202)"/></linearGradient></defs><polygon id="triangle36" points="953,337 953,453 811,482" style="fill: url(#gr45); stroke: rgb(0, 0, 0); stroke-width: 0;"/><defs><linearGradient id="gr46" x1="0%" x2="100%" y1="0%" y2="100%"><stop offset="0%" stop-color="rgb(0,120,181)"/><stop offset="100%" stop-color="rgb(0,121,182)"/></linearGradient></defs><polygon id="triangle36" points="700,780 849,672 861,858" style="fill: url(#gr46); stroke: rgb(0, 0, 0); stroke-width: 0;"/><defs><linearGradient id="gr47" x1="0%" x2="100%" y1="0%" y2="100%"><stop offset="0%" stop-color="rgb(0,118,179)"/><stop offset="100%" stop-color="rgb(0,114,175)"/></linearGradient></defs><polygon id="triangle36" points="700,780 861,858 735,935" style="fill: url(#gr47); stroke: rgb(0, 0, 0); stroke-width: 0;"/><defs><linearGradient id="gr48" x1="0%" x2="100%" y1="0%" y2="100%"><stop offset="0%" stop-color="rgb(0,115,177)"/><stop offset="100%" stop-color="rgb(1,113,175)"/></linearGradient></defs><polygon id="triangle36" points="187,832 455,864 193,951" style="fill: url(#gr48); stroke: rgb(0, 0, 0); stroke-width: 0;"/><defs><linearGradient id="gr49" x1="0%" x2="100%" y1="0%" y2="100%"><stop offset="0%" stop-color="rgb(1,113,175)"/><stop offset="100%" stop-color="rgb(3,111,173)"/></linearGradient></defs><polygon id="triangle36" points="455,864 488,970 193,951" style="fill: url(#gr49); stroke: rgb(0, 0, 0); stroke-width: 0;"/><defs><linearGradient id="gr50" x1="0%" x2="100%" y1="0%" y2="100%"><stop offset="0%" stop-color="rgb(0,123,184)"/><stop offset="100%" stop-color="rgb(0,115,177)"/></linearGradient></defs><polygon id="triangle36" points="23,668 187,832 27,924" style="fill: url(#gr50); stroke: rgb(0, 0, 0); stroke-width: 0;"/><defs><linearGradient id="gr51" x1="0%" x2="100%" y1="0%" y2="100%"><stop offset="0%" stop-color="rgb(0,124,186)"/><stop offset="100%" stop-color="rgb(0,121,183)"/></linearGradient></defs><polygon id="triangle36" points="849,672 861,858 987,679" style="fill: url(#gr51); stroke: rgb(0, 0, 0); stroke-width: 0;"/><defs><linearGradient id="gr52" x1="0%" x2="100%" y1="0%" y2="100%"><stop offset="0%" stop-color="rgb(0,131,190)"/><stop offset="100%" stop-color="rgb(4,137,194)"/></linearGradient></defs><polygon id="triangle36" points="849,672 953,453 987,679" style="fill: url(#gr52); stroke: rgb(0, 0, 0); stroke-width: 0;"/><defs><linearGradient id="gr53" x1="0%" x2="100%" y1="0%" y2="100%"><stop offset="0%" stop-color="rgb(0,117,178)"/><stop offset="100%" stop-color="rgb(0,119,180)"/></linearGradient></defs><polygon id="triangle36" points="861,858 987,679 971,916" style="fill: url(#gr53); stroke: rgb(0, 0, 0); stroke-width: 0;"/><defs><linearGradient id="gr54" x1="0%" x2="100%" y1="0%" y2="100%"><stop offset="0%" stop-color="rgb(2,111,174)"/><stop offset="100%" stop-color="rgb(2,112,175)"/></linearGradient></defs><polygon id="triangle36" points="735,935 861,858 875,974" style="fill: url(#gr54); stroke: rgb(0, 0, 0); stroke-width: 0;"/><defs><linearGradient id="gr55" x1="0%" x2="100%" y1="0%" y2="100%"><stop offset="0%" stop-color="rgb(0,114,175)"/><stop offset="100%" stop-color="rgb(1,111,173)"/></linearGradient></defs><polygon id="triangle36" points="861,858 971,916 875,974" style="fill: url(#gr55); stroke: rgb(0, 0, 0); stroke-width: 0;"/><defs><linearGradient id="gr56" x1="0%" x2="100%" y1="0%" y2="100%"><stop offset="0%" stop-color="rgb(1,113,175)"/><stop offset="100%" stop-color="rgb(4,110,172)"/></linearGradient></defs><polygon id="triangle36" points="455,864 488,970 624,978" style="fill: url(#gr56); stroke: rgb(0, 0, 0); stroke-width: 0;"/><defs><linearGradient id="gr57" x1="0%" x2="100%" y1="0%" y2="100%"><stop offset="0%" stop-color="rgb(0,114,176)"/><stop offset="100%" stop-color="rgb(2,114,176)"/></linearGradient></defs><polygon id="triangle36" points="455,864 700,780 624,978" style="fill: url(#gr57); stroke: rgb(0, 0, 0); stroke-width: 0;"/><defs><linearGradient id="gr58" x1="0%" x2="100%" y1="0%" y2="100%"><stop offset="0%" stop-color="rgb(0,116,178)"/><stop offset="100%" stop-color="rgb(2,111,173)"/></linearGradient></defs><polygon id="triangle36" points="700,780 735,935 624,978" style="fill: url(#gr58); stroke: rgb(0, 0, 0); stroke-width: 0;"/><defs><linearGradient id="gr59" x1="0%" x2="100%" y1="0%" y2="100%"><stop offset="0%" stop-color="rgb(3,110,172)"/><stop offset="100%" stop-color="rgb(5,110,172)"/></linearGradient></defs><polygon id="triangle36" points="735,935 875,974 624,978" style="fill: url(#gr59); stroke: rgb(0, 0, 0); stroke-width: 0;"/><defs><linearGradient id="gr60" x1="0%" x2="100%" y1="0%" y2="100%"><stop offset="0%" stop-color="rgb(0,114,176)"/><stop offset="100%" stop-color="rgb(3,111,173)"/></linearGradient></defs><polygon id="triangle36" points="187,832 193,951 103,976" style="fill: url(#gr60); stroke: rgb(0, 0, 0); stroke-width: 0;"/><defs><linearGradient id="gr61" x1="0%" x2="100%" y1="0%" y2="100%"><stop offset="0%" stop-color="rgb(3,110,172)"/><stop offset="100%" stop-color="rgb(4,110,172)"/></linearGradient></defs><polygon id="triangle36" points="193,951 488,970 103,976" style="fill: url(#gr61); stroke: rgb(0, 0, 0); stroke-width: 0;"/><defs><linearGradient id="gr62" x1="0%" x2="100%" y1="0%" y2="100%"><stop offset="0%" stop-color="rgb(1,112,175)"/><stop offset="100%" stop-color="rgb(1,113,175)"/></linearGradient></defs><polygon id="triangle36" points="27,924 187,832 103,976" style="fill: url(#gr62); stroke: rgb(0, 0, 0); stroke-width: 0;"/><defs><linearGradient id="gr63" x1="0%" x2="100%" y1="0%" y2="100%"><stop offset="0%" stop-color="rgb(4,110,172)"/><stop offset="100%" stop-color="rgb(5,110,173)"/></linearGradient></defs><polygon id="triangle36" points="488,970 624,978 103,976" style="fill: url(#gr63); stroke: rgb(0, 0, 0); stroke-width: 0;"/><defs><linearGradient id="gr64" x1="0%" x2="100%" y1="0%" y2="100%"><stop offset="0%" stop-color="rgb(185,215,230)"/><stop offset="100%" stop-color="rgb(182,214,230)"/></linearGradient></defs><polygon id="triangle36" points="730,6 911,26 994,31" style="fill: url(#gr64); stroke: rgb(0, 0, 0); stroke-width: 0;"/><defs><linearGradient id="gr65" x1="0%" x2="100%" y1="0%" y2="100%"><stop offset="0%" stop-color="rgb(174,212,228)"/><stop offset="100%" stop-color="rgb(158,206,226)"/></linearGradient></defs><polygon id="triangle36" points="911,26 965,172 994,31" style="fill: url(#gr65); stroke: rgb(0, 0, 0); stroke-width: 0;"/><defs><linearGradient id="gr66" x1="0%" x2="100%" y1="0%" y2="100%"><stop offset="0%" stop-color="rgb(22,153,204)"/><stop offset="100%" stop-color="rgb(39,161,207)"/></linearGradient></defs><polygon id="triangle36" points="953,453 953,337 993,389" style="fill: url(#gr66); stroke: rgb(0, 0, 0); stroke-width: 0;"/><defs><linearGradient id="gr67" x1="0%" x2="100%" y1="0%" y2="100%"><stop offset="0%" stop-color="rgb(62,170,212)"/><stop offset="100%" stop-color="rgb(77,175,213)"/></linearGradient></defs><polygon id="triangle36" points="953,337 965,172 993,389" style="fill: url(#gr67); stroke: rgb(0, 0, 0); stroke-width: 0;"/><defs><linearGradient id="gr68" x1="0%" x2="100%" y1="0%" y2="100%"><stop offset="0%" stop-color="rgb(6,146,201)"/><stop offset="100%" stop-color="rgb(11,142,197)"/></linearGradient></defs><polygon id="triangle36" points="953,453 987,679 993,389" style="fill: url(#gr68); stroke: rgb(0, 0, 0); stroke-width: 0;"/><defs><linearGradient id="gr69" x1="0%" x2="100%" y1="0%" y2="100%"><stop offset="0%" stop-color="rgb(122,193,221)"/><stop offset="100%" stop-color="rgb(110,187,218)"/></linearGradient></defs><polygon id="triangle36" points="965,172 994,31 993,389" style="fill: url(#gr69); stroke: rgb(0, 0, 0); stroke-width: 0;"/></svg>