<?xml version="1.0" encoding="iso-8859-1"?>
<!-- Generator: Adobe Illustrator 17.1.0, SVG Export Plug-In . SVG Version: 6.00 Build 0)  -->
<!DOCTYPE svg PUBLIC "-//W3C//DTD SVG 1.1//EN" "http://www.w3.org/Graphics/SVG/1.1/DTD/svg11.dtd">
<svg version="1.1" xmlns="http://www.w3.org/2000/svg" xmlns:xlink="http://www.w3.org/1999/xlink" x="0px" y="0px"
	 viewBox="0 0 60 120" style="enable-background:new 0 0 60 120;" xml:space="preserve">
<g id="facebook">
	<rect y="60" style="fill:#3B5997;" width="60" height="60"/>
	<path id="facebook_2_" style="fill-rule:evenodd;clip-rule:evenodd;fill:#FFFFFF;" d="M36.24,77.51v5.207h-3.123
		c0,0-1.041,0.01-1.041,1.041v2.082h4.164l-1.02,5.228l-3.144-0.021V102.5h-5.207V91.046h-3.123V85.84h3.123l0.25-3.478
		c0,0-0.447-4.862,4.582-4.862S36.24,77.51,36.24,77.51z"/>
	<rect style="fill:#888888;" width="60" height="60"/>
	<path id="facebook_1_" style="fill-rule:evenodd;clip-rule:evenodd;fill:#FFFFFF;" d="M36.24,17.51v5.206h-3.123
		c0,0-1.041,0.01-1.041,1.042v2.082h4.164l-1.02,5.227l-3.144-0.021V42.5h-5.207V31.046h-3.123V25.84h3.123l0.25-3.478
		c0,0-0.447-4.862,4.582-4.862S36.24,17.51,36.24,17.51z"/>
</g>
<g id="Layer_1">
</g>
</svg>
