<?xml version="1.0" encoding="iso-8859-1"?>
<!-- Generator: Adobe Illustrator 17.1.0, SVG Export Plug-In . SVG Version: 6.00 Build 0)  -->
<!DOCTYPE svg PUBLIC "-//W3C//DTD SVG 1.1//EN" "http://www.w3.org/Graphics/SVG/1.1/DTD/svg11.dtd">
<svg version="1.1" xmlns="http://www.w3.org/2000/svg" xmlns:xlink="http://www.w3.org/1999/xlink" x="0px" y="0px"
	 viewBox="0 0 60 120" style="enable-background:new 0 0 60 120;" xml:space="preserve">
<g id="instagram">
	<rect y="60.001" style="fill:#517EA3;" width="60" height="59.999"/>
	<path id="instagram_2_" style="fill-rule:evenodd;clip-rule:evenodd;fill:#FEFEFE;" d="M42.5,86.212
		c-0.011,4.522,0.003,9.044-0.012,13.565c-0.006,1.709-1.063,2.715-2.777,2.717c-3.249,0-6.497,0-9.746,0c-3.232,0-6.465,0-9.697,0
		c-1.711-0.002-2.756-1.027-2.758-2.73c-0.004-4.488,0.004-8.977-0.01-13.467c-0.001-0.411,0.084-0.562,0.535-0.558
		c2.073,0.026,4.146,0.021,6.22,0.005c0.416-0.003,0.487,0.061,0.314,0.475c-1.346,3.227,0.328,6.824,3.646,7.883
		c3.283,1.051,6.749-0.971,7.507-4.381c0.271-1.219,0.15-2.408-0.358-3.541c-0.184-0.412-0.064-0.438,0.305-0.436
		c2.122,0.014,4.244,0.016,6.367-0.002C42.405,85.738,42.501,85.854,42.5,86.212z M17.5,84.613c0.02-1.502-0.004-3.004,0.012-4.506
		c0.017-1.554,1.082-2.596,2.641-2.598c3.281-0.004,6.562-0.002,9.844-0.002c3.249,0,6.499,0,9.748,0
		c1.666,0.002,2.714,0.994,2.743,2.65c0.025,1.486-0.004,2.972,0.013,4.457c0.004,0.354-0.124,0.434-0.454,0.432
		c-2.317-0.012-4.637-0.01-6.955-0.002c-0.249,0.001-0.412-0.069-0.578-0.267c-2.44-2.88-6.623-2.885-9.068-0.012
		c-0.175,0.204-0.335,0.306-0.61,0.304c-2.286-0.01-4.572-0.013-6.857,0.002C17.622,85.074,17.495,84.99,17.5,84.613z
		 M35.562,80.615c-0.019,0.504-0.02,1.012,0.002,1.517c0.036,0.844,0.615,1.48,1.46,1.571c0.844,0.09,1.695,0.09,2.539,0.002
		c0.884-0.094,1.468-0.761,1.494-1.652c0.014-0.457,0.013-0.914,0-1.371c-0.024-0.966-0.7-1.652-1.669-1.697
		c-0.357-0.018-0.718-0.003-1.076-0.003c0,0.001,0,0.003,0,0.005c-0.392,0-0.785-0.023-1.175,0.004
		C36.234,79.053,35.597,79.712,35.562,80.615z M23.102,81.346c0.001,0.75,0.013,1.5-0.005,2.251
		c-0.007,0.345,0.187,0.345,0.438,0.351c0.263,0.006,0.379-0.07,0.377-0.359c-0.011-1.467-0.013-2.936,0.001-4.403
		c0.004-0.321-0.137-0.372-0.411-0.378c-0.288-0.004-0.411,0.078-0.404,0.387C23.113,79.91,23.102,80.628,23.102,81.346z
		 M21.661,83.559c-0.003,0.301,0.091,0.392,0.389,0.393c0.315,0.001,0.43-0.088,0.419-0.418c-0.024-0.717-0.007-1.437-0.007-2.154
		c0-0.719-0.017-1.438,0.007-2.156c0.011-0.33-0.104-0.418-0.419-0.418c-0.298,0.002-0.392,0.093-0.389,0.394
		C21.674,80.652,21.674,82.106,21.661,83.559z M20.148,83.551c-0.004,0.348,0.154,0.396,0.445,0.398
		c0.287,0.002,0.409-0.07,0.4-0.383c-0.019-0.719-0.007-1.438-0.007-2.156c0-0.734-0.011-1.47,0.005-2.204
		c0.008-0.292-0.076-0.411-0.383-0.4c-0.274,0.012-0.465,0.02-0.461,0.385C20.164,80.644,20.164,82.098,20.148,83.551z
		 M18.81,83.576c-0.003,0.268,0.073,0.376,0.356,0.375c0.283-0.002,0.41-0.072,0.406-0.383c-0.013-1.172-0.005-2.343-0.004-3.514
		c0-0.304,0-0.607,0-0.99c-0.453,0.312-0.75,0.609-0.752,1.096C18.811,81.299,18.82,82.438,18.81,83.576z M35.223,88.52
		c0.003,2.914-2.345,5.262-5.254,5.254c-2.879-0.008-5.231-2.359-5.236-5.236c-0.008-2.896,2.357-5.252,5.268-5.248
		C32.889,83.293,35.219,85.627,35.223,88.52z M34.247,88.563c0.028-2.351-1.846-4.281-4.167-4.293
		c-2.381-0.014-4.293,1.859-4.298,4.212c-0.005,2.345,1.873,4.235,4.218,4.245C32.324,92.736,34.22,90.877,34.247,88.563z"/>
	<rect y="0" style="fill:#888888;" width="60" height="60"/>
	<path id="instagram_1_" style="fill-rule:evenodd;clip-rule:evenodd;fill:#FEFEFE;" d="M42.5,26.211
		c-0.011,4.522,0.003,9.044-0.012,13.566c-0.006,1.708-1.063,2.715-2.777,2.716c-3.249,0-6.497,0-9.746,0c-3.232,0-6.465,0-9.697,0
		c-1.711-0.001-2.756-1.027-2.758-2.729c-0.004-4.488,0.004-8.978-0.01-13.467c-0.001-0.412,0.084-0.563,0.535-0.558
		c2.073,0.026,4.146,0.02,6.22,0.004c0.416-0.003,0.487,0.06,0.314,0.476c-1.346,3.226,0.328,6.823,3.646,7.883
		c3.283,1.05,6.749-0.971,7.507-4.382c0.271-1.218,0.15-2.408-0.358-3.541c-0.184-0.411-0.064-0.436,0.305-0.435
		c2.122,0.013,4.244,0.016,6.367-0.002C42.405,25.738,42.501,25.853,42.5,26.211z M17.5,24.613c0.02-1.502-0.004-3.004,0.012-4.506
		c0.017-1.554,1.082-2.597,2.641-2.598c3.281-0.004,6.562-0.001,9.844-0.001c3.249,0,6.499-0.001,9.748,0
		c1.666,0.001,2.714,0.994,2.743,2.65c0.025,1.485-0.004,2.971,0.013,4.457c0.004,0.353-0.124,0.433-0.454,0.431
		c-2.317-0.012-4.637-0.01-6.955-0.001c-0.249,0-0.412-0.07-0.578-0.267c-2.44-2.88-6.623-2.885-9.068-0.012
		c-0.175,0.205-0.335,0.306-0.61,0.304c-2.286-0.011-4.572-0.013-6.857,0.002C17.622,25.074,17.495,24.99,17.5,24.613z
		 M35.562,20.614c-0.019,0.505-0.02,1.012,0.002,1.517c0.036,0.844,0.615,1.48,1.46,1.571c0.844,0.091,1.695,0.09,2.539,0.002
		c0.884-0.093,1.468-0.76,1.494-1.652c0.014-0.457,0.013-0.914,0-1.371c-0.024-0.966-0.7-1.652-1.669-1.698
		c-0.357-0.017-0.718-0.002-1.076-0.002c0,0.001,0,0.003,0,0.004c-0.392,0-0.785-0.023-1.175,0.005
		C36.234,19.053,35.597,19.711,35.562,20.614z M23.102,21.345c0.001,0.75,0.013,1.5-0.005,2.251
		c-0.007,0.345,0.187,0.345,0.438,0.351c0.263,0.005,0.379-0.07,0.377-0.359c-0.011-1.468-0.013-2.936,0.001-4.404
		c0.004-0.322-0.137-0.373-0.411-0.378c-0.288-0.005-0.411,0.077-0.404,0.386C23.113,19.91,23.102,20.627,23.102,21.345z
		 M21.661,23.558c-0.003,0.301,0.091,0.392,0.389,0.394c0.315,0,0.43-0.088,0.419-0.418c-0.024-0.718-0.007-1.437-0.007-2.155
		c0-0.718-0.017-1.438,0.007-2.155c0.011-0.33-0.104-0.418-0.419-0.418c-0.298,0.001-0.392,0.092-0.389,0.393
		C21.674,20.651,21.674,22.105,21.661,23.558z M20.148,23.55c-0.004,0.348,0.154,0.397,0.445,0.399
		c0.287,0.002,0.409-0.071,0.4-0.384c-0.019-0.718-0.007-1.437-0.007-2.155c0-0.735-0.011-1.47,0.005-2.205
		c0.008-0.292-0.076-0.411-0.383-0.399c-0.274,0.011-0.465,0.019-0.461,0.384C20.164,20.643,20.164,22.097,20.148,23.55z
		 M18.81,23.576c-0.003,0.267,0.073,0.375,0.356,0.375c0.283-0.002,0.41-0.073,0.406-0.383c-0.013-1.171-0.005-2.343-0.004-3.514
		c0-0.303,0-0.607,0-0.989c-0.453,0.311-0.75,0.608-0.752,1.095C18.811,21.299,18.82,22.438,18.81,23.576z M35.223,28.52
		c0.003,2.913-2.345,5.262-5.254,5.253c-2.879-0.008-5.231-2.359-5.236-5.235c-0.008-2.896,2.357-5.252,5.268-5.248
		C32.889,23.292,35.219,25.627,35.223,28.52z M34.247,28.562c0.028-2.35-1.846-4.281-4.167-4.293
		c-2.381-0.013-4.293,1.86-4.298,4.212c-0.005,2.344,1.873,4.235,4.218,4.245C32.324,32.736,34.22,30.877,34.247,28.562z"/>
</g>
<g id="Layer_1">
</g>
</svg>
