<?xml version="1.0" encoding="iso-8859-1"?>
<!-- Generator: Adobe Illustrator 17.1.0, SVG Export Plug-In . SVG Version: 6.00 Build 0)  -->
<!DOCTYPE svg PUBLIC "-//W3C//DTD SVG 1.1//EN" "http://www.w3.org/Graphics/SVG/1.1/DTD/svg11.dtd">
<svg version="1.1" xmlns="http://www.w3.org/2000/svg" xmlns:xlink="http://www.w3.org/1999/xlink" x="0px" y="0px"
	 viewBox="0 0 60 120" style="enable-background:new 0 0 60 120;" xml:space="preserve">
<g id="mail">
	<rect y="60" style="fill:#37BC9B;" width="60" height="60"/>
	<path id="mail_2_" style="fill:#FFFFFF;" d="M24.551,88.929L16,97.483v-15.34L24.551,88.929z M41.871,80.86H17.599l12.137,9.628
		L41.871,80.86z M29.771,93.011l-0.028,0.037l-0.008-0.006l-0.018,0.013l-0.066-0.08l-3.543-2.809l-8.973,8.974h25.518l-9.115-9.116
		L29.771,93.011z M35.099,88.787L44,97.69V81.726L35.099,88.787z"/>
	<rect style="fill:#888888;" width="60" height="60"/>
	<path id="mail_1_" style="fill:#FFFFFF;" d="M24.551,28.929L16,37.483v-15.34L24.551,28.929z M41.871,20.86H17.599l12.137,9.628
		L41.871,20.86z M29.771,33.011l-0.028,0.037l-0.008-0.006l-0.018,0.013l-0.066-0.08l-3.543-2.809l-8.973,8.974h25.518l-9.115-9.116
		L29.771,33.011z M35.099,28.787L44,37.69V21.726L35.099,28.787z"/>
</g>
<g id="Layer_1">
</g>
</svg>
