<?xml version="1.0" encoding="iso-8859-1"?>
<!-- Generator: Adobe Illustrator 17.1.0, SVG Export Plug-In . SVG Version: 6.00 Build 0)  -->
<!DOCTYPE svg PUBLIC "-//W3C//DTD SVG 1.1//EN" "http://www.w3.org/Graphics/SVG/1.1/DTD/svg11.dtd">
<svg version="1.1" xmlns="http://www.w3.org/2000/svg" xmlns:xlink="http://www.w3.org/1999/xlink" x="0px" y="0px"
	 viewBox="0 0 60 120" style="enable-background:new 0 0 60 120;" xml:space="preserve">
<g id="pinterest">
	<rect y="60" style="fill:#CD1D1F;" width="60" height="60"/>
	<path id="pinterest_4_" style="fill:#FFFFFF;" d="M40.838,85.213c0,6.311-3.507,11.023-8.678,11.023
		c-1.737,0-3.37-0.939-3.93-2.006c0,0-0.934,3.707-1.131,4.422c-0.696,2.525-2.744,5.055-2.902,5.264
		c-0.112,0.143-0.357,0.098-0.383-0.092c-0.045-0.322-0.566-3.512,0.048-6.113c0.309-1.305,2.069-8.764,2.069-8.764
		s-0.514-1.027-0.514-2.545c0-2.384,1.383-4.163,3.101-4.163c1.463,0,2.17,1.098,2.17,2.414c0,1.472-0.937,3.671-1.42,5.708
		c-0.404,1.707,0.856,3.098,2.538,3.098c3.047,0,5.099-3.914,5.099-8.551c0-3.524-2.373-6.164-6.691-6.164
		c-4.877,0-7.919,3.639-7.919,7.703c0,1.4,0.414,2.39,1.062,3.153c0.297,0.352,0.339,0.493,0.232,0.897
		c-0.08,0.297-0.254,1.008-0.33,1.291c-0.105,0.406-0.437,0.553-0.805,0.402c-2.246-0.918-3.293-3.379-3.293-6.145
		C19.162,81.478,23.015,76,30.656,76C36.798,76,40.838,80.442,40.838,85.213z"/>
	<rect y="0" style="fill:#888888;" width="60" height="60.001"/>
	<path id="pinterest_1_" style="fill:#FFFFFF;" d="M40.838,25.214c0,6.309-3.507,11.022-8.678,11.022
		c-1.737,0-3.37-0.938-3.93-2.005c0,0-0.934,3.706-1.131,4.421c-0.696,2.526-2.744,5.056-2.902,5.264
		c-0.112,0.143-0.357,0.098-0.383-0.092c-0.045-0.322-0.566-3.511,0.048-6.112c0.309-1.306,2.069-8.764,2.069-8.764
		s-0.514-1.027-0.514-2.545c0-2.384,1.383-4.163,3.101-4.163c1.463,0,2.17,1.098,2.17,2.414c0,1.472-0.937,3.67-1.42,5.708
		c-0.404,1.707,0.856,3.098,2.538,3.098c3.047,0,5.099-3.915,5.099-8.552c0-3.524-2.373-6.164-6.691-6.164
		c-4.877,0-7.919,3.639-7.919,7.704c0,1.4,0.414,2.389,1.062,3.153c0.297,0.351,0.339,0.493,0.232,0.897
		c-0.08,0.296-0.254,1.008-0.33,1.291c-0.105,0.407-0.437,0.554-0.805,0.402c-2.246-0.917-3.293-3.379-3.293-6.144
		C19.162,21.478,23.015,16,30.656,16C36.798,16,40.838,20.443,40.838,25.214z"/>
</g>
<g id="Layer_1">
</g>
</svg>
