<?xml version="1.0" encoding="iso-8859-1"?>
<!-- Generator: Adobe Illustrator 17.1.0, SVG Export Plug-In . SVG Version: 6.00 Build 0)  -->
<!DOCTYPE svg PUBLIC "-//W3C//DTD SVG 1.1//EN" "http://www.w3.org/Graphics/SVG/1.1/DTD/svg11.dtd">
<svg version="1.1" xmlns="http://www.w3.org/2000/svg" xmlns:xlink="http://www.w3.org/1999/xlink" x="0px" y="0px"
	 viewBox="0 0 60 120" style="enable-background:new 0 0 60 120;" xml:space="preserve">
<g id="rss">
	<rect y="60" style="fill:#FF6501;" width="60" height="60"/>
	<path id="rss_2_" style="fill-rule:evenodd;clip-rule:evenodd;fill:#FFFFFF;" d="M21.39,95.14c1.861,0,3.381,1.53,3.381,3.431
		c0,1.89-1.519,3.43-3.381,3.43c-1.869,0-3.389-1.54-3.389-3.43C18.001,96.67,19.52,95.14,21.39,95.14z M34.01,101.99H29.27
		c-0.56-10.851-11.281-11.3-11.281-11.3v-4.7C34.23,86.66,34.01,101.99,34.01,101.99z M42,102.01h-4.68
		c-1.121-18.069-19.3-19.3-19.3-19.3v-4.72C43.23,79.45,42,102.01,42,102.01z"/>
	<rect style="fill:#888888;" width="60" height="60"/>
	<path id="rss_1_" style="fill-rule:evenodd;clip-rule:evenodd;fill:#FFFFFF;" d="M21.39,35.14c1.861,0,3.381,1.53,3.381,3.431
		c0,1.89-1.519,3.43-3.381,3.43c-1.869,0-3.389-1.54-3.389-3.43C18.001,36.67,19.52,35.14,21.39,35.14z M34.01,41.99H29.27
		c-0.56-10.851-11.281-11.3-11.281-11.3v-4.7C34.23,26.66,34.01,41.99,34.01,41.99z M42,42.01h-4.68
		c-1.121-18.069-19.3-19.3-19.3-19.3v-4.72C43.23,19.45,42,42.01,42,42.01z"/>
</g>
<g id="Layer_1">
</g>
</svg>
