<?xml version="1.0" encoding="iso-8859-1"?>
<!-- Generator: Adobe Illustrator 17.1.0, SVG Export Plug-In . SVG Version: 6.00 Build 0)  -->
<!DOCTYPE svg PUBLIC "-//W3C//DTD SVG 1.1//EN" "http://www.w3.org/Graphics/SVG/1.1/DTD/svg11.dtd">
<svg version="1.1" xmlns="http://www.w3.org/2000/svg" xmlns:xlink="http://www.w3.org/1999/xlink" x="0px" y="0px"
	 viewBox="0 0 60 120" style="enable-background:new 0 0 60 120;" xml:space="preserve">
<g id="sharethis">
	<rect y="60" style="fill:#1C6F00;" width="60" height="60"/>
	<path id="sharethis_2_" style="fill:#FFFFFF;" d="M38.083,93.678c-1.083,0-2.062,0.405-2.823,1.052l-8.957-4.48
		c0-0.083,0.02-0.167,0.02-0.25c0-0.084-0.02-0.167-0.02-0.25l8.957-4.479c0.762,0.646,1.74,1.052,2.823,1.052
		c2.437,0,4.417-1.979,4.417-4.416c0-2.427-1.98-4.406-4.417-4.406c-2.438,0-4.405,1.98-4.405,4.406c0,0.094,0.02,0.166,0.02,0.261
		l-8.957,4.468c-0.762-0.645-1.74-1.052-2.823-1.052c-2.438,0-4.417,1.98-4.417,4.417c0,2.438,1.979,4.406,4.417,4.406
		c1.083,0,2.061-0.406,2.823-1.053l8.957,4.479c0,0.083-0.02,0.167-0.02,0.25c0,2.438,1.968,4.417,4.405,4.417
		c2.437,0,4.417-1.979,4.417-4.417C42.5,95.646,40.52,93.678,38.083,93.678z"/>
	<rect y="0" style="fill:#888888;" width="60" height="60.001"/>
	<path id="sharethis_1_" style="fill:#FFFFFF;" d="M38.083,33.678c-1.083,0-2.062,0.405-2.823,1.052l-8.957-4.48
		c0-0.083,0.02-0.166,0.02-0.25c0-0.083-0.02-0.167-0.02-0.25l8.957-4.479c0.762,0.646,1.74,1.052,2.823,1.052
		c2.437,0,4.417-1.979,4.417-4.416c0-2.427-1.98-4.407-4.417-4.407c-2.438,0-4.405,1.98-4.405,4.407c0,0.094,0.02,0.166,0.02,0.26
		l-8.957,4.468c-0.762-0.645-1.74-1.052-2.823-1.052c-2.438,0-4.417,1.98-4.417,4.417c0,2.438,1.979,4.406,4.417,4.406
		c1.083,0,2.061-0.406,2.823-1.053l8.957,4.479c0,0.083-0.02,0.167-0.02,0.25c0,2.438,1.968,4.417,4.405,4.417
		c2.437,0,4.417-1.979,4.417-4.417C42.5,35.646,40.52,33.678,38.083,33.678z"/>
</g>
<g id="Layer_1">
</g>
</svg>
