<?xml version="1.0" encoding="iso-8859-1"?>
<!-- Generator: Adobe Illustrator 17.1.0, SVG Export Plug-In . SVG Version: 6.00 Build 0)  -->
<!DOCTYPE svg PUBLIC "-//W3C//DTD SVG 1.1//EN" "http://www.w3.org/Graphics/SVG/1.1/DTD/svg11.dtd">
<svg version="1.1" xmlns="http://www.w3.org/2000/svg" xmlns:xlink="http://www.w3.org/1999/xlink" x="0px" y="0px"
	 viewBox="0 0 60 120" style="enable-background:new 0 0 60 120;" xml:space="preserve">
<g id="tumblr">
	<rect y="60" style="fill:#36465D;" width="60" height="60"/>
	<path id="tumblr_2_" style="fill:#FFFFFF;" d="M34.343,98.406c-2.135,0-3.303-1.667-3.303-2.958v-7.489h5.199V83.75H31.04V77.5
		h-3.625c0,5.428-4.707,6.438-4.707,6.438v3.969h3.125v8.927c0,3.095,2.853,5.667,6.322,5.667c3.48,0,5.137-1.386,5.137-1.386
		v-4.093C37.292,97.022,36.489,98.406,34.343,98.406z"/>
	<rect style="fill:#888888;" width="60" height="60"/>
	<path id="tumblr_1_" style="fill:#FFFFFF;" d="M34.343,38.406c-2.135,0-3.303-1.667-3.303-2.958v-7.49h5.199V23.75H31.04V17.5
		h-3.625c0,5.427-4.707,6.437-4.707,6.437v3.969h3.125v8.927c0,3.095,2.853,5.667,6.322,5.667c3.48,0,5.137-1.386,5.137-1.386
		v-4.093C37.292,37.022,36.489,38.406,34.343,38.406z"/>
</g>
<g id="Layer_1">
</g>
</svg>
