<?xml version="1.0" encoding="iso-8859-1"?>
<!-- Generator: Adobe Illustrator 17.1.0, SVG Export Plug-In . SVG Version: 6.00 Build 0)  -->
<!DOCTYPE svg PUBLIC "-//W3C//DTD SVG 1.1//EN" "http://www.w3.org/Graphics/SVG/1.1/DTD/svg11.dtd">
<svg version="1.1" xmlns="http://www.w3.org/2000/svg" xmlns:xlink="http://www.w3.org/1999/xlink" x="0px" y="0px"
	 viewBox="0 0 60 120" style="enable-background:new 0 0 60 120;" xml:space="preserve">
<g id="twitter">
	<rect y="60.001" style="fill:#55ACEE;" width="60" height="59.999"/>
	<path id="twitter_2_" style="fill:#FFFFFF;" d="M42.5,82.248c-0.92,0.408-1.908,0.684-2.946,0.807
		c1.06-0.635,1.873-1.639,2.256-2.838c-0.991,0.588-2.089,1.016-3.257,1.246c-0.936-0.998-2.269-1.621-3.744-1.621
		c-2.833,0-5.13,2.297-5.13,5.129c0,0.402,0.047,0.795,0.134,1.17c-4.263-0.215-8.042-2.256-10.571-5.359
		c-0.441,0.758-0.695,1.639-0.695,2.578c0,1.779,0.906,3.35,2.282,4.27c-0.841-0.027-1.632-0.258-2.323-0.643
		c0,0.021,0,0.045,0,0.064c0,2.486,1.768,4.559,4.113,5.029c-0.43,0.117-0.883,0.18-1.351,0.18c-0.331,0-0.651-0.031-0.966-0.092
		c0.653,2.039,2.547,3.522,4.792,3.563c-1.755,1.377-3.967,2.195-6.37,2.195c-0.414,0-0.822-0.023-1.224-0.072
		c2.27,1.455,4.966,2.305,7.862,2.305c9.435,0,14.594-7.814,14.594-14.592c0-0.223-0.006-0.445-0.016-0.664
		C40.943,84.18,41.812,83.275,42.5,82.248z"/>
	<rect y="0" style="fill:#888888;" width="60" height="60"/>
	<path id="twitter_1_" style="fill:#FFFFFF;" d="M42.5,22.247c-0.92,0.408-1.908,0.684-2.946,0.808
		c1.06-0.635,1.873-1.64,2.256-2.838c-0.991,0.588-2.089,1.015-3.257,1.245c-0.936-0.997-2.269-1.62-3.744-1.62
		c-2.833,0-5.13,2.296-5.13,5.129c0,0.402,0.047,0.794,0.134,1.169c-4.263-0.214-8.042-2.256-10.571-5.359
		c-0.441,0.758-0.695,1.639-0.695,2.578c0,1.78,0.906,3.35,2.282,4.269c-0.841-0.026-1.632-0.257-2.323-0.642
		c0,0.021,0,0.044,0,0.065c0,2.485,1.768,4.559,4.113,5.029c-0.43,0.117-0.883,0.18-1.351,0.18c-0.331,0-0.651-0.031-0.966-0.092
		c0.653,2.038,2.547,3.521,4.792,3.563c-1.755,1.376-3.967,2.195-6.37,2.195c-0.414,0-0.822-0.024-1.224-0.072
		c2.27,1.455,4.966,2.305,7.862,2.305c9.435,0,14.594-7.815,14.594-14.593c0-0.223-0.006-0.444-0.016-0.664
		C40.943,24.179,41.812,23.275,42.5,22.247z"/>
</g>
<g id="Layer_1">
</g>
</svg>
