<?xml version="1.0" encoding="iso-8859-1"?>
<!-- Generator: Adobe Illustrator 17.1.0, SVG Export Plug-In . SVG Version: 6.00 Build 0)  -->
<!DOCTYPE svg PUBLIC "-//W3C//DTD SVG 1.1//EN" "http://www.w3.org/Graphics/SVG/1.1/DTD/svg11.dtd">
<svg version="1.1" xmlns="http://www.w3.org/2000/svg" xmlns:xlink="http://www.w3.org/1999/xlink" x="0px" y="0px"
	 viewBox="0 0 60 120" style="enable-background:new 0 0 60 120;" xml:space="preserve">
<g id="youtube">
	<rect y="60" style="fill:#E52D27;" width="60" height="60"/>
	<path id="youtube_2_" style="fill-rule:evenodd;clip-rule:evenodd;fill:#FFFFFF;" d="M38.787,91.332L23.03,102.169
		c-1.235,0.803-2.756,0.086-2.756-1.508v-1.285h0.013V82.508h-0.013v-3.139c0-1.594,1.521-2.348,2.756-1.545l15.781,10.591
		C40.047,89.219,40.022,90.529,38.787,91.332z"/>
	<rect style="fill:#888888;" width="60" height="60"/>
	<path id="youtube_1_" style="fill-rule:evenodd;clip-rule:evenodd;fill:#FFFFFF;" d="M38.787,31.332L23.03,42.169
		c-1.235,0.803-2.756,0.086-2.756-1.508v-1.285h0.013V22.508h-0.013v-3.139c0-1.594,1.521-2.348,2.756-1.544l15.781,10.59
		C40.047,29.218,40.022,30.529,38.787,31.332z"/>
</g>
<g id="Layer_1">
</g>
</svg>
