<?xml version="1.0" encoding="iso-8859-1"?>
<!-- Generator: Adobe Illustrator 17.1.0, SVG Export Plug-In . SVG Version: 6.00 Build 0)  -->
<!DOCTYPE svg PUBLIC "-//W3C//DTD SVG 1.1//EN" "http://www.w3.org/Graphics/SVG/1.1/DTD/svg11.dtd">
<svg version="1.1" xmlns="http://www.w3.org/2000/svg" xmlns:xlink="http://www.w3.org/1999/xlink" x="0px" y="0px"
	 viewBox="0 0 25 24.986" style="enable-background:new 0 0 25 24.986;" xml:space="preserve">
<g id="instagram">
	<path id="instagram_1_" style="fill-rule:evenodd;clip-rule:evenodd;fill:#FEFEFE;" d="M25,8.705
		c-0.011,4.522,0.003,9.045-0.012,13.566c-0.006,1.708-1.064,2.715-2.777,2.716c-3.249,0-6.497,0-9.746,0c-3.232,0-6.464,0-9.697,0
		c-1.711-0.001-2.756-1.027-2.758-2.729C0.005,17.769,0.013,13.279,0,8.79c-0.001-0.412,0.084-0.564,0.535-0.558
		c2.073,0.026,4.146,0.02,6.219,0.004c0.416-0.002,0.487,0.061,0.314,0.476c-1.346,3.226,0.328,6.823,3.645,7.883
		c3.283,1.05,6.749-0.971,7.507-4.382c0.271-1.218,0.15-2.408-0.358-3.541c-0.184-0.411-0.064-0.436,0.305-0.435
		c2.122,0.013,4.244,0.016,6.367-0.002C24.905,8.231,25.001,8.346,25,8.705z M0,7.106c0.02-1.502-0.004-3.004,0.012-4.506
		c0.016-1.554,1.081-2.597,2.64-2.598c3.282-0.004,6.563-0.001,9.845-0.001c3.248,0,6.498-0.001,9.747,0
		c1.666,0.001,2.714,0.994,2.743,2.65C25.012,4.137,24.983,5.623,25,7.108c0.004,0.353-0.124,0.433-0.454,0.431
		c-2.317-0.012-4.637-0.01-6.955-0.001c-0.249,0-0.412-0.07-0.578-0.267c-2.44-2.88-6.623-2.885-9.068-0.012
		c-0.175,0.205-0.335,0.306-0.61,0.304C5.048,7.553,2.762,7.55,0.477,7.565C0.122,7.567-0.005,7.483,0,7.106z M18.062,3.107
		c-0.019,0.505-0.02,1.012,0.002,1.517c0.036,0.844,0.615,1.48,1.46,1.571c0.844,0.091,1.695,0.09,2.539,0.002
		c0.884-0.093,1.468-0.76,1.494-1.652c0.014-0.457,0.013-0.914,0-1.371c-0.024-0.966-0.7-1.652-1.669-1.698
		c-0.357-0.017-0.718-0.002-1.076-0.002c0,0.001,0,0.003,0,0.004c-0.392,0-0.785-0.023-1.175,0.005
		C18.734,1.546,18.096,2.205,18.062,3.107z M5.602,3.838c0,0.75,0.012,1.5-0.005,2.251C5.589,6.435,5.783,6.435,6.034,6.44
		c0.262,0.005,0.379-0.07,0.377-0.359C6.4,4.613,6.398,3.145,6.412,1.677C6.415,1.355,6.275,1.305,6.001,1.3
		C5.713,1.295,5.589,1.377,5.596,1.686C5.613,2.403,5.602,3.121,5.602,3.838z M4.161,6.051C4.157,6.352,4.252,6.443,4.549,6.444
		c0.314,0,0.43-0.088,0.419-0.418C4.945,5.309,4.962,4.589,4.962,3.871c0-0.718-0.017-1.438,0.007-2.155
		c0.01-0.33-0.105-0.418-0.419-0.418C4.252,1.299,4.157,1.39,4.161,1.691C4.174,3.145,4.174,4.598,4.161,6.051z M2.648,6.043
		C2.645,6.391,2.802,6.44,3.094,6.442c0.286,0.002,0.409-0.071,0.4-0.384c-0.02-0.718-0.007-1.436-0.007-2.155
		c0-0.735-0.011-1.47,0.005-2.205C3.499,1.407,3.416,1.288,3.109,1.3C2.835,1.311,2.645,1.318,2.648,1.684
		C2.663,3.136,2.663,4.59,2.648,6.043z M1.309,6.069C1.306,6.337,1.382,6.445,1.666,6.444c0.283-0.002,0.41-0.073,0.407-0.383
		C2.059,4.89,2.067,3.718,2.068,2.547c0-0.303,0-0.607,0-0.989c-0.453,0.311-0.75,0.608-0.752,1.095
		C1.311,3.792,1.32,4.931,1.309,6.069z M17.722,11.013c0.003,2.913-2.345,5.262-5.254,5.253c-2.879-0.008-5.231-2.359-5.237-5.235
		c-0.007-2.896,2.358-5.252,5.268-5.248C15.388,5.785,17.718,8.12,17.722,11.013z M16.747,11.055
		c0.028-2.35-1.846-4.281-4.166-4.293c-2.381-0.013-4.293,1.86-4.298,4.212c-0.005,2.344,1.873,4.235,4.218,4.245
		C14.824,15.229,16.719,13.37,16.747,11.055z"/>
</g>
<g id="Layer_1">
</g>
</svg>
