<?xml version="1.0" encoding="iso-8859-1"?>
<!-- Generator: Adobe Illustrator 17.1.0, SVG Export Plug-In . SVG Version: 6.00 Build 0)  -->
<!DOCTYPE svg PUBLIC "-//W3C//DTD SVG 1.1//EN" "http://www.w3.org/Graphics/SVG/1.1/DTD/svg11.dtd">
<svg version="1.1" xmlns="http://www.w3.org/2000/svg" xmlns:xlink="http://www.w3.org/1999/xlink" x="0px" y="0px"
	 viewBox="0 0 21.676 28" style="enable-background:new 0 0 21.676 28;" xml:space="preserve">
<g id="pinterest">
	<path id="pinterest_3_" style="fill:#FFFFFF;" d="M21.676,9.214c0,6.309-3.507,11.022-8.678,11.022
		c-1.737,0-3.37-0.938-3.929-2.005c0,0-0.934,3.706-1.131,4.421c-0.696,2.526-2.744,5.056-2.903,5.264
		c-0.112,0.143-0.356,0.098-0.382-0.092c-0.045-0.322-0.567-3.511,0.047-6.112c0.309-1.306,2.069-8.764,2.069-8.764
		s-0.513-1.027-0.513-2.545c0-2.384,1.382-4.163,3.102-4.163c1.462,0,2.169,1.098,2.169,2.414c0,1.472-0.937,3.67-1.42,5.708
		c-0.404,1.707,0.856,3.098,2.538,3.098c3.047,0,5.099-3.915,5.099-8.552c0-3.524-2.373-6.164-6.692-6.164
		c-4.877,0-7.918,3.639-7.918,7.704c0,1.4,0.414,2.389,1.061,3.153c0.297,0.352,0.339,0.493,0.232,0.897
		c-0.08,0.296-0.254,1.008-0.329,1.291c-0.107,0.407-0.437,0.554-0.805,0.402C1.047,15.274,0,12.813,0,10.047
		C0,5.478,3.853,0,11.495,0C17.636,0,21.676,4.443,21.676,9.214z"/>
</g>
<g id="Layer_1">
</g>
</svg>
