<?xml version="1.0" encoding="iso-8859-1"?>
<!-- Generator: Adobe Illustrator 17.1.0, SVG Export Plug-In . SVG Version: 6.00 Build 0)  -->
<!DOCTYPE svg PUBLIC "-//W3C//DTD SVG 1.1//EN" "http://www.w3.org/Graphics/SVG/1.1/DTD/svg11.dtd">
<svg version="1.1" xmlns="http://www.w3.org/2000/svg" xmlns:xlink="http://www.w3.org/1999/xlink" x="0px" y="0px"
	 viewBox="0 0 24.021 24.02" style="enable-background:new 0 0 24.021 24.02;" xml:space="preserve">
<g id="rss">
	<path id="rss_1_" style="fill-rule:evenodd;clip-rule:evenodd;fill:#FFFFFF;" d="M3.4,17.149c1.86,0,3.38,1.53,3.38,3.431
		c0,1.89-1.52,3.43-3.38,3.43c-1.87,0-3.39-1.54-3.39-3.43C0.01,18.68,1.53,17.149,3.4,17.149z M16.02,24H11.28
		C10.72,13.149,0,12.7,0,12.7V8C16.24,8.67,16.02,24,16.02,24z M24.011,24.02H19.33C18.21,5.95,0.03,4.72,0.03,4.72V0
		C25.24,1.46,24.011,24.02,24.011,24.02z"/>
</g>
<g id="Layer_1">
</g>
</svg>
