<?xml version="1.0" encoding="iso-8859-1"?>
<!-- Generator: Adobe Illustrator 17.1.0, SVG Export Plug-In . SVG Version: 6.00 Build 0)  -->
<!DOCTYPE svg PUBLIC "-//W3C//DTD SVG 1.1//EN" "http://www.w3.org/Graphics/SVG/1.1/DTD/svg11.dtd">
<svg version="1.1" xmlns="http://www.w3.org/2000/svg" xmlns:xlink="http://www.w3.org/1999/xlink" x="0px" y="0px"
	 viewBox="0 0 25 25" style="enable-background:new 0 0 25 25;" xml:space="preserve">
<g id="sharethis">
	<path id="sharethis_1_" style="fill:#FFFFFF;" d="M20.583,16.178c-1.083,0-2.062,0.405-2.823,1.052l-8.958-4.48
		c0-0.083,0.021-0.166,0.021-0.25c0-0.083-0.021-0.167-0.021-0.25l8.958-4.479c0.762,0.646,1.74,1.052,2.823,1.052
		C23.02,8.823,25,6.844,25,4.407C25,1.98,23.02,0,20.583,0c-2.438,0-4.405,1.98-4.405,4.407c0,0.094,0.02,0.166,0.02,0.26
		L7.24,9.135C6.479,8.49,5.5,8.083,4.417,8.083C1.979,8.083,0,10.063,0,12.5c0,2.438,1.979,4.406,4.417,4.406
		c1.083,0,2.062-0.406,2.823-1.053l8.958,4.479c0,0.083-0.02,0.167-0.02,0.25c0,2.438,1.968,4.417,4.405,4.417
		C23.02,25,25,23.021,25,20.583C25,18.146,23.02,16.178,20.583,16.178z"/>
</g>
<g id="Layer_1">
</g>
</svg>
