<?xml version="1.0" encoding="iso-8859-1"?>
<!-- Generator: Adobe Illustrator 17.1.0, SVG Export Plug-In . SVG Version: 6.00 Build 0)  -->
<!DOCTYPE svg PUBLIC "-//W3C//DTD SVG 1.1//EN" "http://www.w3.org/Graphics/SVG/1.1/DTD/svg11.dtd">
<svg version="1.1" xmlns="http://www.w3.org/2000/svg" xmlns:xlink="http://www.w3.org/1999/xlink" x="0px" y="0px"
	 viewBox="0 0 25 20.317" style="enable-background:new 0 0 25 20.317;" xml:space="preserve">
<g id="twitter">
	<path id="twitter_1_" style="fill:#FFFFFF;" d="M25,2.406c-0.92,0.408-1.908,0.684-2.946,0.807c1.06-0.635,1.873-1.64,2.256-2.838
		c-0.991,0.588-2.089,1.015-3.257,1.245C20.117,0.624,18.784,0,17.309,0c-2.833,0-5.129,2.296-5.129,5.129
		c0,0.402,0.046,0.793,0.133,1.168C8.05,6.084,4.27,4.042,1.741,0.939C1.299,1.697,1.046,2.577,1.046,3.517
		c0,1.78,0.906,3.35,2.282,4.269C2.487,7.76,1.696,7.529,1.005,7.145C1.004,7.167,1.004,7.189,1.004,7.21
		c0,2.485,1.768,4.559,4.114,5.029c-0.43,0.117-0.884,0.18-1.351,0.18c-0.331,0-0.652-0.031-0.965-0.092
		c0.653,2.038,2.547,3.521,4.792,3.563c-1.755,1.376-3.967,2.195-6.37,2.195c-0.414,0-0.822-0.024-1.224-0.072
		c2.27,1.455,4.966,2.305,7.862,2.305c9.435,0,14.594-7.815,14.594-14.593c0-0.222-0.006-0.444-0.016-0.663
		C23.443,4.337,24.312,3.434,25,2.406z"/>
</g>
<g id="Layer_1">
</g>
</svg>
